<svg xmlns="http://www.w3.org/2000/svg" viewBox="0 0 72.88 85.75"><defs><style>.cls-1{fill:#eabf73;}.cls-2{fill:#d1a44a;}.cls-3{fill:#f44545;}</style></defs><title>Asset 51</title><g id="Layer_2" data-name="Layer 2"><g id="Layer_1-2" data-name="Layer 1"><path class="cls-1" d="M63.12,49.37A26.71,26.71,0,1,1,36.41,22.65V44.53a.9.9,0,0,0,0,.23,2.66,2.66,0,0,0,4.07,2L59,35.15A26.56,26.56,0,0,1,63.12,49.37Z"/><path class="cls-2" d="M70.32,49.37A33.91,33.91,0,1,1,32.9,15.64a3.19,3.19,0,0,1,3.51,3.18v3.83A26.72,26.72,0,1,0,59,35.15l3.26-2a3.19,3.19,0,0,1,4.55,1.27A33.84,33.84,0,0,1,70.32,49.37Z"/><path class="cls-2" d="M68.33,20.58l-2.1,1.32A26.71,26.71,0,0,0,43.61,9.4V6.92a4.4,4.4,0,0,1,5-4.34A33.85,33.85,0,0,1,69.33,14,4.38,4.38,0,0,1,68.33,20.58Z"/><path class="cls-1" d="M66.23,21.9l-19.09,12A2.3,2.3,0,0,1,43.61,32V9.4A26.71,26.71,0,0,1,66.23,21.9Z"/><circle class="cls-3" cx="25.97" cy="59.28" r="5.8"/><circle class="cls-3" cx="49.4" cy="55.16" r="5.8"/><path class="cls-3" d="M49.4,21.83a5.79,5.79,0,0,1-5.79,5.8V16A5.8,5.8,0,0,1,49.4,21.83Z"/><path class="cls-3" d="M36.41,30.27v11.6a5.8,5.8,0,0,1,0-11.6Z"/><path d="M65.53,30.29A5.72,5.72,0,0,0,61,31L43.61,41.85l-4.4,2.76a.17.17,0,0,1-.18,0,.17.17,0,0,1-.11-.14.09.09,0,0,0,0,0V18.78a5.7,5.7,0,0,0-6.27-5.67,36.49,36.49,0,0,0-16.28,5.83,2.5,2.5,0,0,0,2.76,4.17,31.32,31.32,0,0,1,14-5,.66.66,0,0,1,.53.17.69.69,0,0,1,.23.52v1.45a29.38,29.38,0,0,0-18.79,9.1A29.2,29.2,0,0,0,34.55,78.48c.64,0,1.27.06,1.9.06A28.86,28.86,0,0,0,56.64,70.4a2.5,2.5,0,1,0-3.46-3.6A24.21,24.21,0,1,1,33.91,25.24v2.88a8.31,8.31,0,0,0,0,15.84v.54a2,2,0,0,0,0,.23s0,.06,0,.09a2.32,2.32,0,0,0,0,.24v0h0a5.15,5.15,0,0,0,7.87,3.77l16.3-10.24A24.29,24.29,0,0,1,57.64,61,2.5,2.5,0,0,0,62,63.41,29.2,29.2,0,0,0,62.37,36l1.24-.78a.73.73,0,0,1,.57-.08.65.65,0,0,1,.41.34,31.2,31.2,0,0,1,3.23,13.89,31.53,31.53,0,0,1-10,23A31.41,31.41,0,0,1,10.43,31.67,2.5,2.5,0,1,0,6.3,28.86a36.42,36.42,0,0,0,27.53,56.8c.88.06,1.74.09,2.61.09A36.05,36.05,0,0,0,61.25,76,36.5,36.5,0,0,0,72.82,49.33a36,36,0,0,0-3.75-16.1A5.68,5.68,0,0,0,65.53,30.29ZM33.11,36a3.26,3.26,0,0,1,.8-2.15V38.2A3.31,3.31,0,0,1,33.11,36Z"/><path d="M43.59,36.12a4.83,4.83,0,0,0,2.32.6A4.9,4.9,0,0,0,48.47,36L67.56,24h0l2.1-1.32a6.87,6.87,0,0,0,1.57-10.3,2.5,2.5,0,1,0-3.79,3.26,1.82,1.82,0,0,1,.42,1.49A1.86,1.86,0,0,1,67,18.43l-.08.05c-.16-.22-.34-.43-.51-.64s-.23-.31-.35-.45c-.37-.44-.74-.87-1.12-1.28l-.06-.06c-.37-.4-.76-.78-1.15-1.16l-.42-.38-.85-.76-.49-.4c-.29-.23-.57-.46-.86-.67l-.51-.38-1-.65-.45-.3a30.24,30.24,0,0,0-3-1.63l-.49-.22c-.35-.16-.71-.32-1.07-.46l-.57-.23-1-.37-.59-.2c-.37-.12-.74-.23-1.12-.33l-.52-.14c-.55-.14-1.1-.27-1.66-.37h0c-.57-.1-1.13-.19-1.7-.27L47,7.06,46.11,7V6.89a1.85,1.85,0,0,1,.66-1.43A1.89,1.89,0,0,1,48.29,5a31.26,31.26,0,0,1,10,3.26,2.5,2.5,0,0,0,2.33-4.42A36,36,0,0,0,49,.08a6.88,6.88,0,0,0-7.92,6.81v25A4.79,4.79,0,0,0,43.59,36.12Zm2.52-16.47a3.28,3.28,0,0,1,.8,2.15,3.23,3.23,0,0,1-.8,2.14Zm0,11.91V29.71a8.3,8.3,0,0,0,0-15.83V12l.36,0,.49.06,1,.16.43.07q.68.13,1.32.3h0c.44.12.89.25,1.32.39l.42.14q.45.15.9.33l.46.18.87.38.41.19c.4.19.79.39,1.18.6l.06,0c.39.21.78.44,1.16.68l.37.25c.27.17.53.35.79.53l.4.3c.25.19.5.38.74.58l.36.29c.34.29.68.58,1,.89l.07.07c.32.31.63.62.93.94l.32.34.61.71.34.41.21.28Z"/><path d="M26,51a8.3,8.3,0,1,0,8.3,8.3A8.31,8.31,0,0,0,26,51Zm0,11.6a3.3,3.3,0,1,1,3.3-3.3A3.3,3.3,0,0,1,26,62.55Z"/><path d="M49.41,46.83a8.3,8.3,0,1,0,8.3,8.3A8.31,8.31,0,0,0,49.41,46.83Zm0,11.6a3.3,3.3,0,1,1,3.3-3.3A3.3,3.3,0,0,1,49.41,58.43Z"/></g></g></svg>