<svg xmlns="http://www.w3.org/2000/svg" viewBox="0 0 82.84 71.49"><defs><style>.cls-1{fill:#dbd8d2;}.cls-2{fill:#ededed;}.cls-3{fill:#fff;}.cls-4{fill:#414356;}</style></defs><title>Asset 27</title><g id="Layer_2" data-name="Layer 2"><g id="Layer_1-2" data-name="Layer 1"><path class="cls-1" d="M46.7,3.29H82.84a0,0,0,0,1,0,0V66.75a0,0,0,0,1,0,0H46.7a5.29,5.29,0,0,1-5.29-5.29V8.58A5.29,5.29,0,0,1,46.7,3.29Z" transform="translate(124.26 70.05) rotate(-180)"/><path class="cls-2" d="M41.42,3.29V66.75l-3.26-.61a153.21,153.21,0,0,0-26.83-2.62L5,63.46a5.31,5.31,0,0,1-5-5.52V5.53A5.31,5.31,0,0,1,5.1,0l6.27.06a152.87,152.87,0,0,1,26.8,2.62Z"/><rect class="cls-3" x="51.23" y="11.72" width="22.53" height="19.29"/><path class="cls-4" d="M62.49,41.51H51.23a2,2,0,0,1,0-4H62.49a2,2,0,0,1,0,4Z"/><path class="cls-4" d="M62.49,50H51.23a2,2,0,0,1,0-4H62.49a2,2,0,0,1,0,4Z"/><path class="cls-4" d="M62.49,58.52H51.23a2,2,0,0,1,0-4H62.49a2,2,0,0,1,0,4Z"/><path class="cls-4" d="M73.76,41.51H70.39a2,2,0,0,1,0-4h3.37a2,2,0,0,1,0,4Z"/><path class="cls-4" d="M73.76,50H70.39a2,2,0,0,1,0-4h3.37a2,2,0,0,1,0,4Z"/><path class="cls-4" d="M73.46,58.52H70.09a2,2,0,0,1,0-4h3.37a2,2,0,0,1,0,4Z"/><path class="cls-4" d="M33.85,15.91a2,2,0,0,1-.71-.13,57.14,57.14,0,0,0-23.66-3,2,2,0,1,1-.48-4A60.15,60.15,0,0,1,34.55,12a2,2,0,0,1-.7,3.87Z"/><path class="cls-4" d="M33,25.58a2.15,2.15,0,0,1-.7-.12,46.76,46.76,0,0,0-5.18-1.6A2,2,0,1,1,28.08,20a50,50,0,0,1,5.63,1.73,2,2,0,0,1-.7,3.87Z"/><path class="cls-4" d="M21.54,22.79a2,2,0,0,1-.34,0c-8-1.39-12.23-.34-12.27-.33a2,2,0,1,1-1-3.86c.2-.06,5-1.32,14,.25a2,2,0,0,1-.35,4Z"/><path class="cls-4" d="M33,34.78a1.93,1.93,0,0,1-.7-.13,49,49,0,0,0-5.18-1.59,2,2,0,1,1,.95-3.88,50,50,0,0,1,5.63,1.73,2,2,0,0,1-.7,3.87Z"/><path class="cls-4" d="M21.54,32a2,2,0,0,1-.34,0c-8-1.39-12.23-.34-12.27-.33a2,2,0,1,1-1-3.86c.2-.06,5-1.32,14,.25a2,2,0,0,1-.35,4Z"/><path class="cls-4" d="M33,44a1.93,1.93,0,0,1-.7-.13,47.42,47.42,0,0,0-5.18-1.59,2,2,0,1,1,.95-3.88,50.61,50.61,0,0,1,5.63,1.73A2,2,0,0,1,33,44Z"/><path class="cls-4" d="M21.54,41.19a2,2,0,0,1-.34,0c-8-1.39-12.23-.34-12.27-.33a2,2,0,1,1-1-3.86c.2-.06,5-1.32,14,.25a2,2,0,0,1-.35,4Z"/><path class="cls-1" d="M41.42,66.75,9.92,71.44A4.2,4.2,0,0,1,5.1,67.37L5,63.46l6.32.06a153.21,153.21,0,0,1,26.83,2.62Z"/></g></g></svg>