<svg xmlns="http://www.w3.org/2000/svg" viewBox="0 0 58.93 59.95"><defs><style>.cls-1{fill:#ededed;}</style></defs><title>Asset 60</title><g id="Layer_2" data-name="Layer 2"><g id="Layer_1-2" data-name="Layer 1"><path class="cls-1" d="M56.42,29.63a11.93,11.93,0,0,1-9.65,11.71l.81,13.18a2.79,2.79,0,0,1-2.79,3H14.12a2.78,2.78,0,0,1-2.78-3l.81-13.18A11.93,11.93,0,0,1,14.29,17.7a15.17,15.17,0,0,1,30.34,0A11.93,11.93,0,0,1,56.42,29.63Z"/><path d="M14.33,20.17a2.5,2.5,0,0,0,2.47-2.5A12.68,12.68,0,0,1,29.47,5a2.5,2.5,0,0,0,0-5A17.68,17.68,0,0,0,12,15.38a14.44,14.44,0,0,0-2.42,27.8L8.85,54.34A5.27,5.27,0,0,0,14.13,60a2.5,2.5,0,0,0,0-5,.26.26,0,0,1-.21-.09.25.25,0,0,1-.08-.21l.81-13.18a2.51,2.51,0,0,0-2-2.61,9.43,9.43,0,0,1,1.7-18.69Z"/><path d="M58.93,29.6A14.5,14.5,0,0,0,47,15.38,17.67,17.67,0,0,0,42.73,6,2.5,2.5,0,1,0,39,9.3a12.67,12.67,0,0,1,3.15,8.37,2.51,2.51,0,0,0,2.48,2.5,9.43,9.43,0,0,1,6.55,16.1,9.32,9.32,0,0,1-4.86,2.59,2.5,2.5,0,0,0-2,2.61l.81,13.18a.28.28,0,0,1-.08.21.29.29,0,0,1-.21.09H26.61a2.5,2.5,0,0,0,0,5H44.8a5.29,5.29,0,0,0,5.28-5.61l-.69-11.16A14.47,14.47,0,0,0,58.93,29.6Z"/><path d="M21.45,42.13a2.5,2.5,0,0,0-2.5,2.5v5.45a2.5,2.5,0,0,0,5,0V44.63A2.5,2.5,0,0,0,21.45,42.13Z"/><path d="M29.46,42.13a2.5,2.5,0,0,0-2.5,2.5v5.45a2.5,2.5,0,0,0,5,0V44.63A2.5,2.5,0,0,0,29.46,42.13Z"/><path d="M38.29,52.58a2.5,2.5,0,0,0,2.5-2.5V44.63a2.5,2.5,0,0,0-5,0v5.45A2.5,2.5,0,0,0,38.29,52.58Z"/></g></g></svg>