<svg xmlns="http://www.w3.org/2000/svg" viewBox="0 0 67.82 74.31"><defs><style>.cls-1{fill:#dbd8d2;}.cls-2{fill:#ededed;}.cls-3{fill:#ffe0b3;}.cls-4{fill:#6196ff;}</style></defs><title>Asset 29</title><g id="Layer_2" data-name="Layer 2"><g id="Layer_1-2" data-name="Layer 1"><path class="cls-1" d="M64.83,32.2H6.4a3,3,0,0,0-3,3h0a3,3,0,0,0,3,3H64.83a3,3,0,0,0,3-3h0A3,3,0,0,0,64.83,32.2Z"/><path class="cls-2" d="M10.55,32.2a25,25,0,1,1,49.93,0"/><circle class="cls-1" cx="35.62" cy="2.81" r="2.81"/><path class="cls-3" d="M43.23,47.85,56.17,43.4a3.11,3.11,0,0,1,3.64,1.29h0A3.1,3.1,0,0,1,59,48.8L47.23,57.67a15,15,0,0,1-9,3H21.11l-2.55,2.88L11,54.64,19.22,47A10,10,0,0,1,26,44.37H39.75a3.48,3.48,0,0,1,3.48,3.48h0a3.48,3.48,0,0,1-3.48,3.48H30.46"/><path class="cls-4" d="M10.34,53.83l9.22,10.93a1.7,1.7,0,0,1-.11,2.3l-6.94,6.77A1.7,1.7,0,0,1,10,73.71L.4,62.24a1.69,1.69,0,0,1,.2-2.38L8,53.63A1.68,1.68,0,0,1,10.34,53.83Z"/><circle cx="11.52" cy="66.1" r="1.81"/></g></g></svg>