<svg xmlns="http://www.w3.org/2000/svg" viewBox="0 0 58.35 72.54"><defs><style>.cls-1{fill:#f44545;}.cls-2{fill:#ededed;}.cls-3{fill:#fff;}</style></defs><title>Asset 45</title><g id="Layer_2" data-name="Layer 2"><g id="Layer_1-2" data-name="Layer 1"><path class="cls-1" d="M55.84,6.18v54.2H7.34a4.83,4.83,0,0,0-4.85,4.84v-59A3.65,3.65,0,0,1,6.14,2.53H52.19A3.64,3.64,0,0,1,55.84,6.18Z"/><path class="cls-2" d="M39.53,22.19a4.58,4.58,0,0,1-3.71,4.5l.32,5.07a1.09,1.09,0,0,1-1.08,1.14H23.27a1.08,1.08,0,0,1-1.07-1.14l.31-5.07a4.59,4.59,0,0,1,.83-9.09A5.83,5.83,0,1,1,35,17.6,4.58,4.58,0,0,1,39.53,22.19Z"/><path class="cls-2" d="M55.84,60.38v9.69H7.34a4.85,4.85,0,1,1,0-9.69Z"/><rect class="cls-3" x="14.35" y="39.61" width="30.23" height="8.62" rx="3.76"/><path d="M41.54,22.15a6.61,6.61,0,0,0-4.72-6.31,7.84,7.84,0,0,0-15.28,0A6.59,6.59,0,0,0,20.43,28l-.22,3.56a3.06,3.06,0,0,0,3.07,3.26H35.07a3.06,3.06,0,0,0,3.07-3.26L37.92,28a6.62,6.62,0,0,0,3.62-5.89ZM36.78,24a2.58,2.58,0,0,1-1.33.71L33.73,25l.35,5.83H31.23a2,2,0,0,0,1.94-2V26.74a2,2,0,1,0-4,0v2.13a2,2,0,0,0,1.93,2H27.17a2,2,0,0,0,1.94-2V26.74a2,2,0,1,0-4,0v2.13a2,2,0,0,0,1.94,2H24.27L24.63,25,22.9,24.7a2.6,2.6,0,0,1-2.09-2.55,2.55,2.55,0,0,1,.76-1.82,2.59,2.59,0,0,1,1.8-.76l2,0v-2a3.83,3.83,0,0,1,7.66,0v2l2,0A2.59,2.59,0,0,1,36.78,24Z"/><path d="M55.85,51.56a2.5,2.5,0,0,0-2.5,2.5v3.78h-46a7.61,7.61,0,0,0-1.08.09l-.2,0a7,7,0,0,0-1,.25l-.07,0V32.07a2.5,2.5,0,0,0-5,0V65.19a7.36,7.36,0,0,0,7.35,7.35H20a2.5,2.5,0,1,0,0-5H7.35A2.35,2.35,0,0,1,5,65.19a2.3,2.3,0,0,1,.69-1.66,2.34,2.34,0,0,1,1.66-.69h46v4.7H35.11a2.5,2.5,0,0,0,0,5H55.85a2.5,2.5,0,0,0,2.5-2.5v-16A2.5,2.5,0,0,0,55.85,51.56Z"/><path d="M52.2,0H6.15A6.16,6.16,0,0,0,0,6.15V18.78a2.5,2.5,0,0,0,5,0V6.15A1.16,1.16,0,0,1,6.15,5H52.2a1.16,1.16,0,0,1,1.15,1.15V40.6a2.5,2.5,0,0,0,5,0V6.15A6.16,6.16,0,0,0,52.2,0Z"/><path d="M12.36,43.34v1.09a5.77,5.77,0,0,0,5.76,5.76H40.83a5.76,5.76,0,0,0,5.76-5.76V43.34a5.76,5.76,0,0,0-5.76-5.76H18.12A5.77,5.77,0,0,0,12.36,43.34Zm4,0a1.76,1.76,0,0,1,1.76-1.76H40.83a1.76,1.76,0,0,1,1.76,1.76v1.09a1.76,1.76,0,0,1-1.76,1.76H18.12a1.76,1.76,0,0,1-1.76-1.76Z"/></g></g></svg>