<svg xmlns="http://www.w3.org/2000/svg" xmlns:xlink="http://www.w3.org/1999/xlink" viewBox="0 0 218.16 241.12"><defs><style>.cls-1{fill:none;}.cls-2{isolation:isolate;}.cls-3{fill:#fae4d9;}.cls-4{clip-path:url(#clip-path);}.cls-5{fill:#000446;}.cls-6{fill:#fbaea6;}.cls-7{fill:url(#linear-gradient);}.cls-8{fill:#fb968b;}.cls-12,.cls-9{fill:#e8e8e8;}.cls-11,.cls-15,.cls-9{mix-blend-mode:color-burn;}.cls-10{fill:#fa6857;}.cls-13,.cls-15{fill:#919191;}.cls-14{fill:url(#linear-gradient-2);}.cls-16{fill:#fff;}.cls-17{fill:url(#linear-gradient-3);}.cls-18{fill:url(#linear-gradient-4);}</style><clipPath id="clip-path"><circle class="cls-1" cx="109.08" cy="109.08" r="109.08"/></clipPath><linearGradient id="linear-gradient" x1="120.7" y1="106.8" x2="136.53" y2="171.99" gradientUnits="userSpaceOnUse"><stop offset="0" stop-color="#ff6a59"/><stop offset="1" stop-color="#fff" stop-opacity="0"/></linearGradient><linearGradient id="linear-gradient-2" x1="70.83" y1="97.28" x2="85.86" y2="77.4" xlink:href="#linear-gradient"/><linearGradient id="linear-gradient-3" x1="100.37" y1="76.87" x2="89.54" y2="90.55" gradientUnits="userSpaceOnUse"><stop offset="0" stop-color="#2ebac4"/><stop offset="0.19" stop-color="#3099b0"/><stop offset="0.39" stop-color="#317d9f"/><stop offset="0.59" stop-color="#326a94"/><stop offset="0.79" stop-color="#335e8c"/><stop offset="1" stop-color="#335a8a"/></linearGradient><linearGradient id="linear-gradient-4" x1="73.35" y1="74.4" x2="63.41" y2="86.97" xlink:href="#linear-gradient-3"/></defs><g class="cls-2"><g id="Слой_2" data-name="Слой 2"><g id="Layer_1" data-name="Layer 1"><circle class="cls-3" cx="109.08" cy="109.08" r="109.08" transform="translate(-45.18 109.08) rotate(-45)"/><g class="cls-4"><path class="cls-5" d="M126.44,134.12c-9,0-16.21,2.78-16.21,6.2s6.19,9.4,15.15,9.4,17.27-6,17.27-9.4S135.39,134.12,126.44,134.12Z"/><path class="cls-6" d="M110.27,101.69c5.79,28.13,0,50.32,0,50.32h30.38s-4.26-27,0-50.32C142,94.22,108.74,94.25,110.27,101.69Z"/><path class="cls-7" d="M110.27,101.69c5.79,28.13,0,50.32,0,50.32h30.38s-4.26-27,0-50.32C142,94.22,108.74,94.25,110.27,101.69Z"/><path class="cls-8" d="M107.57,47.55c-12.07-1.31-24.38,3.8-33,12.35C63.79,70.57,58.75,85.62,58.25,100.53c-.29,8.82.15,22.32,4.86,30,4.91,8,15.53,8.3,23.92,7.76,23.64-1.5,53.88-21.64,57.39-46.73q.06-.34.09-.69C147,70.11,127.67,49.73,107.57,47.55Z"/><polygon class="cls-9" points="98.95 67.74 94.02 68.55 92.6 78.9 105.49 83.61 110.22 76.34 106.61 68.76 98.95 67.74"/><path class="cls-10" d="M129.44,51.36c-1.71-1.32-3.92-2.6-5.91-1.76s-2.65,3.59-2.89,5.88c-.56,5.38-1.37,10.79-1.7,16.18-.24,3.92,1.66,4.68,3.63,11a13.87,13.87,0,0,1-.7,10.25s8.32-.38,11.68-.4c.46-8.31,6.91-13,15-14.78C144.13,68.6,137.52,57.53,129.44,51.36Z"/><g class="cls-11"><path class="cls-12" d="M137.81,85.11c-3.13,6.06-2.15,12.8,2.19,15a6.41,6.41,0,0,0,2,.64,45.72,45.72,0,0,0,1-9.65A54.1,54.1,0,0,0,141.89,80,16,16,0,0,0,137.81,85.11Z"/></g><path class="cls-8" d="M149.18,76.56c-4.34-2.25-10.4.85-13.53,6.91s-2.16,12.8,2.18,15,10.4-.85,13.53-6.92S153.51,78.8,149.18,76.56Z"/><g class="cls-11"><path class="cls-13" d="M147.2,82.53c-1.86-1-4.36.06-6,2.3,2.07,1.17,2.53,4.45,1,7.41a8.12,8.12,0,0,1-.71,1.14l.09.07c2.16,1.11,5.17-.43,6.73-3.44S149.36,83.65,147.2,82.53Z"/></g><path class="cls-9" d="M71.61,65.3c0,.25-2.75,2.48-3.56,3.65a39.9,39.9,0,0,0-1.85,4l.15,4.5,12.39-1.14,1.93-10.1S71.61,65.05,71.61,65.3Z"/><path class="cls-8" d="M84.47,69.83c-4.24-1.55-3.63,9.45-4.76,11.48-1.59,2.85-5.21,3.69-8.38,4.43S64.54,87.83,63.62,91s1.58,6.41,4.62,7.55,6.41.71,9.63.26a13.11,13.11,0,0,0,4.63-1.26,4.4,4.4,0,0,0,2.44-3.88c-.06-1-.61-2-.76-3-.22-1.51.44-3,1-4.44C86.12,83.44,88.54,71.31,84.47,69.83Z"/><path class="cls-14" d="M84.47,69.83c-4.24-1.55-3.63,9.45-4.76,11.48-1.59,2.85-5.21,3.69-8.38,4.43S64.54,87.83,63.62,91s1.58,6.41,4.62,7.55,6.41.71,9.63.26a13.11,13.11,0,0,0,4.63-1.26,4.4,4.4,0,0,0,2.44-3.88c-.06-1-.61-2-.76-3-.22-1.51.44-3,1-4.44C86.12,83.44,88.54,71.31,84.47,69.83Z"/><g class="cls-11"><path class="cls-13" d="M98.18,108.94a39.61,39.61,0,0,1-8.11,4,20.52,20.52,0,0,0,15-9.9A38.68,38.68,0,0,1,98.18,108.94Z"/></g><path class="cls-10" d="M104.62,67.19a9.81,9.81,0,0,0-5.26-.91,28.32,28.32,0,0,0-4.21.63A1.63,1.63,0,0,0,94,68.55l0,.66a.89.89,0,0,0,1.22.91,31.3,31.3,0,0,1,3.9-1.24,9.1,9.1,0,0,1,4.72,0,7.49,7.49,0,0,1,3.7,2.88,29.3,29.3,0,0,1,2.63,4.6,32.66,32.66,0,0,0-2-5.21A8.91,8.91,0,0,0,104.62,67.19Z"/><path class="cls-10" d="M80.13,64.26a26.86,26.86,0,0,0-3.89-.59,9.19,9.19,0,0,0-4.87.85,8.26,8.26,0,0,0-3.32,3.64A31,31,0,0,0,66.2,73a27.44,27.44,0,0,1,2.43-4.26,7,7,0,0,1,3.42-2.66,8.52,8.52,0,0,1,4.37,0A28.14,28.14,0,0,1,80,67.22a.83.83,0,0,0,1.13-.84l0-.61A1.51,1.51,0,0,0,80.13,64.26Z"/><path class="cls-10" d="M114.31,39.84c-4.32-2.18-9.12-4.22-11.59-8.39a9.83,9.83,0,0,1-11.93.7,9.83,9.83,0,0,1-3.22-11.52c-2.54.19-4,2.95-4.89,5.32a.94.94,0,0,1-.06.15c-.92,2.34-2.32,5-4.81,5.2a5,5,0,0,1-3.08-.95,8.76,8.76,0,0,1-2.31-2.19,9.1,9.1,0,0,1-1.81-4.64A24.44,24.44,0,0,0,67.27,31a24.89,24.89,0,0,0,.07,12.88A17.41,17.41,0,0,1,56.59,38a25.3,25.3,0,0,0,1.06,3.71h0A27.6,27.6,0,0,0,77.22,58.87c6.58,1.42,13.46.34,20.1,1.42a31.62,31.62,0,0,1,17.75,9.57c3.41,3.63,6,12.12,12.6,10.06a9.43,9.43,0,0,0,5-4.44c3.78-6.49,2.68-15-1.29-21.39S121,43.22,114.31,39.84Z"/><path class="cls-8" d="M100.6,74.61c-3.81-.73-7.39,1.19-8,4.29s2,6.23,5.82,7,7.4-1.18,8-4.29S104.42,75.35,100.6,74.61Z"/><path class="cls-15" d="M100.6,74.61c-3.81-.73-7.39,1.19-8,4.29s2,6.23,5.82,7,7.4-1.18,8-4.29S104.42,75.35,100.6,74.61Z"/><path class="cls-16" d="M100,74.72a7.31,7.31,0,0,0-4.93.71,4.73,4.73,0,0,0-2.45,3.21C92.1,81.48,94.51,84.34,98,85s6.83-1.07,7.38-3.91a4.94,4.94,0,0,0-1.68-4.54A7.46,7.46,0,0,0,100,74.72Z"/><path class="cls-17" d="M100,74.72a7.31,7.31,0,0,0-4.93.71c.43.47,1.22,1.7,1.63,1.78-.92-.07-1.84-.07-2.76,0,0,.11-.07.21-.09.32a5.16,5.16,0,0,0,10.13,2,5.05,5.05,0,0,0-.27-2.87A7.46,7.46,0,0,0,100,74.72Z"/><path class="cls-8" d="M73.26,72.34c-3.49-.43-6.6,1.53-7,4.37S68.5,82.2,72,82.63s6.6-1.53,7-4.37S76.75,72.77,73.26,72.34Z"/><path class="cls-15" d="M73.26,72.34c-3.49-.43-6.6,1.53-7,4.37S68.5,82.2,72,82.63s6.6-1.53,7-4.37S76.75,72.77,73.26,72.34Z"/><path class="cls-16" d="M76.21,73.91a6.68,6.68,0,0,0-3.46-1.44,6.58,6.58,0,0,0-4.41.94,4.31,4.31,0,0,0-2,3c-.32,2.6,2,5,5.26,5.43s6.1-1.39,6.42-4A4.47,4.47,0,0,0,76.21,73.91Z"/><path class="cls-18" d="M72.75,72.47a6.58,6.58,0,0,0-4.41.94c.42.4,1.21,1.46,1.58,1.51-.83,0-1.66,0-2.49.13,0,.1-.05.19-.06.29a4.66,4.66,0,0,0,9.26,1.14,4.46,4.46,0,0,0-.42-2.57A6.68,6.68,0,0,0,72.75,72.47Z"/><path class="cls-15" d="M67.07,33.24a16.52,16.52,0,0,1,.2-2.22,24.89,24.89,0,0,0,.07,12.88A17.41,17.41,0,0,1,56.59,38a25.3,25.3,0,0,0,1.06,3.71h0a24.71,24.71,0,0,0,16.08,8.61A26.57,26.57,0,0,1,68,39.46,27.78,27.78,0,0,1,67.07,33.24Z"/><path class="cls-15" d="M82.42,27.07c.06-.32.13-.65.2-1-.92,2.34-2.32,5-4.81,5.2a5,5,0,0,1-3.08-.95,8.76,8.76,0,0,1-2.31-2.19c.08.19.18.4.28.61A56.69,56.69,0,0,0,83,43.29C82.14,37.91,81.29,32.39,82.42,27.07Z"/><path class="cls-16" d="M177.93,158.92l-16.09-2.54-6.15-1L142,153.24l-6.13-1H113.28a11.51,11.51,0,0,0-3.83.2c-2.78.38-6.86,1.14-11.57,2.09-5.84,1.19-12.66,2.68-19.24,4.16-7.33,1.66-14.37,3.3-19.42,4.49L51.65,165l-23.8,49.79,23.22,5.29,44,10,9.17,2.09,4.31,1,13.64,3.11,1.27-.33,44.84-11.49L204,215.33l-17.3-55Z"/><path class="cls-12" d="M122.9,161.44l-13.45-9-11.57,2.09c6.32,4.53,18,14.13,18,14.13l-4.33,8.86-1.34,15.07-6,39.6,4.31,1,1.67-17.15,3.46-29.45,6.44-18.52S145.4,159,155.7,155.42L142,153.24Z"/><polygon class="cls-5" points="110.23 139.45 109.45 152.47 122.9 161.44 142.65 153.35 142.65 139.45 122.89 153.05 110.23 139.45"/><path class="cls-5" d="M118,169.76a2.12,2.12,0,1,0,2.11,2.11A2.11,2.11,0,0,0,118,169.76Z"/><path class="cls-5" d="M111.58,192.12a2.12,2.12,0,1,0,2.11,2.12A2.12,2.12,0,0,0,111.58,192.12Z"/><path class="cls-5" d="M108.12,213.94a2.11,2.11,0,1,0,2.11,2.11A2.11,2.11,0,0,0,108.12,213.94Z"/><polygon class="cls-12" points="57.2 233.19 57.2 184.29 38.32 233.19 57.2 233.19"/><polygon class="cls-12" points="169.98 239.23 182.77 241.12 169.98 198.97 169.98 239.23"/><path class="cls-5" d="M153.19,174l-26.75,18.84-3,43.14,44.84-11.49c.07-28,6.25-53.62,9.63-65.56l-16.09-2.54Z"/><path class="cls-5" d="M78.64,158.72c-7.33,1.66-14.37,3.3-19.42,4.49C58.85,179,57,199.75,51.07,220.1l44,10,6.6-42.46-21.92-24.3Z"/><rect class="cls-5" x="116.79" y="159.34" width="6.87" height="12.86" transform="translate(-55.82 270.37) rotate(-84.77)"/><polygon class="cls-5" points="136.49 179.78 140.94 156.71 120.22 165.77 136.49 179.78"/><polygon class="cls-5" points="99.99 175.66 120.19 166.68 103.48 152.46 99.99 175.66"/><path class="cls-16" d="M124.25,165.49a23,23,0,0,0,3-.78,21.91,21.91,0,0,0,2.84-1.15c-1,.28-1.94.62-2.91.93S125.21,165.13,124.25,165.49Z"/><path class="cls-16" d="M124,167.15a23.25,23.25,0,0,0,2.17,1.1c.74.32,1.48.64,2.26.89a23.25,23.25,0,0,0-2.17-1.1C125.53,167.72,124.79,167.4,124,167.15Z"/><path class="cls-16" d="M110.16,161.74a22.34,22.34,0,0,0,2.57,1.64,21.89,21.89,0,0,0,2.77,1.31c-.87-.53-1.77-1-2.66-1.51S111.07,162.2,110.16,161.74Z"/><path class="cls-16" d="M110.72,167.51a21.44,21.44,0,0,0,2.39-.46,23.85,23.85,0,0,0,2.33-.68,23.27,23.27,0,0,0-2.38.46C112.27,167,111.49,167.23,110.72,167.51Z"/></g></g></g></g></svg>