<svg xmlns="http://www.w3.org/2000/svg" xmlns:xlink="http://www.w3.org/1999/xlink" viewBox="0 0 218.16 230.75"><defs><style>.cls-1{fill:none;}.cls-2{isolation:isolate;}.cls-3{fill:#fae4d9;}.cls-4{clip-path:url(#clip-path);}.cls-5{fill:#000446;}.cls-6{fill:#fbaea6;}.cls-7{fill:url(#linear-gradient);}.cls-8{fill:#fb968b;}.cls-9{fill:#fff;}.cls-10{fill:url(#linear-gradient-2);}.cls-11{fill:#fa6857;}.cls-12,.cls-15{fill:#919191;}.cls-12,.cls-13{mix-blend-mode:color-burn;}.cls-14{fill:#e8e8e8;}.cls-16{fill:url(#linear-gradient-3);}.cls-17{fill:url(#linear-gradient-4);}</style><clipPath id="clip-path"><circle class="cls-1" cx="109.08" cy="109.08" r="109.08" transform="translate(-45.18 109.08) rotate(-45)"/></clipPath><linearGradient id="linear-gradient" x1="110.77" y1="101.25" x2="126.6" y2="166.44" gradientUnits="userSpaceOnUse"><stop offset="0" stop-color="#ff6a59"/><stop offset="1" stop-color="#fff" stop-opacity="0"/></linearGradient><linearGradient id="linear-gradient-2" x1="72.89" y1="73.6" x2="72.35" y2="101.48" gradientUnits="userSpaceOnUse"><stop offset="0" stop-color="#2ebac4"/><stop offset="0.19" stop-color="#3099b0"/><stop offset="0.39" stop-color="#317d9f"/><stop offset="0.59" stop-color="#326a94"/><stop offset="0.79" stop-color="#335e8c"/><stop offset="1" stop-color="#335a8a"/></linearGradient><linearGradient id="linear-gradient-3" x1="66.73" y1="93.27" x2="81.75" y2="73.39" xlink:href="#linear-gradient"/><linearGradient id="linear-gradient-4" x1="92.63" y1="74.01" x2="92.09" y2="101.89" xlink:href="#linear-gradient-2"/></defs><g class="cls-2"><g id="Слой_2" data-name="Слой 2"><g id="Layer_1" data-name="Layer 1"><circle class="cls-3" cx="109.08" cy="109.08" r="109.08" transform="translate(-45.18 109.08) rotate(-45)"/><g class="cls-4"><path class="cls-5" d="M116.51,128.57c-9,0-16.21,2.77-16.21,6.2s6.2,9.39,15.15,9.39,17.27-6,17.27-9.39S125.46,128.57,116.51,128.57Z"/><path class="cls-6" d="M100.34,96.13c5.79,28.14,0,50.33,0,50.33h30.38s-4.26-27,0-50.33C132.08,88.66,98.81,88.69,100.34,96.13Z"/><path class="cls-7" d="M100.34,96.13c5.79,28.14,0,50.33,0,50.33h30.38s-4.26-27,0-50.33C132.08,88.66,98.81,88.69,100.34,96.13Z"/><path class="cls-8" d="M108.59,37.87c-12.14,0-23.84,6.32-31.53,15.71-9.6,11.74-13.06,27.23-12,42.11.63,8.81,2.47,22.19,8,29.38,5.71,7.48,24.71-1.15,30.36-3.91,16.73-8.2,26.71-15.14,30-33.9C136.94,66.62,128.82,37.94,108.59,37.87Z"/><path class="cls-9" d="M75.88,72.05s0,0,0,0a11.5,11.5,0,0,0-5.28-.52c-1.84.29-3.39,1.16-3.93,2.88a12.56,12.56,0,0,0-.8,4A4.25,4.25,0,0,0,67.63,82a5,5,0,0,0,3.1.54c.26,0,.51,0,.76-.06,1.5-.17,3-.38,4.48-.62,1.91-.31,5.53-1.07,5.43-1.1C81,77.27,79.19,73.19,75.88,72.05Z"/><path class="cls-10" d="M75.88,72.05s0,0,0,0a11.5,11.5,0,0,0-5.28-.52,5.16,5.16,0,0,0-.63.4l1.4,3.93L69.1,72.68A6.43,6.43,0,0,0,67.5,77a6.09,6.09,0,0,0,3.23,5.54c.26,0,.51,0,.76-.06,1.5-.17,3-.38,4.48-.62a6.5,6.5,0,0,0-.09-9.79Z"/><path class="cls-11" d="M119.51,45.8c-1.71-1.31-3.92-2.59-5.9-1.76s-2.66,3.6-2.9,5.89c-.56,5.37-1.36,10.78-1.69,16.18-.24,3.92,1.65,4.67,3.63,11a13.92,13.92,0,0,1-.71,10.26s8.32-.38,11.68-.4c.46-8.32,6.91-13,15-14.78C134.2,63.05,127.59,52,119.51,45.8Z"/><path class="cls-12" d="M119.51,45.8c-1.71-1.31-3.92-2.59-5.9-1.76s-2.66,3.6-2.9,5.89c-.56,5.37-1.36,10.78-1.69,16.18-.24,3.92,1.65,4.67,3.63,11a13.92,13.92,0,0,1-.71,10.26s8.32-.38,11.68-.4c.46-8.32,6.91-13,15-14.78C134.2,63.05,127.59,52,119.51,45.8Z"/><g class="cls-13"><path class="cls-14" d="M127.88,79.55c-3.13,6.07-2.15,12.8,2.19,15a6.43,6.43,0,0,0,2,.65,45.79,45.79,0,0,0,1-9.65A54,54,0,0,0,132,74.45,16.09,16.09,0,0,0,127.88,79.55Z"/></g><path class="cls-8" d="M139.25,71c-4.34-2.24-10.4.86-13.53,6.92s-2.16,12.8,2.18,15,10.4-.86,13.53-6.92S143.59,73.24,139.25,71Z"/><g class="cls-13"><path class="cls-15" d="M137.27,77c-1.86-1-4.36.06-6,2.3,2.07,1.16,2.53,4.44,1,7.41a10,10,0,0,1-.72,1.14s.06,0,.09.06c2.16,1.12,5.17-.42,6.73-3.44S139.43,78.09,137.27,77Z"/></g><path class="cls-8" d="M80.37,65.82c-4.24-1.54-3.63,9.46-4.76,11.49C74,80.16,70.4,81,67.22,81.73s-6.79,2.1-7.7,5.23,1.57,6.4,4.61,7.55,6.42.71,9.63.25a12.89,12.89,0,0,0,4.64-1.25,4.45,4.45,0,0,0,2.44-3.89c-.06-1-.61-2-.76-3-.23-1.52.44-3,1-4.44C82,79.43,84.44,67.3,80.37,65.82Z"/><path class="cls-16" d="M80.37,65.82c-4.24-1.54-3.63,9.46-4.76,11.49C74,80.16,70.4,81,67.22,81.73s-6.79,2.1-7.7,5.23,1.57,6.4,4.61,7.55,6.42.71,9.63.25a12.89,12.89,0,0,0,4.64-1.25,4.45,4.45,0,0,0,2.44-3.89c-.06-1-.61-2-.76-3-.23-1.52.44-3,1-4.44C82,79.43,84.44,67.3,80.37,65.82Z"/><g class="cls-13"><path class="cls-15" d="M88.25,103.39a39.33,39.33,0,0,1-8.11,4,20.54,20.54,0,0,0,15-9.89A39.52,39.52,0,0,1,88.25,103.39Z"/></g><path class="cls-9" d="M168,153.37l-16.09-2.54-6.15-1L132,147.69l-6.13-1H103.36a11.51,11.51,0,0,0-3.83.2c-2.79.38-6.86,1.14-11.57,2.09-5.84,1.19-12.66,2.68-19.24,4.16-7.33,1.66-14.37,3.3-19.42,4.49l-7.57,1.81-23.8,49.79,23.22,5.29,44,10,9.17,2.09,4.31,1,13.64,3.11,1.27-.33,44.83-11.49L194,209.78l-17.3-55Z"/><path class="cls-14" d="M113,155.89l-13.44-9L88,149c6.33,4.52,18,14.13,18,14.13L101.64,172l-1.34,15.08-6,39.59,4.31,1,1.67-17.14L103.76,181l6.44-18.51s25.28-9.06,35.57-12.67L132,147.69Z"/><polygon class="cls-5" points="100.3 133.89 99.53 146.91 112.97 155.89 132.72 147.8 132.72 133.89 112.96 145.49 100.3 133.89"/><path class="cls-5" d="M108.09,164.2a2.12,2.12,0,1,0,2.11,2.12A2.12,2.12,0,0,0,108.09,164.2Z"/><path class="cls-5" d="M101.65,186.57a2.12,2.12,0,1,0,2.11,2.11A2.12,2.12,0,0,0,101.65,186.57Z"/><path class="cls-5" d="M98.19,208.38a2.12,2.12,0,1,0,2.11,2.12A2.11,2.11,0,0,0,98.19,208.38Z"/><polygon class="cls-14" points="47.28 227.64 47.28 178.74 28.39 227.64 47.28 227.64"/><polygon class="cls-14" points="155.05 225.67 167.84 227.57 155.05 185.42 155.05 225.67"/><path class="cls-11" d="M97.11,61.4a27.17,27.17,0,0,0-8.87-.47c-.38,1.8-.75,3.61-1.13,5.41a2,2,0,0,0,0,1.34c.36.68,1.31.69,2.08.63a34.12,34.12,0,0,1,13.08,1.61c1-1.57.9-4.58-.35-6A9.94,9.94,0,0,0,97.11,61.4Z"/><path class="cls-11" d="M78.06,61.21a14.94,14.94,0,0,0-6.31.44,6.77,6.77,0,0,0-3.44,2.41,6.79,6.79,0,0,0-.25,5.57,18.85,18.85,0,0,1,9.29-1.51c.55,0,1.22,0,1.48-.59a2.44,2.44,0,0,0,0-1.26C78.59,64.59,78.32,62.9,78.06,61.21Z"/><path class="cls-12" d="M97.11,61.4a27.17,27.17,0,0,0-8.87-.47c-.38,1.8-.75,3.61-1.13,5.41a2,2,0,0,0,0,1.34c.36.68,1.31.69,2.08.63a34.12,34.12,0,0,1,13.08,1.61c1-1.57.9-4.58-.35-6A9.94,9.94,0,0,0,97.11,61.4Z"/><path class="cls-12" d="M78.06,61.21a14.94,14.94,0,0,0-6.31.44,6.77,6.77,0,0,0-3.44,2.41,6.79,6.79,0,0,0-.25,5.57,18.85,18.85,0,0,1,9.29-1.51c.55,0,1.22,0,1.48-.59a2.44,2.44,0,0,0,0-1.26C78.59,64.59,78.32,62.9,78.06,61.21Z"/><path class="cls-9" d="M95.62,72.46s0,0,0,0a11.5,11.5,0,0,0-5.28-.52c-1.84.29-3.39,1.16-3.93,2.88a12.51,12.51,0,0,0-.8,4,4.25,4.25,0,0,0,1.78,3.54,5,5,0,0,0,3.1.54c.26,0,.51,0,.76-.06,1.5-.17,3-.38,4.48-.62,1.91-.31,5.53-1.07,5.43-1.1C100.72,77.68,98.93,73.6,95.62,72.46Z"/><path class="cls-17" d="M95.62,72.46s0,0,0,0a11.5,11.5,0,0,0-5.28-.52,4.18,4.18,0,0,0-.63.4l1.4,3.93-2.25-3.17a6.43,6.43,0,0,0-1.6,4.3,6.09,6.09,0,0,0,3.23,5.54c.26,0,.51,0,.76-.06,1.5-.17,3-.38,4.48-.62a6.5,6.5,0,0,0-.09-9.79Z"/><path class="cls-9" d="M144.77,18l-26-12.37c-3.47-1.65-7.61-.46-9.19,2.65L94.36,38.23a5.22,5.22,0,0,0-.49,1.44l-.07.08c-.55,1-.26,2.46.74,4.08a6.41,6.41,0,0,0,.86,1.24c2.51,3.24,7.37,7,13.62,10.19,6.41,3.21,13,4.76,17.49,4.72a7.42,7.42,0,0,0,2.54-.23,4,4,0,0,0,2.9-1.66h0A5.81,5.81,0,0,0,133,56.62l15.19-29.93C149.8,23.58,148.25,19.69,144.77,18Z"/><path class="cls-14" d="M132.89,35.27a53.42,53.42,0,0,0-2.43,5.67A32.65,32.65,0,0,0,128.84,47a33.59,33.59,0,0,0,3.85-5,56.14,56.14,0,0,0,3-5.39,56.87,56.87,0,0,0,2.43-5.67,33.45,33.45,0,0,0,1.62-6.05,33.6,33.6,0,0,0-3.84,5A54.9,54.9,0,0,0,132.89,35.27Z"/><path class="cls-14" d="M120.4,31.32A57.89,57.89,0,0,0,118,37a32.63,32.63,0,0,0-1.61,6,33.52,33.52,0,0,0,3.84-5,56.24,56.24,0,0,0,3-5.39A54.56,54.56,0,0,0,125.66,27a32.65,32.65,0,0,0,1.62-6,34.28,34.28,0,0,0-3.84,5A57,57,0,0,0,120.4,31.32Z"/><path class="cls-14" d="M109.08,24a54.62,54.62,0,0,0-2.43,5.67,32.34,32.34,0,0,0-1.62,6,32.45,32.45,0,0,0,3.85-5,53,53,0,0,0,3-5.39,54.62,54.62,0,0,0,2.43-5.67,33.57,33.57,0,0,0,1.62-6,33.68,33.68,0,0,0-3.84,5A55.05,55.05,0,0,0,109.08,24Z"/><path class="cls-14" d="M113,47.13c-7.91-4-13.94-8.86-16.64-12.84l-2,3.94a5.22,5.22,0,0,0-.49,1.44l-.07.08c-.55,1-.26,2.46.74,4.08a6.41,6.41,0,0,0,.86,1.24c2.51,3.24,7.37,7,13.62,10.19,6.41,3.21,13,4.76,17.49,4.72a7.42,7.42,0,0,0,2.54-.23,4,4,0,0,0,2.9-1.66h0A5.81,5.81,0,0,0,133,56.62l2-4C129.81,53.08,121.28,51.29,113,47.13Z"/></g></g></g></g></svg>