<svg xmlns="http://www.w3.org/2000/svg" xmlns:xlink="http://www.w3.org/1999/xlink" viewBox="0 0 218.16 248.65"><defs><style>.cls-1{fill:none;}.cls-2{isolation:isolate;}.cls-3{fill:#fae4d9;}.cls-4{clip-path:url(#clip-path);}.cls-5{fill:#fff;}.cls-6{fill:#e8e8e8;}.cls-7{fill:#000446;}.cls-8{fill:#c7776e;}.cls-9{fill:url(#linear-gradient);}.cls-10{mix-blend-mode:color-burn;}.cls-11{fill:#919191;}.cls-12{fill:url(#linear-gradient-2);}.cls-13{fill:url(#linear-gradient-3);}.cls-14{fill:url(#linear-gradient-4);}</style><clipPath id="clip-path"><circle class="cls-1" cx="109.08" cy="109.08" r="109.08" transform="translate(-45.18 109.08) rotate(-45)"/></clipPath><linearGradient id="linear-gradient" x1="115.15" y1="121.71" x2="114.93" y2="153.17" gradientUnits="userSpaceOnUse"><stop offset="0" stop-color="#964138"/><stop offset="1" stop-color="#c7776e"/></linearGradient><linearGradient id="linear-gradient-2" x1="108.74" y1="81.64" x2="96.57" y2="97.03" gradientUnits="userSpaceOnUse"><stop offset="0" stop-color="#2ebac4"/><stop offset="0.19" stop-color="#3099b0"/><stop offset="0.39" stop-color="#317d9f"/><stop offset="0.59" stop-color="#326a94"/><stop offset="0.79" stop-color="#335e8c"/><stop offset="1" stop-color="#335a8a"/></linearGradient><linearGradient id="linear-gradient-3" x1="80.73" y1="80.2" x2="68.26" y2="95.97" xlink:href="#linear-gradient-2"/><linearGradient id="linear-gradient-4" x1="86.75" y1="100.26" x2="91.59" y2="79.1" gradientUnits="userSpaceOnUse"><stop offset="0" stop-color="#964138"/><stop offset="0.03" stop-color="#9a453c"/><stop offset="0.22" stop-color="#ae5b52"/><stop offset="0.43" stop-color="#bc6b62"/><stop offset="0.67" stop-color="#c4746b"/><stop offset="1" stop-color="#c7776e"/></linearGradient></defs><g class="cls-2"><g id="Слой_2" data-name="Слой 2"><g id="Layer_1" data-name="Layer 1"><circle class="cls-3" cx="109.08" cy="109.08" r="109.08" transform="translate(-45.18 109.08) rotate(-45)"/><g class="cls-4"><path class="cls-5" d="M119,7.51c-9-2.29-16.59-2.91-17-1.39s6.58,4.6,15.57,6.88,16.59,2.91,17,1.4S128,9.8,119,7.51Z"/><path class="cls-5" d="M102.1,6.13l-18,36.65s16.75,8.46,23,10,26.79,2.61,26.79,2.61l.77-41s-13-1.21-17.22-2.28C113.44,11.12,102.1,6.13,102.1,6.13Z"/><path class="cls-6" d="M99.51,26.15q-1.31,3.08-2.33,6.3a42.47,42.47,0,0,0-1.6,6.63,42.61,42.61,0,0,0,3.62-5.72q1.58-3,2.88-6.05c.86-2.06,1.64-4.16,2.32-6.3a42.47,42.47,0,0,0,1.6-6.63,42.9,42.9,0,0,0-3.61,5.72Q100.82,23.06,99.51,26.15Z"/><path class="cls-6" d="M125.42,26.35q-.65,3.31-1,6.65c-.22,2.22-.35,4.45-.36,6.69a42.68,42.68,0,0,0,.44,6.75,42.57,42.57,0,0,0,1.77-6.59c.43-2.21.74-4.42,1-6.65s.34-4.45.36-6.69a44,44,0,0,0-.44-6.75A42.83,42.83,0,0,0,125.42,26.35Z"/><path class="cls-6" d="M111.47,31.53c-.53,2.18-1,4.37-1.3,6.6a42.2,42.2,0,0,0-.53,6.78,41.17,41.17,0,0,0,2.67-6.26c.74-2.13,1.36-4.28,1.89-6.45s1-4.38,1.3-6.6a42.29,42.29,0,0,0,.53-6.78,43.28,43.28,0,0,0-2.67,6.26Q112.26,28.28,111.47,31.53Z"/><path class="cls-7" d="M115.43,137.23c-9.77,0-17.68,3-17.68,6.76s6.75,10.24,16.52,10.24S133.1,147.72,133.1,144,125.19,137.23,115.43,137.23Z"/><path class="cls-8" d="M102.43,95.69c4.84,33,0,59,0,59h25.44s-3.57-31.62,0-59C129,86.93,101.14,87,102.43,95.69Z"/><path class="cls-9" d="M102.43,95.69c4.84,33,0,59,0,59h25.44s-3.57-31.62,0-59C129,86.93,101.14,87,102.43,95.69Z"/><path class="cls-8" d="M106.27,42h-4.81A31,31,0,0,0,70.52,72.89v47.3A12.75,12.75,0,0,0,83.23,132.9H93.6a40.76,40.76,0,0,0,40.65-40.64V69.92A28.06,28.06,0,0,0,106.27,42Z"/><g class="cls-10"><path class="cls-6" d="M127.25,88.26A10.86,10.86,0,0,0,133,100.88,59.4,59.4,0,0,0,134,89.69a73.16,73.16,0,0,0-.5-8.59A10.83,10.83,0,0,0,127.25,88.26Z"/></g><path class="cls-8" d="M138.84,77.78a10.87,10.87,0,1,0,7.63,13.34A10.87,10.87,0,0,0,138.84,77.78Z"/><g class="cls-10"><path class="cls-11" d="M138.58,83.37a5.41,5.41,0,0,0-6.2,2.69,5.4,5.4,0,0,1,3.67,6.59,5.87,5.87,0,0,1-.44,1.1l.13,0a5.4,5.4,0,0,0,2.84-10.43Z"/></g><path class="cls-7" d="M115.79,69.94c-5-1.93-10.17-3.5-15.44-2.71-.46,2-.91,3.93-1.37,5.9a39,39,0,0,1,21.9,4.73,4.78,4.78,0,0,0-.55-5.27A11.83,11.83,0,0,0,115.79,69.94Z"/><path class="cls-7" d="M72.62,69.94a7.44,7.44,0,0,0-2.68,2.65,7.55,7.55,0,0,0-.32,5.27c3.92-3.68,8.47-5.34,12.93-4.73-.26-2-.53-3.93-.8-5.9C78.64,66.44,75.56,68,72.62,69.94Z"/><path class="cls-5" d="M112.13,81a19.18,19.18,0,0,0-4.21-1.75,9.15,9.15,0,0,0-1.32-.28,10.37,10.37,0,0,0-6.67,1.25,7.86,7.86,0,0,0,0,5.65,6.78,6.78,0,0,0,5.3,3.42,20,20,0,0,0,6.52-.54,15.06,15.06,0,0,0,3.77-1.47c.7-.49.22-3-.33-3.78A9.85,9.85,0,0,0,112.13,81Z"/><path class="cls-12" d="M107.92,79.2a9.15,9.15,0,0,0-1.32-.28h-.12a8.77,8.77,0,0,0-4.15,1.74c-.06.1-.11.22-.18.34l0,0c.48.26,1.83,1.76,2.33,1.69-1,.13-2,.32-3,.54,0,.12,0,.24,0,.36a5.66,5.66,0,0,0,11.31,0,5.46,5.46,0,0,0-.68-2.67A19.18,19.18,0,0,0,107.92,79.2Z"/><path class="cls-5" d="M83.5,78.93a19.68,19.68,0,0,0-4.42-1.13,10.32,10.32,0,0,0-1.35-.09,10.43,10.43,0,0,0-6.41,2.19,7.89,7.89,0,0,0,.84,5.6,6.79,6.79,0,0,0,5.74,2.62,20.35,20.35,0,0,0,6.38-1.47,15.42,15.42,0,0,0,3.51-2c.63-.59-.21-3-.87-3.7A9.73,9.73,0,0,0,83.5,78.93Z"/><path class="cls-13" d="M83.5,78.93a19.68,19.68,0,0,0-4.42-1.13,10.32,10.32,0,0,0-1.35-.09l-.11,0a8.77,8.77,0,0,0-3.86,2.32c-.05.11-.08.24-.13.36h.05c.51.19,2.07,1.48,2.56,1.34-1,.28-1.95.61-2.91,1,0,.12,0,.25,0,.37a5.66,5.66,0,0,0,11.2-1.62A5.44,5.44,0,0,0,83.5,78.93Z"/><path class="cls-14" d="M96.44,88.37A8.69,8.69,0,0,0,95,80c-.88-1.07-1-2.72-1.85-3.83a3.21,3.21,0,0,0-3.62-1.29c-2,.85-1.94,3.84-3.46,5.39-.15,3-.44,6.33-2.6,8.44a42,42,0,0,1-3.43,2.47,4,4,0,0,0-1.78,3.61c.38,1.94,2.7,2.7,4.63,3.09l9.25,1.86a7.82,7.82,0,0,0,2.76.23A2.69,2.69,0,0,0,97.1,98.4c.73-1.91-1.59-3.63-1.9-5.66C95,91.23,95.91,89.81,96.44,88.37Z"/><g class="cls-10"><path class="cls-11" d="M103,110.83a36.36,36.36,0,0,1-7.57,3.76,19.15,19.15,0,0,0,14-9.23A37.41,37.41,0,0,1,103,110.83Z"/></g><path class="cls-7" d="M73.53,54.91A5.45,5.45,0,1,0,79,60.36,5.45,5.45,0,0,0,73.53,54.91Z"/><path class="cls-7" d="M75,44.89a6.36,6.36,0,1,0,6.36,6.36A6.36,6.36,0,0,0,75,44.89Z"/><path class="cls-7" d="M82.55,51.25a6.36,6.36,0,1,0,6.36,6.35A6.35,6.35,0,0,0,82.55,51.25Z"/><path class="cls-7" d="M95.38,53.73a4.68,4.68,0,1,0,4.68,4.68A4.67,4.67,0,0,0,95.38,53.73Z"/><path class="cls-7" d="M100.75,54.91a3,3,0,1,0,3,3.05A3.06,3.06,0,0,0,100.75,54.91Z"/><path class="cls-7" d="M107.67,52.34a5.26,5.26,0,1,0,5.26,5.26A5.26,5.26,0,0,0,107.67,52.34Z"/><path class="cls-7" d="M91.89,49.65a5.26,5.26,0,1,0,5.26,5.26A5.25,5.25,0,0,0,91.89,49.65Z"/><path class="cls-7" d="M84.62,46a5.27,5.27,0,1,0,5.26,5.27A5.27,5.27,0,0,0,84.62,46Z"/><path class="cls-7" d="M84,36.75a6.7,6.7,0,1,0,6.7,6.7A6.7,6.7,0,0,0,84,36.75Z"/><path class="cls-7" d="M92.79,38.19a6.7,6.7,0,1,0,6.71,6.7A6.7,6.7,0,0,0,92.79,38.19Z"/><path class="cls-7" d="M103.8,36.75a6.7,6.7,0,1,0,6.7,6.7A6.71,6.71,0,0,0,103.8,36.75Z"/><path class="cls-7" d="M107.67,42a6.7,6.7,0,1,0,6.7,6.7A6.7,6.7,0,0,0,107.67,42Z"/><path class="cls-7" d="M112.93,46.7a6.71,6.71,0,1,0,6.7,6.7A6.7,6.7,0,0,0,112.93,46.7Z"/><path class="cls-7" d="M114.37,39.28a6.71,6.71,0,1,0,6.7,6.7A6.7,6.7,0,0,0,114.37,39.28Z"/><path class="cls-7" d="M126.66,45.64a6.7,6.7,0,1,0,6.7,6.7A6.7,6.7,0,0,0,126.66,45.64Z"/><path class="cls-7" d="M101.5,47.08a5.26,5.26,0,1,0,5.26,5.26A5.26,5.26,0,0,0,101.5,47.08Z"/><path class="cls-7" d="M88.71,57.35a4.09,4.09,0,1,0,4.08,4.09A4.09,4.09,0,0,0,88.71,57.35Z"/><path class="cls-7" d="M124,57.25a4.68,4.68,0,1,0,2.18,6.25A4.67,4.67,0,0,0,124,57.25Z"/><path class="cls-7" d="M128.33,60.65a3,3,0,1,0,1.42,4.07A3.05,3.05,0,0,0,128.33,60.65Z"/><path class="cls-7" d="M135.68,61.35a5.26,5.26,0,1,0,2.44,7A5.27,5.27,0,0,0,135.68,61.35Z"/><path class="cls-7" d="M122.65,52.06a5.26,5.26,0,1,0,2.44,7A5.25,5.25,0,0,0,122.65,52.06Z"/><path class="cls-7" d="M132.42,53.93a5.26,5.26,0,1,0,2.45,7A5.27,5.27,0,0,0,132.42,53.93Z"/><path class="cls-7" d="M116.43,57.6a4.09,4.09,0,1,0,1.9,5.47A4.09,4.09,0,0,0,116.43,57.6Z"/><path class="cls-7" d="M122.47,43.4a4.09,4.09,0,1,0,1.9,5.46A4.08,4.08,0,0,0,122.47,43.4Z"/><path class="cls-7" d="M121,47.49a4.09,4.09,0,1,0,1.9,5.46A4.1,4.1,0,0,0,121,47.49Z"/><path class="cls-7" d="M98.67,47.56a4.09,4.09,0,1,0,1.9,5.47A4.1,4.1,0,0,0,98.67,47.56Z"/><path class="cls-5" d="M177.16,165.15l-5.57-.88L154,161.5l-6.71-1.06-15-2.37L125.66,157H101.08a12.92,12.92,0,0,0-4.17.22c-3,.42-7.49,1.25-12.62,2.28l-7,1.46c-4.52,1-9.31,2-14,3.08l-.15,0c-7.94,1.8-8,1.74-13.44,3-5,1.2-41.8,58.11-41.8,58.11L33.24,231l48,10.92,10,2.28,4.7,1.07,14.88,3.39,1.38-.36,48.89-12.53,38.89-10-17.67-56.22A6.42,6.42,0,0,0,177.16,165.15Z"/><polygon class="cls-7" points="97.75 143.03 96.9 157.23 111.56 167.02 133.1 158.2 133.1 143.03 111.55 153.5 97.75 143.03"/><path class="cls-7" d="M146.86,195.37,55.5,192.26,43.84,235.73l117.23,0c.09-30.56,6.83-58.48,10.51-71.5L154,161.5Z"/><path class="cls-7" d="M63.16,164.08,55.5,192.26l12.77,6.37,9-37.66c-4.52,1-9.31,2-14,3.08Z"/></g></g></g></g></svg>