<svg xmlns="http://www.w3.org/2000/svg" xmlns:xlink="http://www.w3.org/1999/xlink" viewBox="0 0 218.16 227.59"><defs><style>.cls-1{fill:none;}.cls-2{isolation:isolate;}.cls-3{fill:#fae4d9;}.cls-4{clip-path:url(#clip-path);}.cls-5{fill:#fbaea6;}.cls-6{fill:url(#linear-gradient);}.cls-7{mix-blend-mode:color-burn;}.cls-8{fill:#e8e8e8;}.cls-9{fill:#919191;}.cls-10{fill:#fff;}.cls-11{fill:url(#linear-gradient-2);}.cls-12{fill:#0a1775;}.cls-13{fill:url(#linear-gradient-3);}.cls-14{fill:url(#linear-gradient-4);}.cls-15{fill:#fa6857;}</style><clipPath id="clip-path"><circle class="cls-1" cx="109.08" cy="109.08" r="109.08" transform="translate(-45.18 109.08) rotate(-45)"/></clipPath><linearGradient id="linear-gradient" x1="107.09" y1="117.48" x2="108.99" y2="197.65" gradientUnits="userSpaceOnUse"><stop offset="0" stop-color="#ff6a59"/><stop offset="1" stop-color="#fff" stop-opacity="0"/></linearGradient><linearGradient id="linear-gradient-2" x1="109.6" y1="106.34" x2="107.78" y2="84.91" gradientUnits="userSpaceOnUse"><stop offset="0" stop-color="#ff6a59"/><stop offset="0.1" stop-color="#ff8577" stop-opacity="0.82"/><stop offset="0.23" stop-color="#ffa59b" stop-opacity="0.6"/><stop offset="0.37" stop-color="#ffc1b9" stop-opacity="0.42"/><stop offset="0.5" stop-color="#ffd7d2" stop-opacity="0.27"/><stop offset="0.63" stop-color="#ffe9e6" stop-opacity="0.15"/><stop offset="0.76" stop-color="#fff5f4" stop-opacity="0.07"/><stop offset="0.88" stop-color="#fffcfc" stop-opacity="0.02"/><stop offset="1" stop-color="#fff" stop-opacity="0"/></linearGradient><linearGradient id="linear-gradient-3" x1="123" y1="86.31" x2="122.56" y2="108.77" gradientUnits="userSpaceOnUse"><stop offset="0" stop-color="#2ebac4"/><stop offset="0.19" stop-color="#3099b0"/><stop offset="0.39" stop-color="#317d9f"/><stop offset="0.59" stop-color="#326a94"/><stop offset="0.79" stop-color="#335e8c"/><stop offset="1" stop-color="#335a8a"/></linearGradient><linearGradient id="linear-gradient-4" x1="95.85" y1="86.27" x2="95.42" y2="108.41" xlink:href="#linear-gradient-3"/></defs><g class="cls-2"><g id="Слой_2" data-name="Слой 2"><g id="Layer_1" data-name="Layer 1"><circle class="cls-3" cx="109.08" cy="109.08" r="109.08" transform="translate(-45.18 109.08) rotate(-45)"/><g class="cls-4"><path class="cls-5" d="M87.66,116.28c7.68,37.32,0,66.75,0,66.75H128s-5.65-35.79,0-66.75C129.78,106.36,85.63,106.41,87.66,116.28Z"/><path class="cls-6" d="M87.66,116.28c7.68,37.32,0,66.75,0,66.75H128s-5.65-35.79,0-66.75C129.78,106.36,85.63,106.41,87.66,116.28Z"/><path class="cls-5" d="M107.8,40.47C89.19,40.47,73.89,59.6,72.28,84c-.09,1.41-.14,2.83-.14,4.26a62.63,62.63,0,0,0,2.27,16.81c5.07,18.11,18.12,31,33.39,31s28.31-12.86,33.4-30.94a62.6,62.6,0,0,0,2.28-16.86c0-1.44,0-2.86-.14-4.27C141.72,59.6,126.43,40.47,107.8,40.47Z"/><g class="cls-7"><path class="cls-8" d="M134.47,89.8a10.75,10.75,0,0,0,4.62,14.5,11.69,11.69,0,0,0,2.11.83,62.6,62.6,0,0,0,2.28-16.86c0-1.44,0-2.86-.14-4.27A10.75,10.75,0,0,0,134.47,89.8Z"/></g><path class="cls-5" d="M147.86,82.05a10.77,10.77,0,1,0,4.62,14.51A10.77,10.77,0,0,0,147.86,82.05Z"/><g class="cls-7"><path class="cls-9" d="M146.45,87.42a5.35,5.35,0,0,0-6.56,1.32,5.34,5.34,0,0,1,2.19,7.13,5.6,5.6,0,0,1-.66,1l.12.07a5.35,5.35,0,1,0,4.91-9.5Z"/></g><g class="cls-7"><path class="cls-8" d="M72.28,84c-.09,1.41-.14,2.83-.14,4.26a62.63,62.63,0,0,0,2.27,16.81,10,10,0,0,0,2-.78A10.76,10.76,0,0,0,72.28,84Z"/></g><path class="cls-10" d="M118.51,17.42l-44.38,13,1.68,6,1.11,3.89,6.61,23.38s3.72.46,16.72-3.45q2.67-.81,5.88-1.88c5.51-1.84,21.78-7.67,21.78-7.67L121.3,27.29Z"/><path class="cls-10" d="M94.38,18.18C80.13,22.7,67.87,21.29,64,27.73,62.66,30,62.19,32.08,62.78,34c1.2,3.88,6.56,6,14.14,6.31a52.48,52.48,0,0,0,5.82-.12,82.78,82.78,0,0,0,18.86-3.79,80.76,80.76,0,0,0,19.7-9.09c7.85-5.17,12.22-10.88,10.85-15.32C129.87,4.58,113.54,12.11,94.38,18.18Z"/><path class="cls-8" d="M95.71,60.09c-1.86.2-3.75.79-5.53.33a6.78,6.78,0,0,1-4-3.56c-.87-1.61-1.38-3.4-2.2-5-1.06-2.08-2.62-4-2.9-6.3a7.53,7.53,0,0,1,1.69-5.36,13.77,13.77,0,0,1,3.68-3.33c3.07-1.94,6.64-3.06,9.66-5.09A142.34,142.34,0,0,1,78.59,36c-.92.16-1.84.31-2.78.41a13.56,13.56,0,0,1-6-.43,8.91,8.91,0,0,1-5.73-6.65c0-.31,0-1.05-.09-1.59C62.66,30,62.19,32.08,62.78,34c1.2,3.88,6.56,6,14.14,6.31l6.61,23.38s3.72.46,16.72-3.45A18.65,18.65,0,0,0,95.71,60.09Z"/><path class="cls-5" d="M67.61,82.05a10.77,10.77,0,1,0,14.5,4.62A10.78,10.78,0,0,0,67.61,82.05Z"/><g class="cls-7"><path class="cls-9" d="M69,87.42a5.35,5.35,0,1,0,4.91,9.5l.12-.07a5.1,5.1,0,0,1-.66-1,5.34,5.34,0,0,1,2.18-7.13A5.33,5.33,0,0,0,69,87.42Z"/></g><path class="cls-11" d="M112.42,98.57a5.81,5.81,0,0,1-1.14-1.71,13.08,13.08,0,0,1-.61-5.32,24.46,24.46,0,0,1,.64-6.49h-4c.34,0,.6,7.8.6,8.19,0,2.47-.59,4.23-1.78,5.18s-2.81,3.84-1.5,6.4a3.71,3.71,0,0,0,1.41,1.51,5.9,5.9,0,0,0,5.18.68,5,5,0,0,0,2.5-1.75,3.7,3.7,0,0,0,.7-1.45,5.38,5.38,0,0,0-.43-3.28A7.3,7.3,0,0,0,112.42,98.57Z"/><path class="cls-12" d="M118.19,71.57,118,78.44a25.65,25.65,0,0,1,17.37,4.46A21.35,21.35,0,0,0,118.19,71.57Z"/><path class="cls-12" d="M83.79,81.79a25.63,25.63,0,0,1,17.61-3.35c.08-2.29.15-4.58.23-6.87A21.32,21.32,0,0,0,83.79,81.79Z"/><path class="cls-10" d="M129.75,86.11a7.26,7.26,0,0,0-2.62-1,20.68,20.68,0,0,0-2.84-.42,13,13,0,0,0-3.29.16l-.29.06c-1.68.36-3.9,1.27-4.92,2.68s.15,3.66,1.48,4.66a6.57,6.57,0,0,0,3,1.18,9.75,9.75,0,0,0,2.09,0,17.71,17.71,0,0,0,4.59-1.22l.53-.2a9,9,0,0,0,2.43-1.25,3.1,3.1,0,0,0,1.24-2.34A3.06,3.06,0,0,0,129.75,86.11Z"/><path class="cls-13" d="M124.29,84.68l-.06,0s0,0,0,0a8.33,8.33,0,0,0-3.5.26c-.24.08-.46.16-.69.26a6,6,0,0,0-.4.48l1.93,3.24-2.42-2.4a6.39,6.39,0,0,0-.3,4.12,6.83,6.83,0,0,0,1.42,2.82,9.75,9.75,0,0,0,2.09,0,17.71,17.71,0,0,0,4.59-1.22,6.61,6.61,0,0,0,.11-3.63A6.13,6.13,0,0,0,124.29,84.68Z"/><path class="cls-10" d="M97.73,84.76a1.45,1.45,0,0,0-.29,0,12.94,12.94,0,0,0-3.29,0,19,19,0,0,0-2.81.59,7.35,7.35,0,0,0-2.56,1.15,3.08,3.08,0,0,0-1.24,2.42,3.11,3.11,0,0,0,1.37,2.27,9,9,0,0,0,2.49,1.1l.55.17a17.83,17.83,0,0,0,4.65,1,9.68,9.68,0,0,0,2.08-.16,6.5,6.5,0,0,0,2.91-1.35c1.27-1.07,2.37-3.31,1.22-4.74S99.43,85,97.73,84.76Z"/><path class="cls-14" d="M97.13,88.78l1.73-3.34a4.48,4.48,0,0,0-.42-.46,7.36,7.36,0,0,0-.71-.22,8.27,8.27,0,0,0-3.5-.06s0,0,0,0l-.06,0a6.12,6.12,0,0,0-2.52,4.09A6.53,6.53,0,0,0,92,92.44a17.83,17.83,0,0,0,4.65,1,9.68,9.68,0,0,0,2.08-.16,6.77,6.77,0,0,0,1.26-2.9,6.35,6.35,0,0,0-.54-4.09Z"/><path class="cls-10" d="M114.23,116.36a16.05,16.05,0,0,1-13,.75c1.56,3.61,4.58,6.59,8.51,6.59a12,12,0,0,0,9.84-5.54c2.11-3.31,3.8-8.31,2.72-12.08A16.07,16.07,0,0,1,114.23,116.36Z"/><path class="cls-12" d="M130.76,50.66c-8-5.8-21.72-9-31.92-4.76a57.37,57.37,0,0,0-24,18.91,40.85,40.85,0,0,0-6.79,15.12A99.66,99.66,0,0,1,91,72.72c.16-4.93,1.5-6.35,3.74-11,.71,3.7,1.32,3.9,2,7.6a41.55,41.55,0,0,1,14,.31c-.64-5.06-.28-7.38.44-12.45,2.24,4.67,3.4,6.79,4,11.8,10.61-1.9,22.25,1,29.62,7.42C144.06,66.77,139.6,57.05,130.76,50.66Z"/><path class="cls-10" d="M96.63,164.94,84.1,168.17l-11.56,3-12.69,3.26-12.77,3.29-19.43,5s12.79,41.5,81.23,44.75,89.27-41,89.27-41l-76.51-21.48Z"/><path class="cls-8" d="M81.72,174.26a5.45,5.45,0,0,1-.8-5.23l-12.68,3.26-12.78,3.28a5.7,5.7,0,0,0,1.26,1.8,69.8,69.8,0,0,0,22.53,16,18.92,18.92,0,0,1-4.09-9.63c4.59,3.32,10.48,4.46,16.15,4.22s11.19-1.72,16.68-3.19C98,183.76,87.84,182.18,81.72,174.26Z"/><path class="cls-15" d="M126.92,157.33s-14.9,2-19.2,1.93c-3.74,0-17-1.85-17-1.85-5.84,0-4.62,1.87-4.62,6v4.39c0,4.16,4.77,7.56,10.6,7.56h24.42c5.84,0,10.61-3.4,10.61-7.56v-4.39C131.7,159.28,132.75,157.33,126.92,157.33Z"/></g></g></g></g></svg>