<svg xmlns="http://www.w3.org/2000/svg" xmlns:xlink="http://www.w3.org/1999/xlink" viewBox="0 0 218.16 235.26"><defs><style>.cls-1{fill:none;}.cls-2{isolation:isolate;}.cls-3{fill:#fae4d9;}.cls-4{clip-path:url(#clip-path);}.cls-5{fill:#fce096;}.cls-6{fill:#fff;}.cls-7{fill:#fbaea6;}.cls-8{fill:url(#linear-gradient);}.cls-9{fill:#fb968b;}.cls-10,.cls-13,.cls-30{mix-blend-mode:color-burn;}.cls-11,.cls-13{fill:#e8e8e8;}.cls-12,.cls-30{fill:#919191;}.cls-14{fill:url(#linear-gradient-2);}.cls-15{fill:#fdc07a;}.cls-16{fill:url(#linear-gradient-3);}.cls-17{fill:url(#linear-gradient-4);}.cls-18{fill:url(#linear-gradient-5);}.cls-19{fill:url(#linear-gradient-6);}.cls-20{fill:url(#linear-gradient-7);}.cls-21{fill:url(#linear-gradient-8);}.cls-22{fill:url(#linear-gradient-9);}.cls-23{fill:url(#linear-gradient-10);}.cls-24{fill:url(#linear-gradient-11);}.cls-25{fill:url(#linear-gradient-12);}.cls-26{fill:url(#linear-gradient-13);}.cls-27{fill:#000446;}.cls-28{fill:url(#linear-gradient-14);}.cls-29{fill:#fa6857;}</style><clipPath id="clip-path"><circle class="cls-1" cx="109.08" cy="109.08" r="109.08" transform="translate(-45.18 109.08) rotate(-45)"/></clipPath><linearGradient id="linear-gradient" x1="104.86" y1="99.5" x2="122.21" y2="170.95" gradientUnits="userSpaceOnUse"><stop offset="0" stop-color="#ff6a59"/><stop offset="1" stop-color="#fff" stop-opacity="0"/></linearGradient><linearGradient id="linear-gradient-2" x1="110.35" y1="77.16" x2="110.1" y2="66.42" gradientUnits="userSpaceOnUse"><stop offset="0" stop-color="#ff6a59"/><stop offset="0.11" stop-color="#ff6d5c" stop-opacity="0.98"/><stop offset="0.24" stop-color="#ff7465" stop-opacity="0.93"/><stop offset="0.37" stop-color="#ff8173" stop-opacity="0.84"/><stop offset="0.5" stop-color="#ff9387" stop-opacity="0.72"/><stop offset="0.64" stop-color="#ffaba1" stop-opacity="0.57"/><stop offset="0.77" stop-color="#ffc7c1" stop-opacity="0.38"/><stop offset="0.91" stop-color="#ffe8e5" stop-opacity="0.16"/><stop offset="1" stop-color="#fff" stop-opacity="0"/></linearGradient><linearGradient id="linear-gradient-3" x1="118.66" y1="87.85" x2="118.65" y2="87.83" gradientUnits="userSpaceOnUse"><stop offset="0" stop-color="#ff4c38"/><stop offset="0.11" stop-color="#ff4f3c" stop-opacity="0.98"/><stop offset="0.24" stop-color="#ff5846" stop-opacity="0.93"/><stop offset="0.37" stop-color="#ff6857" stop-opacity="0.84"/><stop offset="0.5" stop-color="#ff7e6f" stop-opacity="0.72"/><stop offset="0.64" stop-color="#ff998e" stop-opacity="0.57"/><stop offset="0.77" stop-color="#ffbcb4" stop-opacity="0.38"/><stop offset="0.91" stop-color="#ffe3e0" stop-opacity="0.16"/><stop offset="1" stop-color="#fff" stop-opacity="0"/></linearGradient><linearGradient id="linear-gradient-4" x1="101.2" y1="87.96" x2="101.2" y2="87.94" xlink:href="#linear-gradient-3"/><linearGradient id="linear-gradient-5" x1="110.19" y1="89.05" x2="108.49" y2="80.67" xlink:href="#linear-gradient-3"/><linearGradient id="linear-gradient-6" x1="101.17" y1="87.95" x2="101.17" y2="87.93" xlink:href="#linear-gradient-3"/><linearGradient id="linear-gradient-7" x1="118.68" y1="87.83" x2="118.68" y2="87.81" xlink:href="#linear-gradient-3"/><linearGradient id="linear-gradient-8" x1="101.15" y1="88.36" x2="101.14" y2="88.33" xlink:href="#linear-gradient-3"/><linearGradient id="linear-gradient-9" x1="101.12" y1="88.37" x2="101.11" y2="88.34" xlink:href="#linear-gradient-3"/><linearGradient id="linear-gradient-10" x1="118.72" y1="88.25" x2="118.71" y2="88.23" xlink:href="#linear-gradient-3"/><linearGradient id="linear-gradient-11" x1="110.87" y1="93.36" x2="108.55" y2="81.89" xlink:href="#linear-gradient-3"/><linearGradient id="linear-gradient-12" x1="118.75" y1="88.26" x2="118.74" y2="88.23" xlink:href="#linear-gradient-3"/><linearGradient id="linear-gradient-13" x1="126.08" y1="60.18" x2="115.07" y2="74.09" gradientUnits="userSpaceOnUse"><stop offset="0" stop-color="#5f0030"/><stop offset="1" stop-color="#c7776e"/></linearGradient><linearGradient id="linear-gradient-14" x1="94.85" y1="60.31" x2="84.1" y2="73.89" xlink:href="#linear-gradient-13"/></defs><g class="cls-2"><g id="Слой_2" data-name="Слой 2"><g id="Layer_1" data-name="Layer 1"><circle class="cls-3" cx="109.08" cy="109.08" r="109.08" transform="translate(-45.18 109.08) rotate(-45)"/><g class="cls-4"><path class="cls-5" d="M89.25,62.57a19.53,19.53,0,0,0-8.63-.34c-14.87,3.43-4.24,27,2.5,33.49a31.43,31.43,0,0,0,27.63,8c5.13-1.06,10.57-4.21,11.4-9.38.5-3.08-.78-6.17-2.31-8.9A47.4,47.4,0,0,0,89.25,62.57Z"/><path class="cls-6" d="M143.72,144.19l-8.41-4.58-.38-.21L125,134H96.66l-10.34,4.29-.85.35-8.28,3.43L39.68,157.59,19.86,205.26s11.13,5.67,25.79,12.1c19.38,8.49,44.92,18.27,59,17.89s37.72-7.79,56.24-15c14.23-5.54,25.37-11,26.61-13,2.85-4.67-9.16-44.19-9.16-44.19Z"/><path class="cls-5" d="M134.4,26.1c-3.46-2.89-8.16-3.7-12.62-4.36-6.6-1-13.32-1.85-19.92-.92C89.27,22.59,76.35,33.08,74.93,46.16c-.75,6.88,1.13,13.88,4.41,20s7.87,11.4,12.79,16.27a142.08,142.08,0,0,0,29.6,22.47c2.48,1.41,5.19,2.79,8,2.51,3.45-.34,6.17-3,8.24-5.82,6.77-9.12,9.67-20.73,9.58-32.09s-3-22.53-7-33.17C139.14,32.55,137.48,28.68,134.4,26.1Z"/><path class="cls-7" d="M93.43,93.89c6.35,30.84,0,55.16,0,55.16h33.3s-4.67-29.57,0-55.16C128.22,85.7,91.75,85.74,93.43,93.89Z"/><path class="cls-8" d="M93.43,93.89c6.35,30.84,0,55.16,0,55.16h33.3s-4.67-29.57,0-55.16C128.22,85.7,91.75,85.74,93.43,93.89Z"/><path class="cls-9" d="M109.58,22.66c-17.69,0-32,20.57-32,46,0,16.28,13.18,30.59,22.63,38.75a14.16,14.16,0,0,0,18.8,0c9.45-8.16,22.63-22.47,22.63-38.75C141.61,43.23,127.27,22.66,109.58,22.66Z"/><g class="cls-10"><path class="cls-11" d="M142.67,50.13a15.41,15.41,0,0,0-3.39,5.24c-2.38,6.06-.8,12.36,3.54,14.07a6.37,6.37,0,0,0,2,.42,44.15,44.15,0,0,0,0-9.27A51.88,51.88,0,0,0,142.67,50.13Z"/></g><path class="cls-9" d="M149.25,46.15c-4.34-1.71-9.79,1.82-12.17,7.88s-.81,12.36,3.53,14.06,9.78-1.81,12.17-7.87S153.59,47.86,149.25,46.15Z"/><g class="cls-10"><path class="cls-12" d="M148,52c-1.87-.73-4.14.49-5.49,2.77,2.08.91,2.83,4,1.66,6.94a7.24,7.24,0,0,1-.57,1.15l.1.05c2.15.85,4.86-.9,6.05-3.91S150.11,52.86,148,52Z"/></g><g class="cls-10"><path class="cls-11" d="M76.12,50.13A51.21,51.21,0,0,0,74,60.59a43.48,43.48,0,0,0,0,9.27,6.43,6.43,0,0,0,2-.42c4.33-1.71,5.91-8,3.53-14.07A15.39,15.39,0,0,0,76.12,50.13Z"/></g><path class="cls-9" d="M69.53,46.15c-4.33,1.71-5.91,8-3.53,14.07s7.84,9.58,12.18,7.87,5.91-8,3.53-14.06S73.87,44.44,69.53,46.15Z"/><g class="cls-10"><path class="cls-12" d="M70.83,52c-2.16.85-2.94,4-1.76,7s3.9,4.76,6.06,3.91l.09-.05a8.21,8.21,0,0,1-.57-1.15c-1.17-3-.42-6,1.66-6.94C75,52.5,72.69,51.28,70.83,52Z"/></g><path class="cls-13" d="M122.83,47.62l-6.89,1.2-2.62,17.5s13.7,3.71,18,.48,2.78-11.53,2.78-11.53Z"/><path class="cls-13" d="M95.13,47.62,83.87,55.27s-1.52,8.29,2.77,11.53,18-.48,18-.48L102,48.82Z"/><path class="cls-14" d="M113.68,71.28a4.41,4.41,0,0,1-1.24-1.19,6,6,0,0,1-.67-3.7,11.3,11.3,0,0,1,.7-4.51h-4.38c.38,0,.66,5.42.66,5.69a3.72,3.72,0,0,1-1.94,3.6c-1.37.69-3.06,2.68-1.64,4.45a3.6,3.6,0,0,0,1.54,1,9.65,9.65,0,0,0,5.64.48,6.2,6.2,0,0,0,2.72-1.22,2.36,2.36,0,0,0,.76-1,2.55,2.55,0,0,0-.46-2.28A6.44,6.44,0,0,0,113.68,71.28Z"/><path class="cls-15" d="M123.49,46c-1.49-.75-3.22-1.36-4.79-.81-1.31.46-2.41,2.27-2.76,3.62,6.43.42,13.16,2.37,18.15,6.45A27.85,27.85,0,0,0,123.49,46Z"/><path class="cls-15" d="M99.25,45.2c-1.57-.55-3.29.06-4.78.81a27.78,27.78,0,0,0-10.6,9.26c5-4.08,11.72-6,18.15-6.45C101.67,47.47,100.57,45.66,99.25,45.2Z"/><path class="cls-16" d="M118.67,87.83h0S118.67,87.84,118.67,87.83Z"/><path class="cls-17" d="M101.21,88h0S101.19,88,101.21,88Z"/><path class="cls-18" d="M118.61,87.39c-.9-2.22-3.24-2.29-5.42-2a7.82,7.82,0,0,0-3.28,1.37,9.57,9.57,0,0,0-3.33-1.4c-2.27-.45-4.56-.34-5.35,2.11-.06.18.08.34,0,.43s0,0,0,0c6.81.92,10.56,1.46,17.43-.11l0,0C118.54,87.73,118.67,87.56,118.61,87.39Z"/><path class="cls-19" d="M101.16,88h0S101.18,87.93,101.16,88Z"/><path class="cls-20" d="M118.67,87.83h0S118.67,87.82,118.67,87.83Z"/><path class="cls-21" d="M101.13,88.36h0S101.13,88.34,101.13,88.36Z"/><path class="cls-22" d="M101.13,88.36h0S101.13,88.37,101.13,88.36Z"/><path class="cls-23" d="M118.7,88.25h0S118.72,88.23,118.7,88.25Z"/><path class="cls-24" d="M118.69,88.28s0,0,0,0c-6.85,1.48-10.74,1.13-17.54.11,0,0,0,0,0,0s-.15.21-.12.43c.39,2.87,1.92,3.68,5,4.67a20.73,20.73,0,0,0,7.89-.08c3-1,4.58-1.87,4.87-4.72C118.84,88.47,118.62,88.41,118.69,88.28Z"/><path class="cls-25" d="M118.76,88.24h0S118.74,88.27,118.76,88.24Z"/><path class="cls-6" d="M117.11,59.72a10.81,10.81,0,0,0-3.76,6.57,41.78,41.78,0,0,0,8.28,1.46A14.49,14.49,0,0,0,129.87,66a9.45,9.45,0,0,0,4.37-7.28,38.56,38.56,0,0,0-8.76-1.51A13,13,0,0,0,117.11,59.72Z"/><path class="cls-26" d="M124,58a7.6,7.6,0,0,0-3.62,1.52c-.06.09-.11.2-.16.29l0,0c.41.23,1.6,1.54,2,1.49-.88.11-1.75.27-2.62.46,0,.1,0,.21,0,.32a4.93,4.93,0,0,0,9.86,0,4.85,4.85,0,0,0-1.27-3.3A7.93,7.93,0,0,0,124,58Z"/><path class="cls-27" d="M129.05,56.44a13.26,13.26,0,0,0-10.35,1.41,12.18,12.18,0,0,0-5.38,8.47,14.25,14.25,0,0,1,6.47-6.55A14.63,14.63,0,0,1,129,58.53a28.67,28.67,0,0,0,3.67.72,4.15,4.15,0,0,0,3.41-1.17C133.6,59,131.58,57.16,129.05,56.44Z"/><path class="cls-6" d="M100.84,59.72a13,13,0,0,0-8.37-2.49,38.57,38.57,0,0,0-8.75,1.51A9.39,9.39,0,0,0,88.08,66a14.59,14.59,0,0,0,8.24,1.75,42.64,42.64,0,0,0,8.29-1.47A10.9,10.9,0,0,0,100.84,59.72Z"/><path class="cls-28" d="M95.71,61.33c.44.06,1.62-1.25,2-1.48l0,0a2.64,2.64,0,0,0-.15-.29A7.75,7.75,0,0,0,94,58a8,8,0,0,0-4.24.81,4.8,4.8,0,0,0-1.27,3.29,4.94,4.94,0,0,0,9.87,0c0-.11,0-.21,0-.32C97.47,61.6,96.59,61.44,95.71,61.33Z"/><path class="cls-27" d="M99.25,57.86a13.2,13.2,0,0,0-10.34-1.41c-2.53.71-4.56,2.52-7,1.63a4.13,4.13,0,0,0,3.41,1.17A27.46,27.46,0,0,0,89,58.54a14.53,14.53,0,0,1,9.2,1.23,14.23,14.23,0,0,1,6.47,6.56A12.16,12.16,0,0,0,99.25,57.86Z"/><path class="cls-5" d="M120.29,22.44C113.51,21,105,20.77,98.85,24.05c-4.67,2.48-.89,13.32,2.4,16.13,3.08,2.63,7.51,2.93,11.55,2.61s8.14-1.14,12.1-.26c6.16,1.37,10.86,6.75,12.92,12.72S139.7,67.72,139,74c1.59-6.29,3.18-12.63,3.57-19.11s-.51-13.18-3.65-18.87A28.33,28.33,0,0,0,120.29,22.44Z"/><path class="cls-5" d="M96.88,23.71A13.09,13.09,0,0,0,90,25.56,25.36,25.36,0,0,0,79,39a41.38,41.38,0,0,0-2.07,17.48c.42,5.72,1.77,11.62,5.43,16a48.77,48.77,0,0,1-2-9.81,16.64,16.64,0,0,1,2-9.66c2.45-4.06,6.94-6.34,11-8.87,3.19-2,6.5-4.57,8-8.15,1.17-2.88,3.57-5.76,1.65-9A7.5,7.5,0,0,0,96.88,23.71Z"/><path class="cls-5" d="M144,84.32a3.52,3.52,0,0,0-3.41-1.13A5.22,5.22,0,0,0,138,85.7q-3.15,5.05-5.91,10.35c-1.47,2.82-4.08,6.53-4.48,9.74-.59,4.76,3.5,12.55,8.54,13.34,3,.47,6-1.29,8-3.59a20.52,20.52,0,0,0,4.69-13.61,40.69,40.69,0,0,0-3.06-14.31A9.41,9.41,0,0,0,144,84.32Z"/><path class="cls-5" d="M149.43,101.59a3.06,3.06,0,0,0-2.73-1.52,4.55,4.55,0,0,0-2.62,1.72q-3.51,3.81-6.73,7.87c-1.72,2.18-4.55,4.91-5.41,7.59-1.28,4,.94,11.29,5.11,12.78,2.51.9,5.34-.12,7.44-1.75a17.84,17.84,0,0,0,6.23-10.86,35.57,35.57,0,0,0-.28-12.72A8.19,8.19,0,0,0,149.43,101.59Z"/><path class="cls-15" d="M101.22,24.42a27.42,27.42,0,0,1,17.65.31c-1.82-.67-3.39-1.63-5.31-2.18a28.64,28.64,0,0,0-6-1,31.35,31.35,0,0,0-11.34,1.63,18.81,18.81,0,0,0-6,3c1.14,0,2.26-.25,3.39-.25a3.17,3.17,0,0,1,2.85,1.22,2,2,0,0,1-.77,2.31,14,14,0,0,1-2.54,1.45,4.16,4.16,0,0,0-2,1.83A6,6,0,0,1,94,31.58c1.06-.06,2.23.63,2.09,1.49-.11.65-.85,1.07-1.48,1.46a10.88,10.88,0,0,0-4.37,5,21.59,21.59,0,0,1,3.6-2.07,2.18,2.18,0,0,1,1.41-.27,1,1,0,0,1,.68,1.47,3.6,3.6,0,0,1-1.42,1.3c1.67-.68,2.6-2.26,4.32-2.84s3.63,0,5.3.65,3.45,1.38,5.25,1.09a7.65,7.65,0,0,1-5.81-5,11.41,11.41,0,0,1,7.77,1.06,9,9,0,0,0-4.22-2.66,33.58,33.58,0,0,1-4.88-1.89c-.33-.19-.68-.48-.56-.79s.47-.36.79-.42a29.14,29.14,0,0,1,6.9-.89,9.17,9.17,0,0,1,6.21,2.26,10.58,10.58,0,0,0-7.73-4.81c-2-.27-4.1,0-6.14-.26-.5-.05-1.15-.33-1-.71A.85.85,0,0,1,101.22,24.42Z"/><path class="cls-15" d="M141.38,80.77c-1,1.53-1,4.5-1.59,6.33a42,42,0,0,1-2.52,6.22,41.4,41.4,0,0,1-7.92,11,17.81,17.81,0,0,0,13.42-16.5C142.84,86.26,143,81.53,141.38,80.77Z"/><path class="cls-15" d="M143.47,107.83a29.93,29.93,0,0,1-10.15,10,12.67,12.67,0,0,0,12.09-9.07c.31-1,1.21-4.27.24-5.07C144.72,104.63,144.18,106.66,143.47,107.83Z"/><polygon class="cls-6" points="110.07 138.25 95.62 122.02 86.3 138.25 110.07 159.43 135.2 139.87 125.24 122.02 110.07 138.25"/><rect class="cls-6" x="86.3" y="145.41" width="46.3" height="14.03"/><path class="cls-29" d="M144.84,176.8c-5.46-8.91-3.69-20.31-1.52-30.54.14-.68.28-1.38.4-2.07l-8.41-4.58a15.31,15.31,0,0,0-.66,4.26q-.47,15.13-.91,30.27c-.07,2.18-.21,4.58-1.7,6.18-1.81,2-4.84,2-7.5,1.81L92.6,180.46c-3.21-.17-7-.75-8.35-3.68a8.66,8.66,0,0,1-.38-4.24c.74-10.06,2.79-20.92,2.27-31a7.71,7.71,0,0,0-.67-2.95l-8.28,3.43a24.26,24.26,0,0,0-.33,4.73c0,5,0,10,.07,15,0,3.51-.18,7.52-2.88,9.76-1.94,1.61-4.64,1.84-7,2.73-5.52,2.08-8.8,7.64-11.49,12.89q-4.43,8.67-8.24,17.62c-1.56,3.66-3.06,7.68-2,11.51a11,11,0,0,0,.35,1.06c19.38,8.49,44.92,18.27,59,17.89s37.72-7.79,56.24-15c.06-1,.07-2.09.08-3.12.05-9.48-.1-19.59-5.38-27.45C152.45,185,147.77,181.57,144.84,176.8Z"/><path class="cls-30" d="M101.05,188.9c-2.64-.49-8.79-3.77-10.52-1-2.15,3.41,4.09,6.44,6,7.87-1.21.85-13.43,7.51-14.27,6.42,7.62,9.85,22.27,13.49,33.62,8.36a48.56,48.56,0,0,1-16.24-8.83,44.87,44.87,0,0,0,29.55-14.41A58.58,58.58,0,0,1,101.05,188.9Z"/><path class="cls-5" d="M148.76,121.63a3.63,3.63,0,0,0-2.45.76c-2.41,1.46-4.77,3-7.06,4.65-1.85,1.32-4.69,2.83-6,4.74-1.9,2.83-1.82,9.08,1.13,11.19,1.76,1.27,4.21,1.11,6.23.31a14.6,14.6,0,0,0,7.35-7.12,29.06,29.06,0,0,0,2.66-10,6.85,6.85,0,0,0-.09-2.67A2.5,2.5,0,0,0,148.76,121.63Z"/><path class="cls-15" d="M144.41,122.58a20.58,20.58,0,0,1-8.29,5.1,8.82,8.82,0,0,0,7-1.44,8.68,8.68,0,0,0,2.41-2.71c.37-.64,1.47-2.65,1-3.33C145.74,120.65,145.06,121.91,144.41,122.58Z"/><path class="cls-27" d="M147.46,139.51a4.47,4.47,0,0,0,.48-1.13,1,1,0,0,0-.43-1c-.52-.25-1.07.25-1.47.67a11.91,11.91,0,0,1-9.37,3.5c-.75-.05-3.61-1.06-4-.23-.26.52.91,1.63,1.06,2.1a6,6,0,0,1,0,2.63,2.87,2.87,0,0,0,.61,2.62c.8.68,2,.42,3,.14l9.56-2.78a1.77,1.77,0,0,0,1-.52c.5-.64,0-1.53-.36-2.27A4.5,4.5,0,0,1,147.46,139.51Z"/><path class="cls-5" d="M135,146.16c-5.82,4.6-4.5,12.41-2.85,18.56.8,3,1.41,6.18.48,9.13s-3.88,5.47-6.91,4.91a20.63,20.63,0,0,0,16.69-5.25,26.16,26.16,0,0,0,8.07-15.78,16.28,16.28,0,0,0-.73-8.48C147.27,143.35,139.77,142.36,135,146.16Z"/><path class="cls-15" d="M139.34,174.59a16.88,16.88,0,0,0,.85-24.88C144.24,156.83,143.66,167.63,139.34,174.59Z"/></g></g></g></g></svg>