<svg xmlns="http://www.w3.org/2000/svg" xmlns:xlink="http://www.w3.org/1999/xlink" viewBox="0 0 218.16 261.51"><defs><style>.cls-1{fill:none;}.cls-2{isolation:isolate;}.cls-3{fill:#fae4d9;}.cls-4{clip-path:url(#clip-path);}.cls-5{fill:#fff;}.cls-6{fill:#e8e8e8;}.cls-7{fill:#8a6ba0;}.cls-14,.cls-8{fill:#919191;}.cls-12,.cls-13,.cls-8{mix-blend-mode:color-burn;}.cls-9{fill:#0a1775;}.cls-10{fill:#fb968b;}.cls-11{fill:url(#linear-gradient);}.cls-12{fill:#d4d4d4;}.cls-15{fill:url(#linear-gradient-2);}.cls-16{fill:url(#linear-gradient-3);}.cls-17{fill:#000446;}.cls-18{fill:#fa6857;}.cls-19{fill:url(#linear-gradient-4);}</style><clipPath id="clip-path"><circle class="cls-1" cx="109.08" cy="109.08" r="109.08" transform="translate(-45.18 109.08) rotate(-45)"/></clipPath><linearGradient id="linear-gradient" x1="113.15" y1="126.23" x2="114.79" y2="195.45" gradientUnits="userSpaceOnUse"><stop offset="0" stop-color="#ff6a59"/><stop offset="1" stop-color="#fff" stop-opacity="0"/></linearGradient><linearGradient id="linear-gradient-2" x1="86.54" y1="84.41" x2="79.74" y2="80.31" gradientUnits="userSpaceOnUse"><stop offset="0" stop-color="#5f0030"/><stop offset="1" stop-color="#c7776e"/></linearGradient><linearGradient id="linear-gradient-3" x1="82.42" y1="98.87" x2="97.45" y2="78.99" xlink:href="#linear-gradient"/><linearGradient id="linear-gradient-4" x1="108.74" y1="87.02" x2="100.34" y2="81.96" xlink:href="#linear-gradient-2"/></defs><g class="cls-2"><g id="Слой_2" data-name="Слой 2"><g id="Layer_1" data-name="Layer 1"><circle class="cls-3" cx="109.08" cy="109.08" r="109.08" transform="translate(-45.18 109.08) rotate(-45)"/><g class="cls-4"><path class="cls-5" d="M98.55,47.51s1.86,3.61,13.61,11.76c11,7.67,15.78,8.63,15.78,8.63L149.5,36.83,120.11,16.44Z"/><path class="cls-5" d="M123.9,12c-5.36-3.72-12.05-3.35-15,.82s-.9,10.57,4.46,14.29,12,3.35,15-.82S129.25,15.71,123.9,12Z"/><path class="cls-5" d="M152.81,32.06c-5.36-3.72-12.05-3.35-14.94.82s-.9,10.57,4.46,14.29,12,3.35,14.94-.82S158.17,35.77,152.81,32.06Z"/><path class="cls-5" d="M144.07,13.29c-6.33-4.39-14.22-3.95-17.64,1s-1.06,12.47,5.27,16.86,14.21,3.95,17.63-1S150.39,17.67,144.07,13.29Z"/><path class="cls-6" d="M152.81,32.06a14.24,14.24,0,0,0-3.56-1.81l.08-.11c3.41-4.92,1.06-12.47-5.26-16.85s-14.2-3.95-17.62,1A14.94,14.94,0,0,0,123.9,12c-5.36-3.72-12.05-3.35-15,.82S108,23,113,26.76L98.55,47.51s1.86,3.61,13.61,11.76c2.81,1.95,5.2,3.46,7.22,4.64-5.74-4.61-11.3-10.85-12.87-17.24-1.74-7.08,3.09-11.08,6.32-16.1a13.22,13.22,0,0,0,1.28-2.89l.24-.76c-2.78-2.64-2.94-7.22-1.12-9.66,3.35-4.5,8.78-1.65,13.17,1.27l.29-.49a9.06,9.06,0,0,1,8.77-4c6.66.81,13.09,8.05,12.67,14.12a11.49,11.49,0,0,1-.69,3.1,28.46,28.46,0,0,1,8.2,4.5,19.54,19.54,0,0,1,1.84,1.66A14.19,14.19,0,0,0,152.81,32.06Z"/><path class="cls-7" d="M113.91,151.11c-9.15,0-16.56,2.84-16.56,6.34s6.32,9.59,15.47,9.59,17.65-6.1,17.65-9.59S123.06,151.11,113.91,151.11Z"/><path class="cls-8" d="M113.91,151.11c-9.15,0-16.56,2.84-16.56,6.34s6.32,9.59,15.47,9.59,17.65-6.1,17.65-9.59S123.06,151.11,113.91,151.11Z"/><path class="cls-9" d="M145.59,89.46c-2.46.15-5,.81-7.34.08a8.75,8.75,0,0,1-5-4.78,26.09,26.09,0,0,1-1.83-6.88l-2.91-17.17c-.48-2.83-.52-10-5.28-9.3-1.79.27-3.18,1.68-4.35,3.07a55.31,55.31,0,0,0-13,35.64c0,3.73.57,7.79,3.26,10.38,2.88,2.78,7.3,3,11.3,2.87a141.82,141.82,0,0,0,23.57-3A14.3,14.3,0,0,0,150.1,98c1.72-1.36,2.78-3.82,1.87-5.81C150.94,90,148.05,89.31,145.59,89.46Z"/><path class="cls-10" d="M96.38,125.19c6.63,32.22,0,57.64,0,57.64h34.8s-4.88-30.9,0-57.64C132.74,116.64,94.62,116.67,96.38,125.19Z"/><path class="cls-11" d="M96.38,125.19c6.63,32.22,0,57.64,0,57.64h34.8s-4.88-30.9,0-57.64C132.74,116.64,94.62,116.67,96.38,125.19Z"/><path class="cls-10" d="M96,49.82C90.86,54.5,88.65,61.48,86.17,68c0,.13-.1.27-.14.4a126.76,126.76,0,0,1-5.76,12.88c-1,1.92-2,3.79-3.1,5.66-.09.16-.19.32-.29.48q-3.12,5.34-6.75,10.36c-2.91,4-6.08,7.88-8.15,12.39s-2.91,9.82-1,14.4c2.37,5.7,8.39,9,14.21,11.07a77.39,77.39,0,0,0,33.6,4.21c11.22-1.09,23.47-5.78,27.8-16.2,3.69-8.89.48-19-2.74-28.06C129.66,83.83,119.16,28.54,96,49.82Z"/><path class="cls-9" d="M122.12,97.32a5.1,5.1,0,0,0-2.52-1.23c-1.73-.17-3.16,1.22-4.42,2.42a36.75,36.75,0,0,1-22,10.09c-6.55.52-11.87,3.49-13.26,10.64a14.4,14.4,0,0,0,5.83,14.24c-.51-4.19-1-8.46-.24-12.61s3-8.23,6.8-10.16c2.65-1.35,5.73-1.51,8.65-2.14a26.38,26.38,0,0,0,13.23-7.36c1.19-1.24,2.46-2.69,4.18-2.79,1.91-.11,3.43,1.49,4.6,3A91.22,91.22,0,0,1,133.73,119,30.23,30.23,0,0,0,122.12,97.32Z"/><path class="cls-12" d="M89.06,66.59A8.12,8.12,0,0,0,86.19,68c0,.12-.1.26-.14.39a128.57,128.57,0,0,1-8.89,18.52,21.09,21.09,0,0,0,13.57.35c1.36-5.39,1.42-10.75,2.51-16.19a6.39,6.39,0,0,0,.15-2.22C93,66.94,90.75,66.19,89.06,66.59Z"/><path class="cls-12" d="M111.08,69.27a22.08,22.08,0,0,0-7.92-2.16c-2.34-.14-2.91,1.11-3.16,3.25a104.56,104.56,0,0,0-.28,18.89A68.55,68.55,0,0,0,110.43,92a22.68,22.68,0,0,0,10.92-.84c-1.48-4.54-.71-9.65-2.54-14.07A15.56,15.56,0,0,0,111.08,69.27Z"/><g class="cls-13"><path class="cls-6" d="M132,74a7.36,7.36,0,1,0,3.16,9.91A7.36,7.36,0,0,0,132,74Z"/></g><path class="cls-10" d="M131.28,71.83a7.36,7.36,0,1,0,3.16,9.92A7.36,7.36,0,0,0,131.28,71.83Z"/><g class="cls-13"><path class="cls-14" d="M130.31,75.49a3.65,3.65,0,0,0-4.48.91,3.65,3.65,0,0,1,1.5,4.88,3.84,3.84,0,0,1-.45.66L127,82a3.66,3.66,0,0,0,3.35-6.51Z"/></g><path class="cls-5" d="M91.05,74.47a3.11,3.11,0,0,0-3,.21,19.61,19.61,0,0,0-7.18,5.72c-.23.29-.44.58-.64.88-1,1.92-2,3.79-3.1,5.66-.09.16-.19.32-.29.48,2,1.18,5.11,1.37,7.51,1.3l.84,0a6.83,6.83,0,0,0,4.38-1.44,7,7,0,0,0,1.79-3.94l0-.16a37.89,37.89,0,0,0,.62-5.73C92.08,76.34,92,75.06,91.05,74.47Z"/><path class="cls-15" d="M85.74,78.76A5.53,5.53,0,0,0,80,84.22c0,.13,0,.23,0,.36,1,.21,2,.39,3,.53-.53,0-1.85,1.4-2.31,1.64l-.05,0c.07.11.12.22.18.33a9.73,9.73,0,0,0,3.5,1.61l.84,0a6.83,6.83,0,0,0,4.38-1.44,7,7,0,0,0,1.79-3.94A5.79,5.79,0,0,0,85.74,78.76Z"/><path class="cls-10" d="M96.06,71.42c-4.24-1.55-3.63,9.46-4.76,11.49-1.59,2.84-5.21,3.68-8.39,4.42s-6.78,2.1-7.7,5.22,1.58,6.41,4.61,7.56,6.42.71,9.63.25a12.7,12.7,0,0,0,4.64-1.26,4.4,4.4,0,0,0,2.44-3.88c-.06-1-.61-2-.76-3-.22-1.52.44-3,1-4.44C97.71,85,100.13,72.9,96.06,71.42Z"/><path class="cls-16" d="M96.06,71.42c-4.24-1.55-3.63,9.46-4.76,11.49-1.59,2.84-5.21,3.68-8.39,4.42s-6.78,2.1-7.7,5.22,1.58,6.41,4.61,7.56,6.42.71,9.63.25a12.7,12.7,0,0,0,4.64-1.26,4.4,4.4,0,0,0,2.44-3.88c-.06-1-.61-2-.76-3-.22-1.52.44-3,1-4.44C97.71,85,100.13,72.9,96.06,71.42Z"/><path class="cls-9" d="M108.08,65.65c-1.53-.83-3.31-1.54-5-1-1.39.43-2.61,2.28-3,3.68,6.71.69,13.67,3,18.72,7.44A29.08,29.08,0,0,0,108.08,65.65Z"/><path class="cls-9" d="M91.06,64.37a2.16,2.16,0,0,0-2.74.25c-2.19,1.63-3.86,4.43-4.78,8,2.3-3.51,6-4.69,9.81-4.38A9.24,9.24,0,0,0,91.06,64.37Z"/><path class="cls-5" d="M109.92,114.11a16.76,16.76,0,0,1-13.6.79c1.62,3.76,4.78,6.87,8.88,6.88A12.47,12.47,0,0,0,115.47,116c2.21-3.45,4-8.67,2.85-12.62A16.77,16.77,0,0,1,109.92,114.11Z"/><path class="cls-9" d="M120.12,43.7c-2.4-1.19-5.15-1.55-7.54-2.76s-4.48-3.83-3.74-6.4c.45-1.57,1.83-2.73,2.28-4.29.63-2.15-.74-4.48-2.65-5.65A13.37,13.37,0,0,0,102,23.11a61.59,61.59,0,0,0-18.52,2.17,26.88,26.88,0,0,0-10,4.71,12.78,12.78,0,0,0-5,9.58c0,4.36,2.83,8.26,6.17,11a28.8,28.8,0,0,0,5.33,3.56A29.55,29.55,0,0,0,90.2,57.35a65,65,0,0,0,6.72.31,41,41,0,0,1,6.47.51c.35,0,.68.12,1,.2a19.29,19.29,0,0,1,4.34,1.52,20.41,20.41,0,0,1,11.56,16.5c.18,1.85-.51,5.19,1.53,6.19,2-3.49,3-8.54,4.23-12.44,1.47-4.71,2.53-9.68,1.84-14.55S124.54,45.89,120.12,43.7Z"/><path class="cls-5" d="M143.8,172.87l-8.71-1.38-5.33-.84-2.53-.4-3.73-.59h-23a11.4,11.4,0,0,0-3.91.2l-2.37.36c-1.69.28-3.65.63-5.81,1.05h0l-3.65.72C66,175.78,37.5,182.68,37.5,182.68L13.17,233.56l78.07,17.78,4.4,1,8.28,1.89,3.73.85,1.92.44,83.55-21.43-17.69-56.23Z"/><polygon class="cls-17" points="97.35 156.55 96.55 169.85 110.29 179.03 130.47 170.76 130.47 156.55 110.27 170.45 97.35 156.55"/><path class="cls-6" d="M127.23,170.25c-7.66,6.5-19.43,7.9-28.3,3.09-1.6-.87-3.14-2.1-4.75-3.12-1.69.28-3.65.63-5.81,1.05h0c-.07.89-.06,1.88-.14,2.74q-1,10.74-2,21.49A73,73,0,0,1,102,189.29c5.41,21-1.58,43.73,1.9,64.94a57.89,57.89,0,0,0,1.64,7.28c.81-2.12,1.5-4.26,2.09-6.43,5.94-21.7,1.73-45.53,6-67.88l14.79,10.64,6.67-26.35-5.33-.84Z"/><polygon class="cls-6" points="43.16 252.34 43.16 202.37 23.87 252.34 43.16 252.34"/><polygon class="cls-6" points="158.4 258.5 171.46 260.44 158.4 217.37 158.4 258.5"/><rect class="cls-18" x="104.06" y="174.26" width="12.86" height="6.87"/><polygon class="cls-18" points="127.96 190.16 130.29 166.78 110.49 177.69 127.96 190.16"/><polygon class="cls-18" points="91.24 189.39 110.54 178.6 92.6 165.96 91.24 189.39"/><path class="cls-5" d="M114.48,177a21.41,21.41,0,0,0,2.87-1,21.9,21.9,0,0,0,2.72-1.41c-.95.38-1.87.81-2.81,1.2S115.4,176.6,114.48,177Z"/><path class="cls-5" d="M114.38,178.73c.74.35,1.5.61,2.26.89a23.25,23.25,0,0,0,2.34.68c-.74-.35-1.5-.62-2.26-.9A23.2,23.2,0,0,0,114.38,178.73Z"/><path class="cls-5" d="M100.09,174.59a21.9,21.9,0,0,0,2.72,1.41,21.05,21.05,0,0,0,2.88,1c-.92-.44-1.86-.83-2.79-1.25S101.05,175,100.09,174.59Z"/><path class="cls-5" d="M101.19,180.3a23.85,23.85,0,0,0,2.33-.68c.76-.28,1.53-.54,2.26-.89a23.79,23.79,0,0,0-2.33.67C102.69,179.68,101.92,180,101.19,180.3Z"/><path class="cls-5" d="M109.47,74.62A6.38,6.38,0,0,0,103,76.14a10.52,10.52,0,0,0-2.93,6.18c-.26,1.76-.66,4.72.13,6.43a3.16,3.16,0,0,0,1.58,1.45,17.25,17.25,0,0,0,3.64,1c1.2.26,2.43.47,3.65.62a40.25,40.25,0,0,0,4.39.27,36.49,36.49,0,0,0,3.92-.18c.42-.05,3.7-.79,3.86-.59a39.22,39.22,0,0,1-6.4-9.58C113.58,78.94,112.31,75.72,109.47,74.62Z"/><path class="cls-19" d="M107.47,80.11a6.71,6.71,0,0,0-6.76,6.52,6,6,0,0,0,1.1,3.57,17.25,17.25,0,0,0,3.64,1c1.2.26,2.43.47,3.65.62a11.64,11.64,0,0,0,4.05-1.88c.08-.13.14-.27.22-.39l-.06,0c-.56-.3-2.16-2-2.76-1.93,1.2-.15,2.4-.38,3.58-.62a3.28,3.28,0,0,0,0-.43A6.48,6.48,0,0,0,107.47,80.11Z"/><path class="cls-12" d="M99.47,130.72a8.26,8.26,0,0,0-4,.79l.34,0a3,3,0,0,0-1.38,1,1.09,1.09,0,0,0,.2,1.51c.69.39,1.48-.38,2.28-.42,1.25-.07,1.88,1.58,3.06,2s2.68-1,2.46-2.39A3.31,3.31,0,0,0,99.47,130.72Z"/><path class="cls-17" d="M101.2,27.67A11.57,11.57,0,0,0,90.86,39.41a15.9,15.9,0,0,1-7-7.86,7.65,7.65,0,0,1-1.08,3.53,2.61,2.61,0,0,1-3.26,1c-1.6-1-1.16-3.4-2.49-4.52-2.9,3.12-2.14,11.55-1.1,15.29a18.7,18.7,0,0,0,4,7.38A29.55,29.55,0,0,0,90.2,57.35a65,65,0,0,0,6.72.31C93.3,55.5,90.14,52.8,88.54,49c-.49-1.15-.62-2.8.5-3.34a2.65,2.65,0,0,1,2.55.65c4,2.87,7,6.82,10.32,10.38.49.51,1,1,1.48,1.51.35,0,.68.12,1,.2a19.29,19.29,0,0,1,4.34,1.52A31.27,31.27,0,0,1,103,48C101.25,41.38,101.21,34.49,101.2,27.67Z"/><path class="cls-18" d="M109.08,183.78a1.61,1.61,0,1,0,1.61,1.6A1.61,1.61,0,0,0,109.08,183.78Z"/><path class="cls-18" d="M107.47,197.18a1.61,1.61,0,1,0,1.61,1.61A1.61,1.61,0,0,0,107.47,197.18Z"/><path class="cls-18" d="M107.47,210.93a1.61,1.61,0,1,0,1.61,1.61A1.61,1.61,0,0,0,107.47,210.93Z"/><path class="cls-18" d="M107.3,226.92a1.61,1.61,0,1,0,1.6,1.61A1.61,1.61,0,0,0,107.3,226.92Z"/><path class="cls-18" d="M106.47,238.91a1.61,1.61,0,1,0,1.61,1.6A1.6,1.6,0,0,0,106.47,238.91Z"/></g></g></g></g></svg>