<svg xmlns="http://www.w3.org/2000/svg" xmlns:xlink="http://www.w3.org/1999/xlink" viewBox="0 0 218.16 233.79"><defs><style>.cls-1{fill:none;}.cls-2{isolation:isolate;}.cls-3{fill:#fae4d9;}.cls-4{clip-path:url(#clip-path);}.cls-5{fill:#fff;}.cls-6{fill:#fa6857;}.cls-7{fill:#fb968b;}.cls-8{fill:url(#linear-gradient);}.cls-11,.cls-9{fill:#e8e8e8;}.cls-10,.cls-12,.cls-9{mix-blend-mode:color-burn;}.cls-12,.cls-14{fill:#919191;}.cls-13{fill:url(#linear-gradient-2);}.cls-15{fill:#000446;}.cls-16{fill:url(#linear-gradient-3);}.cls-17{fill:url(#linear-gradient-4);}</style><clipPath id="clip-path"><circle class="cls-1" cx="109.08" cy="109.08" r="109.08"/></clipPath><linearGradient id="linear-gradient" x1="115.21" y1="129.41" x2="129.21" y2="165.55" gradientUnits="userSpaceOnUse"><stop offset="0" stop-color="#ff6a59"/><stop offset="1" stop-color="#fff" stop-opacity="0"/></linearGradient><linearGradient id="linear-gradient-2" x1="89.4" y1="112.66" x2="88.87" y2="119.59" xlink:href="#linear-gradient"/><linearGradient id="linear-gradient-3" x1="99.87" y1="90.2" x2="93.78" y2="86.52" gradientUnits="userSpaceOnUse"><stop offset="0" stop-color="#5f0030"/><stop offset="1" stop-color="#c7776e"/></linearGradient><linearGradient id="linear-gradient-4" x1="80.39" y1="89.13" x2="76.31" y2="86.68" xlink:href="#linear-gradient-3"/></defs><g class="cls-2"><g id="Слой_2" data-name="Слой 2"><g id="Layer_1" data-name="Layer 1"><circle class="cls-3" cx="109.08" cy="109.08" r="109.08" transform="translate(-45.18 109.08) rotate(-45)"/><g class="cls-4"><path class="cls-5" d="M130.06,152.67H101.38l-55.19,22L33.45,215.3l88.77,18.49c21-6.16,63.29-27.12,63.29-27.12L181,173Z"/><path class="cls-5" d="M128.73,144.31a68.88,68.88,0,0,0-13.32.41,23.24,23.24,0,0,0-12,5.31,7.24,7.24,0,0,0-2,2.64c-2.2,5.75,7.11,3.44,9.63,2.56a84,84,0,0,0,18.16-9c.5-.33,1.06-.86.83-1.41S129.22,144.32,128.73,144.31Z"/><path class="cls-6" d="M117.6,145.09c-4.42-3.27-10.48-1.3-14.6,1.76-2.86,2.12-4.85,5.82-3.88,9.25l18.26-9.39c.35-.18.74-.43.76-.81S117.87,145.29,117.6,145.09Z"/><path class="cls-7" d="M132.48,115.07l-31,.63s9.65,20.24.78,38.64c-1.6,3.33,33,2.6,31.06-.63C125.74,141.44,132.48,115.07,132.48,115.07Z"/><path class="cls-8" d="M132.48,115.07l-31,.63s9.65,20.24.78,38.64c-1.6,3.33,33,2.6,31.06-.63C125.74,141.44,132.48,115.07,132.48,115.07Z"/><path class="cls-7" d="M132.79,74.48c-3.76-18.93-13.94-31-28.06-31-12.23,0-20.88,9-25.18,23.75A65.58,65.58,0,0,0,78,74a86.77,86.77,0,0,0-1.16,8.84q-.35,4.23-.35,8.79c0,.89,0,1.78,0,2.66-.2,14.17-1.93,26.57-1.09,35.19.78,7.95,3.75,12.71,12.13,12.71,9.31,0,26.24-.46,36.31-9.79,5-4.6,7.64-11.82,9.06-19.64a120,120,0,0,0,1.55-21.13,91.85,91.85,0,0,0-1-13.52C133.23,76.9,133,75.67,132.79,74.48Z"/><path class="cls-9" d="M108.34,86.67a30.55,30.55,0,0,0-7.07-3.7c-2-.76-5.6-2.22-7.82-1.77S92,85.62,92,87.24c0,3.15,0,6.31.3,9.45A34.2,34.2,0,0,0,107,95.1c2-.66,4.12-1.86,4.33-3.91C111.48,89.31,109.89,87.76,108.34,86.67Z"/><g class="cls-10"><path class="cls-11" d="M132.76,82.27a18.37,18.37,0,0,0-4.46,6c-3.33,7.09-1.92,14.77,3.16,17.15a7.31,7.31,0,0,0,2.32.65,51.61,51.61,0,0,0,.76-11.1A61.82,61.82,0,0,0,132.76,82.27Z"/></g><path class="cls-12" d="M94,108.33a20.54,20.54,0,0,0-5,.19c-2,.23-14.2.81-9.76,6.5,1.6,2,5.56,1.12,7.64,1.07l9.64-.22a3.57,3.57,0,0,0,2.6-.77c1.17-1.19.55-3.47-.64-4.69A7.41,7.41,0,0,0,94,108.33Z"/><path class="cls-7" d="M94.69,108.45a20,20,0,0,0-5-.23c-2,.07-14.23-.39-10.28,5.94,1.43,2.28,5.46,1.65,7.54,1.78l9.63.6a3.46,3.46,0,0,0,2.66-.57c1.26-1.14.83-3.58-.25-5A7.43,7.43,0,0,0,94.69,108.45Z"/><path class="cls-13" d="M94.69,108.45a20,20,0,0,0-5-.23c-2,.07-14.23-.39-10.28,5.94,1.43,2.28,5.46,1.65,7.54,1.78l9.63.6a3.46,3.46,0,0,0,2.66-.57c1.26-1.14.83-3.58-.25-5A7.43,7.43,0,0,0,94.69,108.45Z"/><path class="cls-7" d="M141,78c-5.07-2.38-11.88,1.43-15.21,8.52s-1.92,14.76,3.15,17.14,11.88-1.43,15.21-8.52S146,80.38,141,78Z"/><g class="cls-10"><path class="cls-14" d="M139,84.94c-2.18-1-5,.25-6.79,2.89,2.42,1.25,3.08,5,1.45,8.46a9.57,9.57,0,0,1-.76,1.33l.1.07c2.52,1.19,5.91-.71,7.56-4.23S141.48,86.12,139,84.94Z"/></g><path class="cls-9" d="M82.17,85.12c-.11-1.22.19-2.9-1.27-3.15a5.94,5.94,0,0,0-4.11.91c-.07.84-.13,1.69-.17,2.55q-.18,3-.18,6.24c0,.3,0,.6,0,.89,0,.59,0,1.18,0,1.77a7,7,0,0,0,1.77.88,18.29,18.29,0,0,0,4.17.71q.15-2.88.09-5.76C82.41,88.48,82.32,86.79,82.17,85.12Z"/><g class="cls-10"><path class="cls-14" d="M88.37,100.53a2.7,2.7,0,0,1-.89,0,11.46,11.46,0,0,1-1.8-.34,3.12,3.12,0,0,1-2.35-1.9,2.35,2.35,0,0,1,.76-2.49c.7-.74,1.68-1.37,2.48-2.25A6.12,6.12,0,0,0,88,90.46a17.86,17.86,0,0,0,.18-3.17A31.09,31.09,0,0,0,87.49,81c0,2.09-.09,4.17-.26,6.23S87,91.41,85.6,92.9c-.65.76-1.63,1.39-2.42,2.27a3,3,0,0,0-.72,3.3,3.55,3.55,0,0,0,1.23,1.45,4.94,4.94,0,0,0,1.86.72,12.53,12.53,0,0,0,1.92.12,2.86,2.86,0,0,0,1-.08,1,1,0,0,0,.39-.24.25.25,0,0,0,0-.38C89,100.34,88.62,100.49,88.37,100.53Z"/></g><path class="cls-15" d="M109.36,87.53l1.12.15a9.37,9.37,0,0,1-1.94-2.18,1,1,0,0,0,.73,0A15.56,15.56,0,0,0,106.75,83l.79.4a17.17,17.17,0,0,0-3.92-3l1.58.17a9.08,9.08,0,0,0-3.32-1.34c.34-.22.67-.45,1-.68a22.8,22.8,0,0,0-4.37-.15c.21-.41.42-.83.64-1.24a4.22,4.22,0,0,0-3.36-.06c1.8-2.41-1.81-1.34-1.79-.72,0-.84,0-1.68-.07-2.52a27.83,27.83,0,0,0-1.24,3.25,10,10,0,0,0-1.44-2.87c.38,2.81.76,5.62.89,8.45l.09-.22c3.09-1.08,6.45.17,9.48,1.4a34,34,0,0,1,5.79,2.8,11.5,11.5,0,0,1,4.28,4.69A5.68,5.68,0,0,0,109.36,87.53Z"/><path class="cls-15" d="M81.92,74.18a10.18,10.18,0,0,0-1.09,3,26.4,26.4,0,0,0-1.62-3.07c.07.82.15,1.65.24,2.48-.12-.6-3.76-1.2-1.69.95a4.49,4.49,0,0,0-2.67.13l1.51,5.4a9.18,9.18,0,0,1,5.33-.64l.13.22C81.85,79.85,81.88,77,81.92,74.18Z"/><path class="cls-5" d="M82.77,34.26l-.58,5-3.5,29.89s3.88,2.31,20,4.07c2.2.23,4.64.46,7.32.67,6.9.54,27.46,1.66,27.46,1.66l3.5-29.89L138.41,33l-54.74-6.4Z"/><path class="cls-5" d="M114.36,12C96.63,10.32,81,13.18,73.78,18.69c-2.49,1.9-4,4.11-4.21,6.56-.47,5,4.43,10,12.62,14a61.94,61.94,0,0,0,6.46,2.65,95.69,95.69,0,0,0,22.46,4.71,92.44,92.44,0,0,0,25.82-1c11-2.15,18.43-6.58,19-12.31C156.8,23.78,138.2,14.22,114.36,12Z"/><path class="cls-7" d="M90.92,83a6.36,6.36,0,0,0-1.73-3c-.32-.27-1.53-1-1.87-.49-.14.23.06.8.1,1,.06.44.12.89.17,1.33a34.92,34.92,0,0,1,.12,5.41,16.14,16.14,0,0,1-.64,3.91,7.87,7.87,0,0,1-2,3.38c-.5.47-1.07.86-1.55,1.35a2.62,2.62,0,0,0-.83,1.81,2.52,2.52,0,0,0,.9,1.72,5.28,5.28,0,0,0,3.63,1.29,9,9,0,0,0,3.79-1,3.33,3.33,0,0,0,1.54-1.25,4.16,4.16,0,0,0,0-2.83C91.76,91.47,92.2,87.06,90.92,83Z"/><path class="cls-11" d="M88.65,41.89a15.92,15.92,0,0,1,5.57-2c4.27-.75,8.7-.32,13-1.19A166.5,166.5,0,0,1,86,35.13c-1.08-.26-2.17-.53-3.24-.87a16,16,0,0,1-6.39-3.36,11.32,11.32,0,0,1-3.22-10.35c.08-.37.47-1.2.62-1.86-2.49,1.9-4,4.11-4.21,6.56-.47,5,4.43,10,12.62,14l-3.5,29.89s3.88,2.31,20,4.07a22.23,22.23,0,0,0-4.93-2.33c-2.13-.66-4.48-.89-6.23-2.26a8.54,8.54,0,0,1-2.78-6c-.22-2.26,0-4.54-.11-6.8-.2-2.88-1-5.81-.28-8.59A9.22,9.22,0,0,1,88.65,41.89Z"/><path class="cls-15" d="M133.37,74.6l-.58-.12L120,71.86c-6.87-1.41-13.83-2.82-20.85-2.65-2.58.06-5.17.31-7.76.23s-4.9-1-7.48-1.54c-1.44-.32-2.9-.41-4.36-.65-.35-.06-.71-.13-1.06-.21-1.95-.46-4.61-1.14-6.1.71s0,4.82,2.19,5.75A8,8,0,0,0,78,74c1.22,0,2.46-.2,3.67-.34,10.58-1.29,21.26.82,31.71,2.92,2.38.48,4.91,1,6.56,2.82s2,4.56,2.17,7.08a85.61,85.61,0,0,1-2.64,25.94c-1.45,5.56-3.63,11.22-8,15s-9.87,5.16-15.35,6.24c-4.58.91-8.37-8-12.53-10.17-1.53-.78-4.07,7.72-5.58,6.9a8.12,8.12,0,0,0-2.69-.93c.78,7.95,3.75,12.71,12.13,12.71,9.31,0,26.24-.46,36.31-9.79,5-4.6,7.64-11.82,9.06-19.64a2,2,0,0,0-.66-.68c-1-.64-2.3-.33-3.45-.61a4.62,4.62,0,0,1-3.08-3.23,13.64,13.64,0,0,1-.35-4.64q.31-7.86.64-15.71a17.62,17.62,0,0,1,.74-5.27,6,6,0,0,1,3.49-3.8c1.06-.36,2.23-.32,3.27-.71l.25-.1c1.1-.51,1.87-2.07,1-2.91A2.6,2.6,0,0,0,133.37,74.6Z"/><path class="cls-15" d="M98.36,106.07c-3.38-1.78-7.12-3.14-10.93-2.92s-7,1.91-10,4c-.87.59-3.56,2-3.63,3.18-.08,1.53,2.57.43,3.61.25a2.8,2.8,0,0,0,0,3.08l4.28-3.48,1.38,3.17,3.06-2.54L90.48,114c.14-.69.28-1.38.43-2.08a8.2,8.2,0,0,0,6.49,2.72L97,112.75a17.47,17.47,0,0,0,12.16,2.37A29.13,29.13,0,0,0,98.36,106.07Z"/><path class="cls-5" d="M97.52,85.76A27.72,27.72,0,0,0,94,85.6,18.32,18.32,0,0,0,94,93.9,23.72,23.72,0,0,0,97,93.75a24.69,24.69,0,0,0,6-1.43,30.23,30.23,0,0,0,5.61-2.79,24.67,24.67,0,0,0-5-2.44A27,27,0,0,0,97.52,85.76Z"/><path class="cls-5" d="M81.17,85.06a6.06,6.06,0,0,0-4.55.37q-.18,3-.18,6.24c0,.3,0,.6,0,.89a18.5,18.5,0,0,0,5.09.83c0-.43,0-.86.07-1.29a37.25,37.25,0,0,0-.33-6.42Z"/><path class="cls-16" d="M103.57,87.09a27,27,0,0,0-6-1.33,8.33,8.33,0,0,0-2.92,2c0,.1-.07.21-.1.31h0c.44.14,1.83,1.16,2.25,1-.85.27-1.69.59-2.51.93,0,.1,0,.2,0,.31A4.62,4.62,0,0,0,97,93.75a24.69,24.69,0,0,0,6-1.43,4.78,4.78,0,0,0,1-3.85A4.52,4.52,0,0,0,103.57,87.09Z"/><path class="cls-17" d="M79.36,85.9a6,6,0,0,0-2.51,1.61c0,.07,0,.15-.08.23h0c.33.11,1.37.88,1.69.77-.64.21-1.27.45-1.89.71,0,.07,0,.15,0,.23a3.59,3.59,0,0,0,4.29,2.83,3.93,3.93,0,0,0,.67-.19,37.25,37.25,0,0,0-.33-6.42A5.16,5.16,0,0,0,79.36,85.9Z"/><path class="cls-5" d="M122.39,147.22c-2.84.11-6,.21-8.09,2.08-1.57,1.37-2.36,3.51-4,4.74a6.31,6.31,0,0,1-3.52,1.12c-1.11.05-2.85-.71-3.85-.44-3.57.94,2,3.34,3.16,3.68a53.05,53.05,0,0,0,32.14-1,37.42,37.42,0,0,0-8-12.83C128.39,146.73,125.23,147.11,122.39,147.22Z"/><path class="cls-11" d="M80.21,164l-3.49,1.91A31.48,31.48,0,0,0,73.2,168a8.4,8.4,0,0,0-2.79,3.43,14.09,14.09,0,0,0-1,4.12c-.24,2.68-.43,5.32-.48,8a99.46,99.46,0,0,0,.82,15.91c.12-5.31.32-10.58.74-15.83.23-2.62.45-5.26.8-7.84a12.92,12.92,0,0,1,.91-3.56,6.45,6.45,0,0,1,2.2-2.62,31.92,31.92,0,0,1,3.27-2l3.45-2,6.9-3.91c4.61-2.56,9.28-5,14.1-7.23a93,93,0,0,0-14.82,5.85C84.9,161.51,82.56,162.77,80.21,164Z"/><circle class="cls-15" cx="74.96" cy="177.02" r="2.09"/><path class="cls-15" d="M74,186.64A2.09,2.09,0,1,0,76,188.73,2.08,2.08,0,0,0,74,186.64Z"/><path class="cls-15" d="M72.94,198.34A2.09,2.09,0,1,0,75,200.43,2.09,2.09,0,0,0,72.94,198.34Z"/><path class="cls-15" d="M73.93,210.05A2.09,2.09,0,1,0,76,212.14,2.1,2.1,0,0,0,73.93,210.05Z"/><path class="cls-15" d="M121,176a2.1,2.1,0,1,0,2.09,2.09A2.09,2.09,0,0,0,121,176Z"/><path class="cls-15" d="M120,187.71A2.09,2.09,0,1,0,122,189.8,2.09,2.09,0,0,0,120,187.71Z"/><path class="cls-15" d="M118.94,199.42a2.09,2.09,0,1,0,2.09,2.09A2.09,2.09,0,0,0,118.94,199.42Z"/><path class="cls-15" d="M119.93,211.13a2.09,2.09,0,1,0,2.09,2.09A2.08,2.08,0,0,0,119.93,211.13Z"/><path class="cls-6" d="M136.75,146.82c-1.39-1.3-3.26-3.91-5-4.67-2.23-1-2.24.25-4.19,1.6-2.77,1.93-6.34,2.41-9.54,3.17a42.37,42.37,0,0,0-17.22,8.59,57,57,0,0,0,28.79,4,15,15,0,0,0,7.31-2.4c2.07-1.55,3.41-4.36,2.53-6.8A9.47,9.47,0,0,0,136.75,146.82Z"/><path class="cls-6" d="M101.49,154.64a21.06,21.06,0,0,0-8.38,8.76c-2.13,4.19-2.44,9.48,0,13.48a27.87,27.87,0,0,1,5.63-9.2c2-2.15,4.34-4,5.72-6.62C106.06,158.11,106,152.35,101.49,154.64Z"/><path class="cls-6" d="M103,150.15A21,21,0,0,0,91,151.41c-4.33,1.82-8,5.66-8.69,10.31a28,28,0,0,1,10.25-3.38c2.9-.36,5.92-.28,8.64-1.35C104.27,155.75,107.94,151.32,103,150.15Z"/></g></g></g></g></svg>