<svg xmlns="http://www.w3.org/2000/svg" xmlns:xlink="http://www.w3.org/1999/xlink" viewBox="0 0 218.16 227.03"><defs><style>.cls-1{fill:none;}.cls-2{isolation:isolate;}.cls-3{fill:#fae4d9;}.cls-4{clip-path:url(#clip-path);}.cls-5{fill:#fbaea6;}.cls-6{fill:url(#linear-gradient);}.cls-7{fill:#fb968b;}.cls-11,.cls-8{mix-blend-mode:color-burn;}.cls-11,.cls-9{fill:#e8e8e8;}.cls-10{fill:#919191;}.cls-12{fill:#c7776e;}.cls-13{fill:#fff;}.cls-14{fill:url(#linear-gradient-2);}.cls-15{fill:url(#linear-gradient-3);}.cls-16{fill:url(#linear-gradient-4);}.cls-17{fill:#000446;}</style><clipPath id="clip-path"><circle class="cls-1" cx="109.08" cy="109.08" r="109.08"/></clipPath><linearGradient id="linear-gradient" x1="108.63" y1="120.03" x2="107.57" y2="151.92" gradientUnits="userSpaceOnUse"><stop offset="0" stop-color="#ff6a59"/><stop offset="1" stop-color="#fff" stop-opacity="0"/></linearGradient><linearGradient id="linear-gradient-2" x1="103.67" y1="94.94" x2="108.86" y2="72.26" xlink:href="#linear-gradient"/><linearGradient id="linear-gradient-3" x1="123.47" y1="65.63" x2="128.64" y2="75.91" gradientUnits="userSpaceOnUse"><stop offset="0" stop-color="#2ebac4"/><stop offset="0.19" stop-color="#3099b0"/><stop offset="0.39" stop-color="#317d9f"/><stop offset="0.59" stop-color="#326a94"/><stop offset="0.79" stop-color="#335e8c"/><stop offset="1" stop-color="#335a8a"/></linearGradient><linearGradient id="linear-gradient-4" x1="89.68" y1="64.16" x2="94.71" y2="75.85" xlink:href="#linear-gradient-3"/></defs><g class="cls-2"><g id="Слой_2" data-name="Слой 2"><g id="Layer_1" data-name="Layer 1"><circle class="cls-3" cx="109.08" cy="109.08" r="109.08" transform="translate(-45.18 109.08) rotate(-45)"/><g class="cls-4"><path class="cls-5" d="M85.84,114.11c8.46,28.13,0,50.32,0,50.32h44.4s-6.23-27,0-50.32C132.23,106.63,83.61,106.67,85.84,114.11Z"/><path class="cls-6" d="M85.84,114.11c8.46,28.13,0,50.32,0,50.32h44.4s-6.23-27,0-50.32C132.23,106.63,83.61,106.67,85.84,114.11Z"/><path class="cls-7" d="M108,44.25c-9.22,0-31.15,7.45-35.28,26.36A54,54,0,0,0,71.5,82.26a47.78,47.78,0,0,0,1,9.73c.1.52.22,1,.35,1.55C76,106.79,84.57,117.64,94.63,123c.55.3,1.11.58,1.67.84a7.39,7.39,0,0,0,5,.45,27.08,27.08,0,0,1,6.1-1.09c2.32,0,3.76.94,5.28,1.41a4.86,4.86,0,0,0,3.61-.16c.85-.35,1.69-.73,2.52-1.16,9.68-4.89,18.28-14.67,22.21-26.81a46.43,46.43,0,0,0,1.24-4.6,45.72,45.72,0,0,0,1-9.65,54.1,54.1,0,0,0-1.14-11.14C138.15,52,116.73,44.25,108,44.25Z"/><g class="cls-8"><path class="cls-9" d="M138.05,76.23c-3.13,6.06-2.15,12.8,2.19,15a6.55,6.55,0,0,0,2,.64,45.72,45.72,0,0,0,1-9.65,54.1,54.1,0,0,0-1.14-11.14A16.05,16.05,0,0,0,138.05,76.23Z"/></g><path class="cls-7" d="M149.42,67.67c-4.34-2.24-10.39.86-13.52,6.92s-2.16,12.8,2.18,15,10.39-.85,13.53-6.92S153.76,69.92,149.42,67.67Z"/><g class="cls-8"><path class="cls-10" d="M147.45,73.65c-1.86-1-4.36.06-6,2.3,2.07,1.17,2.53,4.45,1,7.41a8.12,8.12,0,0,1-.71,1.14l.09.07c2.16,1.11,5.17-.43,6.73-3.44S149.61,74.76,147.45,73.65Z"/></g><g class="cls-8"><path class="cls-9" d="M72.75,70.61A54,54,0,0,0,71.5,82.26a47.78,47.78,0,0,0,1,9.73,6.71,6.71,0,0,0,2.84-.72c4.33-2.24,5.31-9,2.18-15A15.74,15.74,0,0,0,72.75,70.61Z"/></g><path class="cls-7" d="M65.35,67.67c-4.34,2.25-5.31,9-2.18,15s9.19,9.16,13.53,6.92,5.31-9,2.18-15S69.69,65.43,65.35,67.67Z"/><g class="cls-8"><path class="cls-10" d="M73.34,76c-1.65-2.24-4.15-3.26-6-2.3-2.16,1.11-2.65,4.46-1.09,7.48s4.57,4.55,6.73,3.44l.09-.07a9.21,9.21,0,0,1-.72-1.14C70.81,80.4,71.27,77.12,73.34,76Z"/></g><path class="cls-11" d="M110.76,118a5,5,0,0,0-3.81-2.59,5,5,0,0,0-4.56,3.25,13.84,13.84,0,0,0-1.1,5.7,27.08,27.08,0,0,1,6.1-1.09c2.32,0,3.76.94,5.28,1.41a19.79,19.79,0,0,0-.39-2.15A14.26,14.26,0,0,0,110.76,118Z"/><path class="cls-11" d="M124.08,59.15c-5.77,0-4.79,1.69-4.79,7.8s-.46,12.41,5.31,12.41,10.45-5,10.45-11.06C130.29,60.74,129.85,59.15,124.08,59.15Z"/><path class="cls-11" d="M92.79,58.2c-5.77,0-6.22,1.59-11,9.15,0,6.11,4.68,11.06,10.44,11.06S97.57,72.1,97.57,66,98.56,58.2,92.79,58.2Z"/><path class="cls-12" d="M133.12,65.29l.89.12a7.32,7.32,0,0,1-1.54-1.74.83.83,0,0,0,.58,0,11.77,11.77,0,0,0-2-2l.63.32a13.78,13.78,0,0,0-3.12-2.41l1.26.14a7.25,7.25,0,0,0-2.64-1.07l.79-.54a18.39,18.39,0,0,0-3.48-.12l.51-1a3.42,3.42,0,0,0-2.68-.05c1.44-1.92-1.43-1.06-1.42-.57,0-.67,0-1.33,0-2a19.75,19.75,0,0,0-1,2.59,7.58,7.58,0,0,0-1.15-2.29c.3,2.23.61,4.47.71,6.73l.08-.18c2.45-.86,5.13.14,7.54,1.12a26.84,26.84,0,0,1,4.61,2.23,9.07,9.07,0,0,1,3.41,3.73A4.51,4.51,0,0,0,133.12,65.29Z"/><path class="cls-12" d="M96,53.57l-.06,2c0-.5-2.85-1.35-1.42.57a3.35,3.35,0,0,0-2.67.05c.16.33.33.65.5,1a17.5,17.5,0,0,0-3.47.13l.79.54a7.16,7.16,0,0,0-2.64,1.06l1.26-.13a13.79,13.79,0,0,0-3.13,2.4l.64-.32a12.21,12.21,0,0,0-2,2,.86.86,0,0,0,.59,0,7.54,7.54,0,0,1-1.55,1.74l.9-.13a4.56,4.56,0,0,0-1.93,3,9.1,9.1,0,0,1,3.41-3.74,27.23,27.23,0,0,1,4.61-2.23c2.41-1,5.08-2,7.54-1.12l.07.18c.11-2.25.41-4.49.72-6.73A7.7,7.7,0,0,0,97,56.16,23.82,23.82,0,0,0,96,53.57Z"/><path class="cls-13" d="M102.88,101.28c-8-.93-9.37-2.81-9.37-2.81,2.06,8.43,8.43,12.73,14.55,11.8s12-13.64,12-13.64S110.92,102.22,102.88,101.28Z"/><path class="cls-12" d="M131.15,97.85c-4.67-2.21-8.41-5.56-12.9-8-4.79-2.62-9.32-2.29-14.55-3.41-4.93-1.05-8.06-.13-11.88,2.81-4.36,3.34-8.4,7.13-13.7,9.37s-12.4,2.49-16.64-1c2.7,4,7.8,6.79,13.25,7.79a36.25,36.25,0,0,0,16.46-1.15c4.59-1.33,9-3.37,13.91-3.39,6.56,0,12.24,3.57,18.45,5.33,10.64,3,23.34,0,30.53-7.13A31.62,31.62,0,0,1,131.15,97.85Z"/><path class="cls-7" d="M114.06,82.2a9.34,9.34,0,0,0-1.52-9c-.94-1.14-1.1-2.91-2-4.1a3.42,3.42,0,0,0-3.87-1.38c-2.14.91-2.09,4.12-3.71,5.78-.17,3.22-.48,6.78-2.79,9-1.08,1-2.5,1.7-3.68,2.64s-2.19,2.39-1.9,3.87c.4,2.08,2.89,2.89,5,3.31l9.91,2a8.45,8.45,0,0,0,3,.24,2.9,2.9,0,0,0,2.32-1.65c.79-2-1.71-3.89-2-6.06C112.48,85.25,113.49,83.74,114.06,82.2Z"/><path class="cls-14" d="M114.06,82.2a9.34,9.34,0,0,0-1.52-9c-.94-1.14-1.1-2.91-2-4.1a3.42,3.42,0,0,0-3.87-1.38c-2.14.91-2.09,4.12-3.71,5.78-.17,3.22-.48,6.78-2.79,9-1.08,1-2.5,1.7-3.68,2.64s-2.19,2.39-1.9,3.87c.4,2.08,2.89,2.89,5,3.31l9.91,2a8.45,8.45,0,0,0,3,.24,2.9,2.9,0,0,0,2.32-1.65c.79-2-1.71-3.89-2-6.06C112.48,85.25,113.49,83.74,114.06,82.2Z"/><path class="cls-13" d="M128.16,66.21a7,7,0,0,0-1.5-1.65A3.52,3.52,0,0,0,124,63.7a2.1,2.1,0,0,0-1.34.86,11.15,11.15,0,0,0-2,6,3.55,3.55,0,0,0,.28,1.88,1.72,1.72,0,0,0,1.91.68l.21,0a15.72,15.72,0,0,1,4.64-.17,7.05,7.05,0,0,1,4.1,2c-.92-1.58-1.43-4.25-2.18-6A16.69,16.69,0,0,0,128.16,66.21Z"/><path class="cls-15" d="M126.66,64.56A3.52,3.52,0,0,0,124,63.7l.23,1.14.36,1.83-1.1-1.1L123,65a10.22,10.22,0,0,0-.83,3.83,10,10,0,0,0,.71,4.29l.21,0a15.72,15.72,0,0,1,4.64-.17,10.37,10.37,0,0,0,.76-3.66,11,11,0,0,0-.3-3.07A7,7,0,0,0,126.66,64.56Z"/><path class="cls-13" d="M94,63.77a2.05,2.05,0,0,0-1.34-.86,3.46,3.46,0,0,0-2.61.85,7.07,7.07,0,0,0-1.51,1.65,17.07,17.07,0,0,0-1.45,2.75c-.76,1.74-1.26,4.42-2.18,6a7,7,0,0,1,4.09-2,15.71,15.71,0,0,1,4.64.18l.22,0a1.73,1.73,0,0,0,1.9-.69,3.61,3.61,0,0,0,.29-1.88A11,11,0,0,0,94,63.77Z"/><path class="cls-16" d="M93.22,64.77l-1.1,1.1L92.48,64l.22-1.13a3.46,3.46,0,0,0-2.61.85,7.07,7.07,0,0,0-1.51,1.65,11.49,11.49,0,0,0-.29,3.07A10.16,10.16,0,0,0,89,72.14a15.71,15.71,0,0,1,4.64.18l.22,0a11,11,0,0,0-.12-8.13Z"/><path class="cls-13" d="M124.65,146.91l-32.5.05c-6,0-8.09-1.79-8.09,4.25v5.29a11,11,0,0,0,11,11h27.15a11,11,0,0,0,11-11v-5.29C133.17,145.17,130.68,146.91,124.65,146.91Z"/><path class="cls-13" d="M140.82,162.17l-.82-.24-8.95-2.67-18.16-5.41H105l-20.77,5.5-5.49,1.46-1.85.49-29.7,7.87-30.92,8.2a156,156,0,0,0,27.7,25.8c13.71,10.05,31.79,19.89,52.65,22.91a89,89,0,0,0,10.93.92q2,.06,4.08,0c.44,0,.87,0,1.3,0,2.51-.1,5-.28,7.39-.54,21.77-2.34,39.53-11.06,52.77-20.34C191,193.53,200.6,180,200.6,180l-30.32-9Z"/><path class="cls-9" d="M110,161.75c-5.22.61-10.47,1.23-15.7.67a26.8,26.8,0,0,1-9.7-2.83l-.37-.24-5.49,1.46c.85,2.05,2.12,8.21,3,8.68,9.7,4.93,16.48,7.13,18.49,17.81,1.4,7.47.4,15.2,1.51,22.71a57.5,57.5,0,0,0,5.77,17h4.08c-1.5-7.28-3.37-14.51-4.14-21.9-1.14-11-2.62-30.5,8.42-30.91,15.9-.6,19.65-6.27,25-12l-9.78-2.91Z"/><polygon class="cls-17" points="86.4 152.13 86.4 168.6 108.26 165.11 130.12 168.6 130.12 152.13 108.12 163.92 86.4 152.13"/><rect class="cls-17" x="104.59" y="160.25" width="6.58" height="6.69"/><path class="cls-17" d="M107.18,169.84a2.59,2.59,0,1,0,2.58,2.59A2.59,2.59,0,0,0,107.18,169.84Z"/><path class="cls-17" d="M107.18,187.85a2.59,2.59,0,1,0,2.58,2.59A2.59,2.59,0,0,0,107.18,187.85Z"/><path class="cls-17" d="M107.18,205.86a2.59,2.59,0,1,0,2.58,2.59A2.59,2.59,0,0,0,107.18,205.86Z"/><path class="cls-13" d="M91.19,22.67l-.48,4L87.77,50.8s3.26,1.86,16.76,3.28q2.76.29,6.14.54c5.8.44,23.06,1.34,23.06,1.34l2.94-24.11,1.24-10.18L92,16.5Z"/><path class="cls-13" d="M117.72,4.69c-14.89-1.34-28,1-34.07,5.42-2.1,1.53-3.35,3.31-3.54,5.29-.39,4,3.72,8.09,10.6,11.28a51,51,0,0,0,5.42,2.14A82.84,82.84,0,0,0,115,32.62a80.75,80.75,0,0,0,21.68-.77c9.23-1.74,15.47-5.31,15.92-9.93C153.35,14.21,137.73,6.5,117.72,4.69Z"/><path class="cls-9" d="M96.13,28.82a13.61,13.61,0,0,1,4.68-1.64c3.58-.61,7.3-.26,10.87-1a146.08,146.08,0,0,1-17.77-2.85c-.9-.21-1.82-.43-2.72-.7A13.67,13.67,0,0,1,85.83,20a8.92,8.92,0,0,1-2.71-8.35c.07-.3.4-1,.53-1.5-2.1,1.53-3.35,3.31-3.54,5.29-.39,4,3.72,8.09,10.6,11.28L87.77,50.8s3.26,1.86,16.76,3.28a19.57,19.57,0,0,0-4.14-1.88c-1.79-.53-3.76-.72-5.23-1.82a6.79,6.79,0,0,1-2.34-4.85c-.18-1.82,0-3.66-.09-5.49-.17-2.32-.87-4.68-.23-6.93A7.49,7.49,0,0,1,96.13,28.82Z"/></g></g></g></g></svg>