<svg xmlns="http://www.w3.org/2000/svg" xmlns:xlink="http://www.w3.org/1999/xlink" viewBox="0 0 218.16 236.7"><defs><style>.cls-1{fill:none;}.cls-2{isolation:isolate;}.cls-3{fill:#fae4d9;}.cls-4{clip-path:url(#clip-path);}.cls-5{fill:#000446;}.cls-6{fill:#fbaea6;}.cls-7{fill:url(#linear-gradient);}.cls-8{fill:#c7776e;}.cls-13,.cls-9{mix-blend-mode:color-burn;}.cls-10{fill:#e8e8e8;}.cls-11,.cls-13{fill:#919191;}.cls-12{fill:#fff;}.cls-14{fill:url(#linear-gradient-2);}.cls-15{fill:url(#linear-gradient-3);}</style><clipPath id="clip-path"><circle class="cls-1" cx="109.08" cy="109.08" r="109.08" transform="translate(-45.18 109.08) rotate(-45)"/></clipPath><linearGradient id="linear-gradient" x1="110.44" y1="143.12" x2="109.31" y2="177.05" gradientUnits="userSpaceOnUse"><stop offset="0" stop-color="#ff6a59"/><stop offset="1" stop-color="#fff" stop-opacity="0"/></linearGradient><linearGradient id="linear-gradient-2" x1="95.22" y1="103.76" x2="84.41" y2="117.42" gradientUnits="userSpaceOnUse"><stop offset="0" stop-color="#2ebac4"/><stop offset="0.19" stop-color="#3099b0"/><stop offset="0.39" stop-color="#317d9f"/><stop offset="0.59" stop-color="#326a94"/><stop offset="0.79" stop-color="#335e8c"/><stop offset="1" stop-color="#335a8a"/></linearGradient><linearGradient id="linear-gradient-3" x1="121.65" y1="103.62" x2="110.39" y2="117.85" xlink:href="#linear-gradient-2"/></defs><g class="cls-2"><g id="Слой_2" data-name="Слой 2"><g id="Layer_1" data-name="Layer 1"><circle class="cls-3" cx="109.08" cy="109.08" r="109.08" transform="translate(-45.18 109.08) rotate(-45)"/><g class="cls-4"><path class="cls-5" d="M109.69,155.82c-11.78,0-21.33,2.57-21.33,5.74s9.55,5.74,21.33,5.74S131,164.73,131,161.56,121.48,155.82,109.69,155.82Z"/><path class="cls-6" d="M93.55,136.82c6.19,30.06,0,53.77,0,53.77H126s-4.55-28.83,0-53.77C127.48,128.83,91.91,128.87,93.55,136.82Z"/><path class="cls-7" d="M93.55,136.82c6.19,30.06,0,53.77,0,53.77H126s-4.55-28.83,0-53.77C127.48,128.83,91.91,128.87,93.55,136.82Z"/><path class="cls-8" d="M135.22,73.75a36.35,36.35,0,0,0-52.3-.47A44,44,0,0,0,70.17,100a39.56,39.56,0,0,1,5-.54c1.23-.06,2.44-.08,3.66-.08,1.81,0,3.62,0,5.38.06,6.77,0,13.26-.44,20,.48,13.3,1.79,26.94,1.56,40.32.88l3-.16A45,45,0,0,0,140.9,80.9,41.72,41.72,0,0,0,135.22,73.75Z"/><path class="cls-6" d="M135.1,79.43A37.17,37.17,0,0,0,71.64,105.7v9.42q0,1.69.15,3.36a37.19,37.19,0,0,0,74.08,0c.11-1.12.16-2.25.16-3.39V105.7a36.73,36.73,0,0,0-.65-6.92A37.16,37.16,0,0,0,135.1,79.43Z"/><path class="cls-8" d="M131.25,73.31c-7.78-6.14-18.4-8.17-28.13-6.29S84.58,74.46,77.9,81.79c-2.59,2.85-5.35,6.93-5.68,10.77-.19,2.21,2.21,8.6,5.7,7.56,1.16-.35,2.54-3.76,3.3-4.76a36.3,36.3,0,0,1,4.26-4.75,37,37,0,0,1,55.71,5A6.77,6.77,0,0,0,144,98.36c1.25.47,3-.32,3-1.66C143,88.11,138.69,79.2,131.25,73.31Z"/><g class="cls-9"><path class="cls-10" d="M137.74,104.07A9.91,9.91,0,0,0,142,117.43a9.79,9.79,0,0,0,3.88,1.08c.11-1.12.16-2.25.16-3.39V105.7a36.73,36.73,0,0,0-.65-6.92A9.89,9.89,0,0,0,137.74,104.07Z"/></g><path class="cls-6" d="M150.07,96.93a9.91,9.91,0,1,0,4.26,13.36A9.91,9.91,0,0,0,150.07,96.93Z"/><g class="cls-9"><path class="cls-11" d="M148.77,101.87a4.93,4.93,0,0,0-6,1.22,4.91,4.91,0,0,1,2,6.57,5,5,0,0,1-.6.9.6.6,0,0,0,.11.06,4.92,4.92,0,0,0,4.52-8.75Z"/></g><g class="cls-9"><path class="cls-10" d="M72.28,98.84a36.93,36.93,0,0,0-.64,6.86v9.42q0,1.69.15,3.36a9.91,9.91,0,0,0,.49-19.64Z"/></g><path class="cls-6" d="M67.18,96.93a9.91,9.91,0,1,0,13.36,4.26A9.91,9.91,0,0,0,67.18,96.93Z"/><g class="cls-9"><path class="cls-11" d="M68.48,101.87A4.93,4.93,0,1,0,73,110.62a.33.33,0,0,0,.1-.06,5.64,5.64,0,0,1-.6-.9,4.92,4.92,0,0,1,2-6.57A4.93,4.93,0,0,0,68.48,101.87Z"/></g><path class="cls-8" d="M123.63,97.21a12.79,12.79,0,0,0-5.43-.27,34.19,34.19,0,0,0-4,.88,1.08,1.08,0,0,0-.73,1.41l.19.52a1.06,1.06,0,0,0,1.43.62A31.27,31.27,0,0,1,118.64,99a10.94,10.94,0,0,1,4.67-.43,9.67,9.67,0,0,1,4.36,2,31.55,31.55,0,0,1,3.7,3.44,31.15,31.15,0,0,0-3.24-4A10.84,10.84,0,0,0,123.63,97.21Z"/><path class="cls-8" d="M101.5,98.29a33.77,33.77,0,0,0-4-1.09,12.63,12.63,0,0,0-5.44,0,10.85,10.85,0,0,0-4.65,2.58,31.66,31.66,0,0,0-3.45,3.8,30.44,30.44,0,0,1,3.89-3.23,9.68,9.68,0,0,1,4.46-1.74,10.87,10.87,0,0,1,4.63.69,29.38,29.38,0,0,1,3.48,1.52,1.06,1.06,0,0,0,1.46-.54l.22-.51A1.08,1.08,0,0,0,101.5,98.29Z"/><path class="cls-12" d="M120.78,126.54a65.76,65.76,0,0,0-10.44-1.65c-3.07-.24-7.23-.86-10.22,0-6,1.78-.15,9.66,3,11.19a12.79,12.79,0,0,0,10.39-.06,19.37,19.37,0,0,0,8-6.88c.41-.58.8-1.36.42-2A1.86,1.86,0,0,0,120.78,126.54Z"/><path class="cls-8" d="M104.69,122.3c-3.9.38-10.72,1.18-13.78,3.91-2,1.76-1.36,2,1,2.15.46,0,8.52-.07,8.44,0a2.9,2.9,0,0,1,4.5.31c-.12-1.15,1.35-1.87,2.48-1.65a29.51,29.51,0,0,1,3.19,1.34c1.1.36,2.61.07,2.91-1l5.22,1.93c-.29-.59-.59-1.17-.88-1.76l14.46,2A40.1,40.1,0,0,0,104.69,122.3Z"/><g class="cls-9"><path class="cls-11" d="M109.35,118.22a1.85,1.85,0,0,1-.75.09,8,8,0,0,1-1.56-.11,2.64,2.64,0,0,1-2.19-1.62,2.79,2.79,0,0,1,.37-2.63c.51-.84,1.27-1.61,1.85-2.61a7.26,7.26,0,0,0,.84-3.28,20.36,20.36,0,0,0-.2-3.24,37.21,37.21,0,0,0-1.23-6.29c.19,2.13.37,4.24.46,6.35s.22,4.27-.76,6c-.47.86-1.22,1.63-1.79,2.62a3.51,3.51,0,0,0-.25,3.45,3.2,3.2,0,0,0,1.2,1.3,3.43,3.43,0,0,0,1.65.49,8.75,8.75,0,0,0,1.63-.12,2.18,2.18,0,0,0,.8-.22,1,1,0,0,0,.31-.29.28.28,0,0,0,0-.38C109.88,117.94,109.56,118.15,109.35,118.22Z"/></g><path class="cls-12" d="M119.69,172.66l-9.09-.79-2.47-.22-10.36-.9-7,2.19L47.56,186.46h0l-3.75,1.17-14.86,4.64,45.35,33.91c16.59,11.66,60.08,14.88,76.7,3.25l34.46-39L131,175.73Z"/><path class="cls-10" d="M93.12,175.6,91.71,174c-.32-.35-.65-.7-1-1L47.56,186.46a39.63,39.63,0,0,0,11.44,4c6,1.33,12.39,2.36,17.39,6a19.6,19.6,0,0,1-2.59-7.08c-.26-2.52.57-5.31,2.66-6.72,1.84-1.25,4.22-1.23,6.45-1.17l27.12.75c-4.37-.61-8.83-1.26-12.82-3.16A13.5,13.5,0,0,1,93.12,175.6Z"/><path class="cls-13" d="M93,101.32c-3.89,0-7,2.57-7,5.73s3.15,5.73,7,5.73,7-2.56,7-5.73S96.89,101.32,93,101.32Z"/><path class="cls-12" d="M98.24,103.16a7.29,7.29,0,0,0-4.7-1.63,7.43,7.43,0,0,0-4,1.12A4.93,4.93,0,0,0,87,106.78c0,2.89,2.91,5.24,6.5,5.24s6.5-2.35,6.5-5.24A4.74,4.74,0,0,0,98.24,103.16Z"/><path class="cls-14" d="M96.31,104.6c.42,0,1.42-1,1.93-1.44a7.29,7.29,0,0,0-4.7-1.63,7.43,7.43,0,0,0-4,1.12,5,5,0,0,0-.81,2.76,5.16,5.16,0,0,0,10.31,0c0-.11,0-.22,0-.33C98.12,104.88,97.22,104.71,96.31,104.6Z"/><path class="cls-13" d="M120.91,101.32c-3.89,0-7,2.57-7,5.73s3.15,5.73,7,5.73,7-2.56,7-5.73S124.8,101.32,120.91,101.32Z"/><path class="cls-12" d="M124.36,102.65a7.43,7.43,0,0,0-4-1.12,7.29,7.29,0,0,0-4.7,1.63,4.74,4.74,0,0,0-1.8,3.62c0,2.89,2.91,5.24,6.5,5.24s6.5-2.35,6.5-5.24A4.93,4.93,0,0,0,124.36,102.65Z"/><path class="cls-15" d="M120.37,101.53a7.29,7.29,0,0,0-4.7,1.63c.51.39,1.51,1.44,1.93,1.44-.91.11-1.81.28-2.72.48,0,.11,0,.22,0,.33a5.16,5.16,0,0,0,10.31,0,5,5,0,0,0-.81-2.76A7.43,7.43,0,0,0,120.37,101.53Z"/><path class="cls-8" d="M133.2,87.67c1.57,1.57,1.8,3.82,1.88,5.93q.36,9.24.73,18.47a9.13,9.13,0,0,0,.63,3.56,3.09,3.09,0,0,0,2.84,1.91A24.79,24.79,0,0,1,141.83,97a3.94,3.94,0,0,0,.82-2,3.24,3.24,0,0,0-.51-1.55C140.64,90.8,136.5,87.06,133.2,87.67Z"/><path class="cls-8" d="M74.32,93.42A3.15,3.15,0,0,0,73.8,95a4,4,0,0,0,.83,2,24.82,24.82,0,0,1,2.54,20.57A3.1,3.1,0,0,0,80,115.63a9.12,9.12,0,0,0,.62-3.56q.36-9.24.73-18.47c.09-2.11.31-4.36,1.88-5.93C80,87.06,75.81,90.8,74.32,93.42Z"/><path class="cls-5" d="M109.6,180.29a3.59,3.59,0,1,0,3.59,3.59A3.58,3.58,0,0,0,109.6,180.29Z"/><path class="cls-5" d="M109.6,198a3.59,3.59,0,1,0,3.59,3.59A3.58,3.58,0,0,0,109.6,198Z"/><path class="cls-5" d="M109.6,216.69a3.59,3.59,0,1,0,3.59,3.59A3.58,3.58,0,0,0,109.6,216.69Z"/><rect class="cls-5" x="109.18" y="183.88" width="0.85" height="43.29"/><polygon class="cls-5" points="88.36 160.92 88.36 177 109.18 183.88 131.03 177 131.03 160.92 109.55 172.43 88.36 160.92"/><path class="cls-12" d="M89,75.66s4.6,3.07,24.1,5.19c18.33,2,24.66.13,24.66.13l5.5-50.39L94.54,25.27Z"/><ellipse class="cls-12" cx="94.84" cy="29.87" rx="12.33" ry="16.19" transform="translate(54.85 120.91) rotate(-83.77)"/><path class="cls-12" d="M144.15,22.86c-8.89-1-16.7,3.72-17.44,10.49s5.87,13,14.76,14,16.7-3.73,17.43-10.49S153,23.83,144.15,22.86Z"/><ellipse class="cls-12" cx="119.7" cy="20.75" rx="14.54" ry="19.1" transform="translate(86.09 137.49) rotate(-83.77)"/><path class="cls-10" d="M138.67,23l0-.17c.87-8-6.93-15.39-17.42-16.53s-19.66,4.38-20.56,12.35a20.67,20.67,0,0,0-4.55-1c-8.89-1-16.69,3.73-17.43,10.5C78,34.68,84.23,40.76,92.71,42L89,75.66s4.6,3.07,24.1,5.19c4.65.51,8.53.77,11.73.87C114.94,80,104.14,76.13,98.06,69.6c-6.75-7.25-3.57-15-3-23a18.29,18.29,0,0,0-.36-4.21c0-.19-.13-.65-.22-1.06-5.08-1.35-8.28-6.63-7.7-10.67,1.07-7.45,9.48-7.54,16.68-6.89,0-.26,0-.52,0-.77a12.13,12.13,0,0,1,7.9-10.34c8.55-3.29,21,1.16,24.53,8.59a14.65,14.65,0,0,1,1.2,4.09A40.25,40.25,0,0,1,150,25.4a25.2,25.2,0,0,1,3.3.79,19.59,19.59,0,0,0-9.12-3.33A20.37,20.37,0,0,0,138.67,23Z"/><path class="cls-13" d="M134.39,73.84a10.29,10.29,0,0,0-1.95.48,9.27,9.27,0,0,0-6,5.89c-.53,1.85,1.29,1.93,2.64,2.26a23.26,23.26,0,0,0,5.45.7,10.08,10.08,0,0,0,4.59-.82l.18-.1a5.37,5.37,0,0,0,1.64-1.35,41.72,41.72,0,0,0-5.68-7.15C134.94,73.77,134.67,73.8,134.39,73.84Z"/><path class="cls-8" d="M119.82,69.74c-5-4.5-11.46-7.76-18.17-7.51-4.79.18-9.88,2.05-14.16-.1A3.2,3.2,0,0,1,87.62,65a4.59,4.59,0,0,1-.79,1.32,4.91,4.91,0,0,1-2.06,1.46c-2.26.81-4.75.24-7.07-.34a7,7,0,0,0,3.44,3.3,14.53,14.53,0,0,1-1.51,1.1c-.37.26-.75.49-1.13.71a19.59,19.59,0,0,1-11,2.5,14.17,14.17,0,0,0,7.21,2.3l-.39.25a24,24,0,0,1-6.72,3.15,23.54,23.54,0,0,1-5.13.94,55.81,55.81,0,0,0,8.3,9.19A18.75,18.75,0,0,0,82,95.54c4.43.09,8.59-1.91,12.67-3.62a106.73,106.73,0,0,1,27.53-7.29c3.84-.48,8.46-.78,5.78-5.4A41.89,41.89,0,0,0,119.82,69.74Z"/><path class="cls-13" d="M78.5,72.57q.66.14,1.32.3c4.54,1,9.4,2.08,13.72.34a64.72,64.72,0,0,1-13.91-1.35C79.26,72.12,78.88,72.35,78.5,72.57Z"/><path class="cls-13" d="M77.81,77.24a25.35,25.35,0,0,0-3.54.38,24,24,0,0,1-6.72,3.15c3,.34,6.12.43,9.15.65,6.35.46,13.18.81,18.59-2.55C89.7,80.82,83.73,77.11,77.81,77.24Z"/><path class="cls-13" d="M86.83,66.34c3.87,1.39,7.74,3.11,11.74,2.76A70.7,70.7,0,0,0,87.62,65,4.59,4.59,0,0,1,86.83,66.34Z"/></g></g></g></g></svg>