<svg xmlns="http://www.w3.org/2000/svg" xmlns:xlink="http://www.w3.org/1999/xlink" viewBox="0 0 218.16 242.51"><defs><style>.cls-1{fill:none;}.cls-2{isolation:isolate;}.cls-3{fill:#fae4d9;}.cls-4{clip-path:url(#clip-path);}.cls-5{fill:#fce096;}.cls-6{fill:#fdc07a;}.cls-7{fill:#fceeca;}.cls-8{fill:#000446;}.cls-9{fill:#fb968b;}.cls-10{fill:url(#linear-gradient);}.cls-11{mix-blend-mode:color-burn;}.cls-12{fill:#e8e8e8;}.cls-13{fill:#919191;}.cls-14{fill:#fff;}.cls-15{fill:url(#linear-gradient-2);}.cls-16{fill:url(#linear-gradient-3);}.cls-17{fill:url(#linear-gradient-4);}</style><clipPath id="clip-path"><circle class="cls-1" cx="109.08" cy="109.08" r="109.08"/></clipPath><linearGradient id="linear-gradient" x1="106.79" y1="105.86" x2="108.6" y2="181.76" gradientUnits="userSpaceOnUse"><stop offset="0" stop-color="#ff6a59"/><stop offset="1" stop-color="#fff" stop-opacity="0"/></linearGradient><linearGradient id="linear-gradient-2" x1="107.32" y1="87.36" x2="107.01" y2="74.08" xlink:href="#linear-gradient"/><linearGradient id="linear-gradient-3" x1="94.52" y1="67.17" x2="81.32" y2="83.85" gradientUnits="userSpaceOnUse"><stop offset="0" stop-color="#2ebac4"/><stop offset="0.19" stop-color="#3099b0"/><stop offset="0.39" stop-color="#317d9f"/><stop offset="0.59" stop-color="#326a94"/><stop offset="0.79" stop-color="#335e8c"/><stop offset="1" stop-color="#335a8a"/></linearGradient><linearGradient id="linear-gradient-4" x1="123.06" y1="67.02" x2="109.55" y2="84.1" xlink:href="#linear-gradient-3"/></defs><g class="cls-2"><g id="Слой_2" data-name="Слой 2"><g id="Layer_1" data-name="Layer 1"><circle class="cls-3" cx="109.08" cy="109.08" r="109.08" transform="translate(-45.18 109.08) rotate(-45)"/><g class="cls-4"><path class="cls-5" d="M69.53,46.28,54.76,128a154.25,154.25,0,0,0,15.49,3.54q2.94.53,5.88.93l1.15.16c3,.4,6,.73,9,1l.61,0a300.4,300.4,0,0,0,39.69.21l.6,0c3-.16,6-.33,9.05-.53l1.12-.07c1.28-.07,2.55-.16,3.83-.24,5.68-.37,11.36-.77,17-1.12l-14-85.64Z"/><path class="cls-6" d="M115.23,84.64c-7.13,1.19-13.88,6.63-20.67,11.11-.9.59-1.81,1.17-2.72,1.71-.67.41-1.33.8-2,1.16a32.91,32.91,0,0,1-5.4,2.4,10.85,10.85,0,0,1-3.64.12h-.08c-.45,0-.91-.07-1.37-.08-1.95-.08-3.84.08-4.8,1.43-1.86,2.62-2.45,13.62-3,17.82-.49,3.73-.94,7.48-1.3,11.27q2.94.53,5.88.93l1.15.16c3,.4,6,.73,9,1l.61,0a300.4,300.4,0,0,0,39.69.21l.6,0c3-.16,6-.33,9.05-.53l1.12-.07c1.28-.07,2.55-.16,3.83-.24-1.66-12.1-2.54-25-6.47-34.61C130.12,87.28,122.35,83.45,115.23,84.64Z"/><path class="cls-5" d="M106.88,16.09c-17.82,0-32.27,10-32.27,22.4s14.45,22.4,32.27,22.4,32.27-10,32.27-22.4S124.7,16.09,106.88,16.09Z"/><path class="cls-7" d="M120.08,86.71l6.48,47.2.6,0L122.3,86.44Z"/><polygon class="cls-7" points="89.84 98.62 86.26 133.65 86.87 133.7 91.84 97.46 93.32 86.71 91.09 86.44 89.84 98.62"/><path class="cls-8" d="M108.05,137.6c-15.23,0-27.57,3.37-27.57,7.53s12.34,7.53,27.57,7.53,27.57-3.37,27.57-7.53S123.28,137.6,108.05,137.6Z"/><polygon class="cls-7" points="131.81 101.24 136.21 133.35 137.33 133.28 134.03 100.97 131.81 101.24"/><path class="cls-9" d="M88.4,104.72c7.28,35.33,0,63.2,0,63.2h38.17s-5.35-33.88,0-63.2C128.29,95.33,86.48,95.37,88.4,104.72Z"/><path class="cls-10" d="M88.4,104.72c7.28,35.33,0,63.2,0,63.2h38.17s-5.35-33.88,0-63.2C128.29,95.33,86.48,95.37,88.4,104.72Z"/><polygon class="cls-7" points="80.72 101.14 79.36 100.97 79.35 101.06 76.13 132.51 77.28 132.67 81.59 101.24 80.8 101.14 80.72 101.14"/><path class="cls-9" d="M107,26.18c-22.07,0-40,22.53-40,50.32C67,96.3,87.32,111.38,99,118.42a15.51,15.51,0,0,0,16,0C126.69,111.38,147,96.3,147,76.5,147,48.71,129.07,26.18,107,26.18Z"/><path class="cls-6" d="M131.48,60.08A12.62,12.62,0,0,0,126,57.17a14.8,14.8,0,0,0-6.39.16A38,38,0,0,0,115,58.71a1.27,1.27,0,0,0-.73,1.71l.27.6a1.26,1.26,0,0,0,1.73.6,35,35,0,0,1,4-1.87,12.91,12.91,0,0,1,5.43-.92A11.39,11.39,0,0,1,131,60.76a36.19,36.19,0,0,1,4.65,3.71A36.53,36.53,0,0,0,131.48,60.08Z"/><path class="cls-6" d="M100.11,58.17A39,39,0,0,0,95.43,57a15,15,0,0,0-6.39.18,12.53,12.53,0,0,0-5.36,3.21A36.8,36.8,0,0,0,79.77,65a36.69,36.69,0,0,1,4.44-4,11.41,11.41,0,0,1,5.17-2.2,12.86,12.86,0,0,1,5.48.63A36.77,36.77,0,0,1,99,61.14a1.25,1.25,0,0,0,1.69-.69l.24-.61A1.26,1.26,0,0,0,100.11,58.17Z"/><path class="cls-5" d="M139.46,33.48c-2.19-3.86-4.75-7.72-8.58-10-4.26-2.48-9.46-2.59-14.39-2.54A11.39,11.39,0,0,0,110.87,22c-1.87,1.09-3.69,2.51-4.11,4.63s.28,6.47.48,8.62c3.61-2.4,8-6.38,12.22-5.65s7.31,4.47,9.85,8c6.37,8.82,12.35,18.08,15.94,28.35,6.87,19.61,4.63,41.6,12.13,61,0-16.38.3-31-2.37-47.12S147.54,47.73,139.46,33.48Z"/><path class="cls-5" d="M103.13,22A11.39,11.39,0,0,0,97.51,21c-4.93-.05-10.13.06-14.39,2.54-3.83,2.24-6.39,6.1-8.58,10C66.46,47.73,61.65,63.66,59,79.82s-2.4,30.74-2.37,47.12C64.12,107.57,63.1,86.39,70,66.78A114.38,114.38,0,0,1,84.69,37.62c2.54-3.52,5.57-7.26,9.85-8s9.49,3.17,13.1,5.57a39.58,39.58,0,0,0-.54-8.49C106.68,24.59,105,23.12,103.13,22Z"/><g class="cls-11"><path class="cls-12" d="M151.16,65.53a8.23,8.23,0,1,0,3.54,11.09A8.23,8.23,0,0,0,151.16,65.53Z"/></g><path class="cls-9" d="M150.32,63.13a8.23,8.23,0,1,0,3.53,11.1A8.23,8.23,0,0,0,150.32,63.13Z"/><g class="cls-11"><path class="cls-13" d="M149.24,67.24a4.09,4.09,0,0,0-5,1,4.08,4.08,0,0,1,1.67,5.46,4.18,4.18,0,0,1-.5.74l.09.06a4.09,4.09,0,0,0,3.76-7.27Z"/></g><g class="cls-11"><path class="cls-12" d="M62.59,65.53a8.23,8.23,0,1,0,11.1,3.53A8.22,8.22,0,0,0,62.59,65.53Z"/></g><path class="cls-9" d="M63.44,63.13a8.23,8.23,0,1,0,11.09,3.54A8.25,8.25,0,0,0,63.44,63.13Z"/><g class="cls-11"><path class="cls-13" d="M64.52,67.24a4.09,4.09,0,1,0,3.76,7.27l.09-.06a4.23,4.23,0,0,1-.51-.74,4.09,4.09,0,0,1,1.67-5.46A4.08,4.08,0,0,0,64.52,67.24Z"/></g><path class="cls-7" d="M130.89,36.8a30.52,30.52,0,0,0-4.5-5.9,13.15,13.15,0,0,0-3.4-2.45,9.58,9.58,0,0,0-4.16-1,11.19,11.19,0,0,0-7,2.74,25,25,0,0,0-4.6,5.07,45.88,45.88,0,0,1,5.87-2.42,8.37,8.37,0,0,1,5.16-.18,6.46,6.46,0,0,1,3.24,3A36.47,36.47,0,0,1,124,40.91a212.06,212.06,0,0,1,8.49,24.22,225.59,225.59,0,0,1,5.65,25.17c1.5,8.58,2.33,17.31,3.4,26.49a60.32,60.32,0,0,0,2-6.58c.28-1.11.52-2.24.78-3.36s.4-2.27.6-3.41c.41-2.28.59-4.58.82-6.9.1-1.15.13-2.31.18-3.47s.12-2.33.08-3.49A99.32,99.32,0,0,0,142.14,62,95.66,95.66,0,0,0,130.89,36.8Z"/><path class="cls-5" d="M131.7,37.36a28.52,28.52,0,0,0-4.49-5.54,13.46,13.46,0,0,0-3.41-2.31,10.07,10.07,0,0,0-4.16-.92,11.61,11.61,0,0,0-7,2.58,24.32,24.32,0,0,0-4.6,4.76,47.36,47.36,0,0,1,5.87-2.27,8.83,8.83,0,0,1,5.16-.17,6.35,6.35,0,0,1,3.24,2.77,32.66,32.66,0,0,1,2.49,5A191.07,191.07,0,0,1,133.3,64,201,201,0,0,1,139,87.64c1.51,8.07,2.33,16.28,3.4,24.9a53.84,53.84,0,0,0,2-6.18c.28-1,.52-2.11.78-3.16s.4-2.13.6-3.21c.41-2.14.59-4.3.82-6.48.1-1.08.13-2.17.19-3.26s.11-2.19.07-3.28A88.18,88.18,0,0,0,143,61.05,87.23,87.23,0,0,0,131.7,37.36Z"/><path class="cls-7" d="M103,30.18a11.29,11.29,0,0,0-7-2.71,9.49,9.49,0,0,0-4.15,1,13.31,13.31,0,0,0-3.41,2.43A30.29,30.29,0,0,0,84,36.7,94.21,94.21,0,0,0,72.74,61.64a97.24,97.24,0,0,0-3.9,27.28c0,1.15,0,2.3.07,3.45s.08,2.29.18,3.43c.24,2.29.42,4.57.83,6.83.2,1.12.37,2.25.6,3.37s.5,2.22.78,3.33a59.83,59.83,0,0,0,2,6.51c1.07-9.09,1.89-17.72,3.4-26.22a221.26,221.26,0,0,1,5.65-24.89,207.41,207.41,0,0,1,8.49-24,33.76,33.76,0,0,1,2.49-5.23,6.42,6.42,0,0,1,3.24-2.91,8.44,8.44,0,0,1,5.16.17,47.16,47.16,0,0,1,5.87,2.4A25.07,25.07,0,0,0,103,30.18Z"/><path class="cls-5" d="M102.4,31.17a11.61,11.61,0,0,0-7-2.58,10.11,10.11,0,0,0-4.16.92,13.4,13.4,0,0,0-3.4,2.31,28.6,28.6,0,0,0-4.5,5.54A89.5,89.5,0,0,0,68.2,87c0,1.09,0,2.19.08,3.28s.08,2.18.18,3.26c.23,2.18.41,4.34.82,6.48.2,1.08.38,2.14.6,3.21s.5,2.11.79,3.16a51.91,51.91,0,0,0,2,6.18c1.07-8.62,1.9-16.83,3.4-24.9A201,201,0,0,1,81.75,64a189.41,189.41,0,0,1,8.5-22.77,32.68,32.68,0,0,1,2.48-5A6.35,6.35,0,0,1,96,33.49a8.83,8.83,0,0,1,5.16.17A47.36,47.36,0,0,1,107,35.93,24.32,24.32,0,0,0,102.4,31.17Z"/><path class="cls-7" d="M124.91,25.67a17.63,17.63,0,0,0-2.68-1.16,15.22,15.22,0,0,0-2.89-.68,7.61,7.61,0,0,0-3,.44,13.86,13.86,0,0,0-2.69,1.28,19.93,19.93,0,0,0-2.42,1.66,10.05,10.05,0,0,0-3.5,4.65A14,14,0,0,1,111.77,28a26.08,26.08,0,0,1,4.9-2.69,6.89,6.89,0,0,1,2.6-.52,14,14,0,0,1,2.75.45,22.93,22.93,0,0,1,2.71.83,6.91,6.91,0,0,1,2.45,1.42A6.26,6.26,0,0,0,124.91,25.67Z"/><path class="cls-7" d="M127.15,22.58a18.49,18.49,0,0,0-2.59-1.49A21.27,21.27,0,0,0,121.78,20a8.4,8.4,0,0,0-3.07-.39,17.64,17.64,0,0,0-5.82,1.59,10.24,10.24,0,0,0-4.64,3.72,14.38,14.38,0,0,1,5-2.83,24.53,24.53,0,0,1,5.53-1.4,7.28,7.28,0,0,1,2.75.19,27.42,27.42,0,0,1,5.4,2.09,5.64,5.64,0,0,1,2.25,1.78A5.33,5.33,0,0,0,127.15,22.58Z"/><path class="cls-7" d="M101.57,25.79a22.1,22.1,0,0,0-2.49-1.56,13,13,0,0,0-2.74-1.16,7.34,7.34,0,0,0-3-.32,14.71,14.71,0,0,0-2.86.8,17.71,17.71,0,0,0-2.63,1.27,6.09,6.09,0,0,0-2.19,1.9A6.78,6.78,0,0,1,88,25.2a23.57,23.57,0,0,1,2.67-.95,14.92,14.92,0,0,1,2.73-.57A7.08,7.08,0,0,1,96,24.1a26.23,26.23,0,0,1,5,2.48,14.13,14.13,0,0,1,4.23,3.71A10.17,10.17,0,0,0,101.57,25.79Z"/><path class="cls-7" d="M102.54,22a17.32,17.32,0,0,0-5.61-2.19,8.08,8.08,0,0,0-3.1.06,21.15,21.15,0,0,0-2.88.82,19,19,0,0,0-2.73,1.21A5.23,5.23,0,0,0,86,23.8a5.62,5.62,0,0,1,2.42-1.54c.91-.35,1.83-.64,2.77-.9a25.45,25.45,0,0,1,2.83-.6,7.28,7.28,0,0,1,2.75.1,24.71,24.71,0,0,1,5.35,2,14.21,14.21,0,0,1,4.67,3.34A10.26,10.26,0,0,0,102.54,22Z"/><path class="cls-14" d="M144,166l-23-6.23L92.64,157.3l-22.21,6.95-22.27,7L3.71,185.11l44.44,33.23,14.16,10.59c7.44,5.24,19.09,9.15,32,11.4a149,149,0,0,0,26.27,2.18c16.32-.09,31.7-3,40.81-9.38l5.37-6.07,39.17-44.27-39.12-10.6Z"/><polygon class="cls-14" points="80.48 144.6 80.48 165.38 135.62 165.38 135.62 144.6 107.87 159.47 80.48 144.6"/><path d="M107,176.79a4,4,0,1,0,4.44,3.43A4,4,0,0,0,107,176.79Z"/><g class="cls-11"><path d="M108.2,176.8a3.94,3.94,0,0,1-2.22,6.79,3.55,3.55,0,0,1-1.22-.05,3.93,3.93,0,0,0,3.22,1.08,4,4,0,0,0,.22-7.82Z"/></g><path d="M107,193.24a4,4,0,1,0,4.44,3.43A4,4,0,0,0,107,193.24Z"/><g class="cls-11"><path d="M108.2,193.25a4,4,0,0,1-2.22,6.8,3.81,3.81,0,0,1-1.22-.06,3.93,3.93,0,0,0,3.22,1.08,4,4,0,0,0,.22-7.82Z"/></g><path d="M107,209.69a4,4,0,1,0,4.44,3.43A4,4,0,0,0,107,209.69Z"/><g class="cls-11"><path d="M108.2,209.7a4,4,0,0,1-2.22,6.8,3.81,3.81,0,0,1-1.22-.06,3.93,3.93,0,0,0,3.22,1.08,4,4,0,0,0,.22-7.82Z"/></g><path class="cls-9" d="M112.41,80.09a6.06,6.06,0,0,1-1.89-1.46c-1.11-1.31-1.09-2.95-1-4.57.07-1.82.07-4,1.07-5.59h-6.66c.56,0,1,6.71,1,7A4.5,4.5,0,0,1,102,80c-2.08.85-4.66,3.3-2.49,5.5a5.86,5.86,0,0,0,2.34,1.3,17.86,17.86,0,0,0,8.59.58,10.59,10.59,0,0,0,4.13-1.5,3.1,3.1,0,0,0,1.16-1.25,2.7,2.7,0,0,0-.71-2.82A9.81,9.81,0,0,0,112.41,80.09Z"/><path class="cls-15" d="M112.41,80.09a6.06,6.06,0,0,1-1.89-1.46c-1.11-1.31-1.09-2.95-1-4.57.07-1.82.07-4,1.07-5.59h-6.66c.56,0,1,6.71,1,7A4.5,4.5,0,0,1,102,80c-2.08.85-4.66,3.3-2.49,5.5a5.86,5.86,0,0,0,2.34,1.3,17.86,17.86,0,0,0,8.59.58,10.59,10.59,0,0,0,4.13-1.5,3.1,3.1,0,0,0,1.16-1.25,2.7,2.7,0,0,0-.71-2.82A9.81,9.81,0,0,0,112.41,80.09Z"/><path class="cls-8" d="M92.23,63.94c-5.52-.65-10.71,4.94-10.71,4.94s3.76,6.63,9.28,7.27,10.71-4.94,10.71-4.94S97.74,64.58,92.23,63.94Z"/><path class="cls-14" d="M97.94,66.22a9.5,9.5,0,0,0-4.46-1.87,9.74,9.74,0,0,0-5.21,1,19.57,19.57,0,0,0-5.49,4s3.76,6.63,9.28,7.28,10.71-5,10.71-5A19.18,19.18,0,0,0,97.94,66.22Z"/><path class="cls-16" d="M95.58,68.43c.54.06,2-1.54,2.5-1.83l0,0c-.07-.12-.12-.25-.19-.36a9.5,9.5,0,0,0-4.46-1.87,9.74,9.74,0,0,0-5.21,1,6,6,0,0,0-1.56,4,6.06,6.06,0,0,0,12.12,0c0-.13,0-.26,0-.39C97.74,68.76,96.67,68.56,95.58,68.43Z"/><path class="cls-8" d="M121.71,63.94c-5.52.64-9.28,7.27-9.28,7.27s5.19,5.58,10.71,4.94,9.28-7.27,9.28-7.27S127.23,63.29,121.71,63.94Z"/><path class="cls-14" d="M125.67,65.33a9.76,9.76,0,0,0-5.22-1A9.46,9.46,0,0,0,116,66.22a19.18,19.18,0,0,0-4.83,5.39s5.19,5.59,10.71,5,9.28-7.28,9.28-7.28A19.57,19.57,0,0,0,125.67,65.33Z"/><path class="cls-17" d="M120.45,64.35A9.46,9.46,0,0,0,116,66.22c-.07.11-.13.24-.19.36l0,0c.5.29,2,1.89,2.49,1.83-1.08.13-2.15.33-3.22.56,0,.13,0,.26,0,.39a6.06,6.06,0,1,0,10.56-4A9.76,9.76,0,0,0,120.45,64.35Z"/><path class="cls-14" d="M104.63,99.21c-6.73-.78-7.84-2.35-7.84-2.35,1.72,7,7,10.65,12.17,9.86S119,95.32,119,95.32,111.35,100,104.63,99.21Z"/><path class="cls-8" d="M82.15,182.68c-6.44-4.16-10-12.45-11.72-18.43l-22.27,7c-.11,10.57-.07,30.33,0,47.13l14.16,10.59c7.44,5.24,19.09,9.15,32,11.4-.43-17.85-1-40.6-1-44.28C93.26,189.86,92.88,189.61,82.15,182.68Z"/><path class="cls-8" d="M144,166c-1.91,5.76-5.34,12.91-11.17,16.68-10.73,6.93-11.11,7.18-11.17,13.37,0,3.83-.61,28.33-1,46.46,16.32-.09,31.7-3,40.81-9.38l5.37-6.07c.09-17.64.16-42.09,0-54.87Z"/><polygon class="cls-8" points="86.24 160.06 86.24 176.53 108.1 173.05 129.97 176.53 129.97 160.06 107.96 171.85 86.24 160.06"/><rect class="cls-8" x="104.43" y="168.19" width="6.58" height="6.69"/></g></g></g></g></svg>