<svg width="306" height="69" viewBox="0 0 306 69" fill="none" xmlns="http://www.w3.org/2000/svg">
<path d="M0.745245 3.64H35.9772V14.248H12.7452V29.944H34.2972V40.504H12.7452V67H0.745245V3.64ZM50.3592 50.008C50.4552 51.8 50.9352 53.4 51.7992 54.808C52.6632 56.216 53.9112 57.32 55.5432 58.12C57.2072 58.92 59.1912 59.32 61.4952 59.32C63.5752 59.32 65.3992 59.064 66.9672 58.552C68.5672 58.04 69.9112 57.416 70.9992 56.68C72.1192 55.912 72.9512 55.176 73.4952 54.472L78.5352 61.96C77.6392 63.08 76.4392 64.12 74.9352 65.08C73.4632 66.008 71.5752 66.744 69.2712 67.288C66.9992 67.864 64.1512 68.152 60.7272 68.152C56.4072 68.152 52.6152 67.304 49.3512 65.608C46.0872 63.912 43.5432 61.464 41.7192 58.264C39.8952 55.064 38.9832 51.256 38.9832 46.84C38.9832 43 39.7992 39.544 41.4312 36.472C43.0632 33.368 45.4312 30.92 48.5352 29.128C51.6712 27.336 55.4312 26.44 59.8152 26.44C63.9432 26.44 67.5112 27.24 70.5192 28.84C73.5592 30.408 75.9112 32.712 77.5752 35.752C79.2392 38.792 80.0712 42.504 80.0712 46.888C80.0712 47.144 80.0552 47.672 80.0232 48.472C80.0232 49.24 79.9912 49.752 79.9272 50.008H50.3592ZM68.6472 42.472C68.6152 41.448 68.2952 40.344 67.6872 39.16C67.1112 37.976 66.1992 36.968 64.9512 36.136C63.7032 35.304 62.0392 34.888 59.9592 34.888C57.8792 34.888 56.1672 35.288 54.8232 36.088C53.5112 36.888 52.5192 37.88 51.8472 39.064C51.1752 40.216 50.7912 41.352 50.6952 42.472H68.6472ZM95.408 50.008C95.504 51.8 95.984 53.4 96.848 54.808C97.712 56.216 98.96 57.32 100.592 58.12C102.256 58.92 104.24 59.32 106.544 59.32C108.624 59.32 110.448 59.064 112.016 58.552C113.616 58.04 114.96 57.416 116.048 56.68C117.168 55.912 118 55.176 118.544 54.472L123.584 61.96C122.688 63.08 121.488 64.12 119.984 65.08C118.512 66.008 116.624 66.744 114.32 67.288C112.048 67.864 109.2 68.152 105.776 68.152C101.456 68.152 97.664 67.304 94.4 65.608C91.136 63.912 88.592 61.464 86.768 58.264C84.944 55.064 84.032 51.256 84.032 46.84C84.032 43 84.848 39.544 86.48 36.472C88.112 33.368 90.48 30.92 93.584 29.128C96.72 27.336 100.48 26.44 104.864 26.44C108.992 26.44 112.56 27.24 115.568 28.84C118.608 30.408 120.96 32.712 122.624 35.752C124.288 38.792 125.12 42.504 125.12 46.888C125.12 47.144 125.104 47.672 125.072 48.472C125.072 49.24 125.04 49.752 124.976 50.008H95.408ZM113.696 42.472C113.664 41.448 113.344 40.344 112.736 39.16C112.16 37.976 111.248 36.968 110 36.136C108.752 35.304 107.088 34.888 105.008 34.888C102.928 34.888 101.216 35.288 99.872 36.088C98.56 36.888 97.568 37.88 96.896 39.064C96.224 40.216 95.84 41.352 95.744 42.472H113.696ZM148.473 68.152C144.729 68.152 141.433 67.256 138.585 65.464C135.769 63.64 133.561 61.16 131.961 58.024C130.393 54.856 129.609 51.288 129.609 47.32C129.609 43.352 130.393 39.8 131.961 36.664C133.561 33.496 135.769 31 138.585 29.176C141.433 27.352 144.729 26.44 148.473 26.44C151.129 26.44 153.481 26.872 155.529 27.736C157.609 28.6 159.273 29.624 160.521 30.808C161.769 31.992 162.505 33.048 162.729 33.976V0.951998H174.969V67H162.873V60.136C162.361 61.256 161.417 62.44 160.041 63.688C158.665 64.936 156.985 65.992 155.001 66.856C153.017 67.72 150.841 68.152 148.473 68.152ZM151.929 58.456C153.977 58.456 155.817 57.992 157.449 57.064C159.081 56.104 160.361 54.792 161.289 53.128C162.249 51.432 162.729 49.496 162.729 47.32C162.729 45.144 162.249 43.224 161.289 41.56C160.361 39.864 159.081 38.536 157.449 37.576C155.817 36.616 153.977 36.136 151.929 36.136C150.041 36.136 148.313 36.616 146.745 37.576C145.177 38.504 143.913 39.816 142.953 41.512C142.025 43.176 141.561 45.112 141.561 47.32C141.561 49.528 142.025 51.48 142.953 53.176C143.913 54.84 145.177 56.136 146.745 57.064C148.313 57.992 150.041 58.456 151.929 58.456Z" fill="black"/>
<path d="M201.121 68.152C196.929 68.152 193.185 67.256 189.889 65.464C186.625 63.672 184.065 61.224 182.209 58.12C180.353 54.984 179.425 51.416 179.425 47.416C179.425 43.416 180.353 39.848 182.209 36.712C184.065 33.544 186.625 31.048 189.889 29.224C193.185 27.368 196.929 26.44 201.121 26.44C205.345 26.44 209.073 27.368 212.305 29.224C215.537 31.048 218.065 33.544 219.889 36.712C221.713 39.848 222.625 43.416 222.625 47.416C222.625 51.416 221.713 54.984 219.889 58.12C218.065 61.224 215.537 63.672 212.305 65.464C209.073 67.256 205.345 68.152 201.121 68.152ZM201.121 58.024C203.137 58.024 204.881 57.576 206.353 56.68C207.857 55.752 209.009 54.488 209.809 52.888C210.641 51.256 211.057 49.416 211.057 47.368C211.057 45.32 210.641 43.48 209.809 41.848C209.009 40.216 207.857 38.936 206.353 38.008C204.881 37.048 203.137 36.568 201.121 36.568C199.105 36.568 197.345 37.048 195.841 38.008C194.369 38.936 193.217 40.216 192.385 41.848C191.553 43.48 191.137 45.32 191.137 47.368C191.137 49.416 191.553 51.256 192.385 52.888C193.217 54.488 194.369 55.752 195.841 56.68C197.345 57.576 199.105 58.024 201.121 58.024ZM240.264 67H228.072V27.592H240.264V33.976H240.024C240.248 33.208 240.856 32.232 241.848 31.048C242.872 29.864 244.28 28.808 246.072 27.88C247.864 26.92 250.024 26.44 252.552 26.44C254.376 26.44 256.024 26.712 257.496 27.256C259 27.768 260.072 28.28 260.712 28.792L255.912 38.776C255.496 38.264 254.712 37.736 253.56 37.192C252.44 36.648 251.032 36.376 249.336 36.376C247.32 36.376 245.64 36.936 244.296 38.056C242.952 39.144 241.944 40.488 241.272 42.088C240.6 43.656 240.264 45.128 240.264 46.504V67ZM293.414 67V60.136C293.126 60.84 292.39 61.832 291.206 63.112C290.022 64.392 288.422 65.56 286.406 66.616C284.422 67.64 282.086 68.152 279.398 68.152C275.622 68.152 272.278 67.256 269.366 65.464C266.454 63.64 264.166 61.16 262.502 58.024C260.87 54.856 260.054 51.288 260.054 47.32C260.054 43.352 260.87 39.8 262.502 36.664C264.166 33.496 266.454 31 269.366 29.176C272.278 27.352 275.622 26.44 279.398 26.44C282.022 26.44 284.294 26.888 286.214 27.784C288.166 28.648 289.734 29.672 290.918 30.856C292.134 32.008 292.918 33.048 293.27 33.976V27.592H305.366V67H293.414ZM272.006 47.32C272.006 49.528 272.502 51.48 273.494 53.176C274.486 54.84 275.798 56.136 277.43 57.064C279.062 57.992 280.838 58.456 282.758 58.456C284.774 58.456 286.566 57.992 288.134 57.064C289.702 56.104 290.934 54.792 291.83 53.128C292.758 51.432 293.222 49.496 293.222 47.32C293.222 45.144 292.758 43.224 291.83 41.56C290.934 39.864 289.702 38.536 288.134 37.576C286.566 36.616 284.774 36.136 282.758 36.136C280.838 36.136 279.062 36.616 277.43 37.576C275.798 38.504 274.486 39.816 273.494 41.512C272.502 43.176 272.006 45.112 272.006 47.32Z" fill="#FF8800"/>
</svg>
