<svg xmlns="http://www.w3.org/2000/svg" xmlns:xlink="http://www.w3.org/1999/xlink" viewBox="0 0 1000 730">
  <defs>
    <clipPath id="clip-path">
      <path d="M893.5139,569.0417s86.2361-64.3612,67.65-173.1552C946,307.1207,890.9367,245.2543,820.6831,221.0289s-92.2371-28.2563-193.8726-86.3972-135.072-87.69-213.4788-87.69c-166.3825,0-174.1932,124.2634-254.9264,188.7305C108.8221,275.265,52.7905,336.0162,44.8981,412.2475c-10.1222,97.7687,52.0352,156.5376,63.399,163.1016S893.5139,569.0417,893.5139,569.0417Z" fill="none"/>
    </clipPath>
    <linearGradient id="linear-gradient" x1="357.1241" y1="336.4073" x2="355.3677" y2="200.2884" gradientUnits="userSpaceOnUse">
      <stop offset="0" stop-color="#1d164d"/>
      <stop offset="1" stop-color="#4a4975"/>
    </linearGradient>
    <linearGradient id="linear-gradient-2" x1="167.0483" y1="373.3426" x2="178.9" y2="354.7184" gradientUnits="userSpaceOnUse">
      <stop offset="0" stop-color="#ffc0ac"/>
      <stop offset="1" stop-color="#ffd6c7"/>
    </linearGradient>
    <linearGradient id="linear-gradient-3" x1="244.3012" y1="629.0379" x2="217.1244" y2="430.3452" xlink:href="#linear-gradient-2"/>
    <linearGradient id="linear-gradient-4" x1="279.5055" y1="415.3874" x2="228.4422" y2="489.9489" gradientUnits="userSpaceOnUse">
      <stop offset="0" stop-color="#ff9c85"/>
      <stop offset="1" stop-color="#ff9c85" stop-opacity="0"/>
    </linearGradient>
    <linearGradient id="linear-gradient-5" x1="302.7443" y1="577.8444" x2="283.7224" y2="284.468" gradientUnits="userSpaceOnUse">
      <stop offset="0" stop-color="#00b5a2"/>
      <stop offset="1" stop-color="#24e2d5"/>
    </linearGradient>
    <linearGradient id="linear-gradient-6" x1="375.1733" y1="573.1483" x2="356.1514" y2="279.7718" xlink:href="#linear-gradient-5"/>
    <linearGradient id="linear-gradient-7" x1="354.5176" y1="533.4166" x2="349.2619" y2="355.3093" gradientUnits="userSpaceOnUse">
      <stop offset="0" stop-color="#ed6ba1"/>
      <stop offset="1" stop-color="#f3a7a8"/>
    </linearGradient>
    <linearGradient id="linear-gradient-8" x1="433.9546" y1="472.2087" x2="417.7023" y2="378.7581" xlink:href="#linear-gradient-2"/>
    <linearGradient id="linear-gradient-9" x1="437.7276" y1="569.0924" x2="418.7057" y2="275.7159" xlink:href="#linear-gradient-5"/>
    <linearGradient id="linear-gradient-10" x1="208.0784" y1="436.5279" x2="264.5644" y2="516.5121" xlink:href="#linear-gradient-4"/>
    <linearGradient id="linear-gradient-11" x1="340.0314" y1="421.1135" x2="364.3595" y2="310.7013" xlink:href="#linear-gradient-2"/>
    <linearGradient id="linear-gradient-12" x1="402.5679" y1="481.0561" x2="383.3341" y2="396.2701" gradientUnits="userSpaceOnUse">
      <stop offset="0" stop-color="#dc9068"/>
      <stop offset="1" stop-color="#f7b28f"/>
    </linearGradient>
    <linearGradient id="linear-gradient-13" x1="436.2987" y1="414.9541" x2="582.9752" y2="375.3258" xlink:href="#linear-gradient-12"/>
    <linearGradient id="linear-gradient-14" x1="442.4255" y1="455.3258" x2="409.312" y2="415.3316" gradientUnits="userSpaceOnUse">
      <stop offset="0" stop-color="#c1714d"/>
      <stop offset="1" stop-color="#c1714d" stop-opacity="0"/>
    </linearGradient>
    <linearGradient id="linear-gradient-15" x1="443.4992" y1="560.1169" x2="425.3813" y2="464.6961" xlink:href="#linear-gradient-2"/>
    <linearGradient id="linear-gradient-16" x1="376.6364" y1="292.1804" x2="296.2088" y2="427.0149" xlink:href="#linear-gradient-4"/>
    <linearGradient id="linear-gradient-17" x1="333.7585" y1="419.4208" x2="357.9277" y2="309.7297" xlink:href="#linear-gradient-2"/>
    <linearGradient id="linear-gradient-18" x1="474.8305" y1="405.7394" x2="583.2541" y2="295.2571" xlink:href="#linear-gradient"/>
    <linearGradient id="linear-gradient-19" x1="581.9751" y1="395.1288" x2="588.3436" y2="343.2015" gradientUnits="userSpaceOnUse">
      <stop offset="0.1613" stop-color="#dd9043"/>
      <stop offset="1" stop-color="#eaa24f"/>
    </linearGradient>
    <linearGradient id="linear-gradient-20" x1="548.859" y1="565.0541" x2="556.589" y2="396.2826" xlink:href="#linear-gradient-2"/>
    <linearGradient id="linear-gradient-21" x1="654.9808" y1="383.8549" x2="537.1609" y2="453.328" xlink:href="#linear-gradient-4"/>
    <linearGradient id="linear-gradient-22" x1="605.5931" y1="660.0822" x2="632.5806" y2="339.5227" gradientUnits="userSpaceOnUse">
      <stop offset="0" stop-color="#ad79fd"/>
      <stop offset="1" stop-color="#ffb4fe"/>
    </linearGradient>
    <linearGradient id="linear-gradient-23" x1="683.9259" y1="666.677" x2="710.9135" y2="346.1175" xlink:href="#linear-gradient-22"/>
    <linearGradient id="linear-gradient-24" x1="810.4591" y1="498.9618" x2="703.9945" y2="380.3875" gradientUnits="userSpaceOnUse">
      <stop offset="0" stop-color="#ad79fd"/>
      <stop offset="1" stop-color="#ad79fd" stop-opacity="0"/>
    </linearGradient>
    <linearGradient id="linear-gradient-25" x1="748.9244" y1="672.3342" x2="775.9119" y2="351.7747" xlink:href="#linear-gradient-22"/>
    <linearGradient id="linear-gradient-26" x1="692.085" y1="602.8427" x2="690.3884" y2="378.3389" gradientUnits="userSpaceOnUse">
      <stop offset="0" stop-color="#f4d0e9"/>
      <stop offset="1" stop-color="#fff0fa"/>
    </linearGradient>
    <linearGradient id="linear-gradient-27" x1="769.6986" y1="545.3287" x2="571.5915" y2="370.2888" gradientUnits="userSpaceOnUse">
      <stop offset="0" stop-color="#f4d0e9"/>
      <stop offset="1" stop-color="#f4d0e9" stop-opacity="0"/>
    </linearGradient>
    <linearGradient id="linear-gradient-28" x1="646.17" y1="419.5455" x2="619.5268" y2="396.3102" xlink:href="#linear-gradient-2"/>
    <linearGradient id="linear-gradient-29" x1="700.4037" y1="593.2224" x2="663.5797" y2="466.1796" xlink:href="#linear-gradient-2"/>
    <linearGradient id="linear-gradient-30" x1="769.3646" y1="573.2337" x2="732.5406" y2="446.1909" xlink:href="#linear-gradient-2"/>
    <linearGradient id="linear-gradient-31" x1="780.0506" y1="407.1002" x2="788.5498" y2="500.1667" xlink:href="#linear-gradient-4"/>
    <linearGradient id="linear-gradient-32" x1="770.2969" y1="486.7454" x2="793.6698" y2="449.7738" xlink:href="#linear-gradient-4"/>
    <linearGradient id="linear-gradient-33" x1="497.2968" y1="341.6992" x2="524.1369" y2="356.6104" xlink:href="#linear-gradient-2"/>
    <linearGradient id="linear-gradient-34" x1="511.7989" y1="335.0928" x2="503.3226" y2="317.8754" xlink:href="#linear-gradient-2"/>
    <linearGradient id="linear-gradient-35" x1="516.1284" y1="340.7368" x2="505.3565" y2="326.9629" xlink:href="#linear-gradient-2"/>
    <linearGradient id="linear-gradient-36" x1="499.3625" y1="562.7871" x2="507.0925" y2="394.0156" xlink:href="#linear-gradient-2"/>
    <linearGradient id="linear-gradient-37" x1="535.9155" y1="476.508" x2="571.2615" y2="410.2851" xlink:href="#linear-gradient-4"/>
    <linearGradient id="linear-gradient-38" x1="781.9134" y1="237.0363" x2="810.5042" y2="237.0363" gradientUnits="userSpaceOnUse">
      <stop offset="0" stop-color="#471e26"/>
      <stop offset="1" stop-color="#6d2936"/>
    </linearGradient>
    <linearGradient id="linear-gradient-39" x1="699.5544" y1="326.3464" x2="678.2811" y2="213.7229" xlink:href="#linear-gradient-38"/>
    <linearGradient id="linear-gradient-40" x1="700.3534" y1="381.5788" x2="687.5026" y2="292.7572" xlink:href="#linear-gradient-2"/>
    <linearGradient id="linear-gradient-41" x1="684.2464" y1="303.3136" x2="736.8202" y2="430.9147" xlink:href="#linear-gradient-4"/>
    <linearGradient id="linear-gradient-42" x1="699.6114" y1="381.6861" x2="686.7606" y2="292.8645" xlink:href="#linear-gradient-2"/>
    <linearGradient id="linear-gradient-43" x1="767.2993" y1="361.2598" x2="859.906" y2="48.6196" gradientUnits="userSpaceOnUse">
      <stop offset="0" stop-color="#ffa1a1"/>
      <stop offset="1" stop-color="#ffa1a1" stop-opacity="0"/>
    </linearGradient>
    <linearGradient id="linear-gradient-44" x1="638.1833" y1="314.6135" x2="750.322" y2="-4.8344" xlink:href="#linear-gradient-43"/>
    <linearGradient id="linear-gradient-45" x1="891.1468" y1="473.0529" x2="871.8816" y2="415.2574" xlink:href="#linear-gradient-19"/>
    <linearGradient id="linear-gradient-46" x1="825.9413" y1="453.5615" x2="802.5485" y2="406.7759" xlink:href="#linear-gradient-19"/>
    <linearGradient id="linear-gradient-47" x1="851.0003" y1="475.7127" x2="831.8907" y2="425.3028" gradientUnits="userSpaceOnUse">
      <stop offset="0" stop-color="#ff8a5f"/>
      <stop offset="1" stop-color="#ffb965"/>
    </linearGradient>
    <linearGradient id="linear-gradient-48" x1="838.2593" y1="430.3381" x2="834.9972" y2="391.8922" gradientUnits="userSpaceOnUse">
      <stop offset="0" stop-color="#6ad419"/>
      <stop offset="1" stop-color="#dbe42c"/>
    </linearGradient>
    <linearGradient id="linear-gradient-49" x1="875.4916" y1="453.3365" x2="836.1137" y2="407.9004" xlink:href="#linear-gradient-48"/>
    <linearGradient id="linear-gradient-50" x1="865.3239" y1="464.5118" x2="855.4892" y2="432.4508" gradientUnits="userSpaceOnUse">
      <stop offset="0" stop-color="#c7283a"/>
      <stop offset="1" stop-color="#ef4b4b"/>
    </linearGradient>
    <linearGradient id="linear-gradient-51" x1="864.3056" y1="437.3111" x2="862.4823" y2="431.4939" gradientUnits="userSpaceOnUse">
      <stop offset="0" stop-color="#8f5138"/>
      <stop offset="1" stop-color="#ba6d4d"/>
    </linearGradient>
    <linearGradient id="linear-gradient-52" x1="873.632" y1="462.9886" x2="860.4269" y2="448.0334" gradientUnits="userSpaceOnUse">
      <stop offset="0" stop-color="#feb72b"/>
      <stop offset="1" stop-color="#ffe75e"/>
    </linearGradient>
    <linearGradient id="linear-gradient-53" x1="891.2235" y1="475.2295" x2="873.4841" y2="442.5728" xlink:href="#linear-gradient-52"/>
    <linearGradient id="linear-gradient-54" x1="916.6196" y1="480.5019" x2="889.9337" y2="446.3439" xlink:href="#linear-gradient-52"/>
    <linearGradient id="linear-gradient-55" x1="910.2001" y1="598.5582" x2="828.1925" y2="451.6902" xlink:href="#linear-gradient-12"/>
    <linearGradient id="linear-gradient-56" x1="1016.4299" y1="705.5759" x2="744.5103" y2="363.8874" xlink:href="#linear-gradient-14"/>
    <linearGradient id="linear-gradient-57" x1="583.176" y1="612.8363" x2="560.912" y2="485.3246" gradientUnits="userSpaceOnUse">
      <stop offset="0" stop-color="#3d7ffe"/>
      <stop offset="1" stop-color="#79cffe"/>
    </linearGradient>
    <linearGradient id="linear-gradient-58" x1="569.5675" y1="552.8133" x2="656.1946" y2="475.4966" xlink:href="#linear-gradient-57"/>
    <linearGradient id="linear-gradient-59" x1="586.9429" y1="496.4698" x2="633.3767" y2="485.8089" xlink:href="#linear-gradient-57"/>
    <linearGradient id="linear-gradient-60" x1="567.2251" y1="542.4906" x2="563.6715" y2="464.548" xlink:href="#linear-gradient-57"/>
    <linearGradient id="linear-gradient-61" x1="569.4237" y1="504.4911" x2="569.4237" y2="450.0019" xlink:href="#linear-gradient-57"/>
    <linearGradient id="linear-gradient-62" x1="268.1528" y1="245.2622" x2="185.4464" y2="632.5228" gradientUnits="userSpaceOnUse">
      <stop offset="0" stop-color="#fff"/>
      <stop offset="1" stop-color="#fff" stop-opacity="0"/>
    </linearGradient>
    <linearGradient id="linear-gradient-63" x1="323.4502" y1="592.1333" x2="287.7735" y2="478.8739" gradientUnits="userSpaceOnUse">
      <stop offset="0" stop-color="#575965"/>
      <stop offset="1" stop-color="#939498"/>
    </linearGradient>
    <linearGradient id="linear-gradient-64" x1="377.8265" y1="611.274" x2="270.7602" y2="436.7955" xlink:href="#linear-gradient-63"/>
    <linearGradient id="linear-gradient-65" x1="275.5243" y1="550.8429" x2="344.291" y2="550.8429" gradientUnits="userSpaceOnUse">
      <stop offset="0" stop-color="#2b2e33"/>
      <stop offset="0.9987" stop-color="#4c4c4c"/>
    </linearGradient>
    <linearGradient id="linear-gradient-66" x1="285.5497" y1="550.6935" x2="354.1086" y2="550.6935" xlink:href="#linear-gradient-65"/>
    <linearGradient id="linear-gradient-67" x1="342.4671" y1="650.7773" x2="311.5211" y2="550.7186" xlink:href="#linear-gradient-63"/>
    <linearGradient id="linear-gradient-68" x1="149.8578" y1="572.6804" x2="149.8578" y2="516.7639" xlink:href="#linear-gradient-12"/>
  </defs>
  <g style="isolation: isolate">
    <g id="Illustration">
      <g id="Background">
        <path d="M893.5139,569.0417s86.2361-64.3612,67.65-173.1552C946,307.1207,890.9367,245.2543,820.6831,221.0289s-92.2371-28.2563-193.8726-86.3972-135.072-87.69-213.4788-87.69c-166.3825,0-174.1932,124.2634-254.9264,188.7305C108.8221,275.265,52.7905,336.0162,44.8981,412.2475c-10.1222,97.7687,52.0352,156.5376,63.399,163.1016S893.5139,569.0417,893.5139,569.0417Z" fill="#ffedec"/>
        <g clip-path="url(#clip-path)">
          <g>
            <path d="M1083.04,2.663V1.8867h-58.2359V-7.8241h-.7931V1.8867h-28.99V-7.8241h-.7763V1.8867h-28.99V-7.8241h-.7931V1.8867h-28.99V-7.8241h-.776V1.8867h-28.99V-7.8241h-.7762V1.8867h-28.99V-7.8241h-.7931V1.8867h-28.99V-7.8241H845.38V1.8867h-28.99V-7.8241h-.7929V1.8867h-28.99V-7.8241H785.83V1.8867H756.84V-7.8241h-.7763V1.8867H727.852V-6.6685h-.7931V1.8867h-28.99V-6.6685h-.7763V1.8867h-28.99V-6.6685h-.793V1.8867h-28.99V-6.6685h-.7761V1.8867h-28.99V-6.6685h-.7763V1.8867h-28.99V-6.6685h-.7931V1.8867h-28.99V-6.6685h-.7761V1.8867h-28.99V-6.6685h-.793V1.8867h-28.99V-6.6685h-.7763V1.8867h-28.99V-6.6685h-.7762V1.8867h-28.079V-6.6685h-.7762V1.8867H402.1766V-6.6685H401.4V1.8867H372.41V-6.6685h-.7762V1.8867h-28.99V-6.6685h-.7929V1.8867H312.86V-6.6685h-.7761V1.8867h-28.99V-6.6685h-.7932V1.8867h-28.99V-6.6685h-.7762V1.8867h-28.99V-6.6685h-.7761V1.8867h-28.99V-6.6685h-.7931V1.8867h-28.99V-6.6685h-.7761V1.8867h-28.99V-6.6685h-.7932V1.8867H105.224V-7.8241h-.7763V1.8867h-28.99V-7.8241h-.7763V1.8867h-28.99V-7.8241h-.793V1.8867h-28.99V-7.8241h-.7761V1.8867h-28.99V-7.8241h-.793V1.8867h-28.99V-7.8241h-.7762V1.8867h-28.99V-7.8241h-.7761V1.8867h-28.99V-7.8241h-.7931V1.8867h-28.99V-7.8241h-.7763V1.8867h-28.99V-7.8241h-.7931V1.8867h-58.2358V2.663h58.2358v28.99h-58.2358v.7933h58.2358v28.99h-58.2358v.7762h58.2358v28.99h-58.2358v.7762h58.2358v29.007h-58.2358v.7762h58.2358v28.99h-58.2358v.7763h58.2358v28.99h-58.2358v.7932h58.2358v28.99h-58.2358v.7762h58.2358v28.99h-58.2358v.7762h58.2358v27.6572h-58.2358v.7763h58.2358v28.99h-58.2358v.7932h58.2358v28.99h-58.2358v.7763h58.2358v28.99h-58.2358v.7761h58.2358v29.007h-58.2358v.7762h58.2358v28.99h-58.2358v.7763h58.2358v28.99h-58.2358v.7931h58.2358v28.99h-58.2358v.7762h58.2358v28.99h-58.2358v.7762h58.2358V535.117h-58.2358v.7762h58.2358v28.99h-58.2358v.7933h58.2358v28.99h-58.2358v.7763h58.2358v28.99h-58.2358v.7762h58.2358v29.0069h-58.2358v.7762h58.2358v28.99h-58.2358v.7763h58.2358v28.99h-58.2358v.793h58.2358v28.99h-58.2358v.7763h58.2358v28.99h-58.2358v.7762h58.2358v17.9463h.7931V774.0749h28.99v17.9463h.7763V774.0749h28.99v17.9463h.7931V774.0749h28.99v17.9463h.7761V774.0749h28.99v17.9463h.7762V774.0749h28.99v17.9463h.793V774.0749h28.99v17.9463h.7761V774.0749h28.99v17.9463h.793V774.0749h28.99v17.9463h.7763V774.0749h28.99v17.9463h.7763V774.0749h28.2112v19.1019h.7932V774.0749h28.99v19.1019h.7761V774.0749h28.99v19.1019h.7931V774.0749h28.99v19.1019h.7761V774.0749h28.99v19.1019h.7762V774.0749h28.99v19.1019h.7932V774.0749h28.99v19.1019h.7761V774.0749h28.99v19.1019h.7929V774.0749h28.99v19.1019h.7762V774.0749H401.4v19.1019h.7763V774.0749h28.0789v19.1019h.7762V774.0749h28.079v19.1019h.7762V774.0749h28.99v19.1019h.7763V774.0749h28.99v19.1019h.793V774.0749h28.99v19.1019h.7761V774.0749h28.99v19.1019h.7931V774.0749h28.99v19.1019h.7763V774.0749h28.99v19.1019h.7761V774.0749h28.99v19.1019h.793V774.0749h28.99v19.1019h.7763V774.0749h28.99v19.1019h.7931V774.0749h28.2113v17.9463h.7763V774.0749h28.99v17.9463h.7762V774.0749h28.99v17.9463h.7929V774.0749h28.99v17.9463h.7761V774.0749h28.99v17.9463h.7931V774.0749h28.99v17.9463h.7762V774.0749h28.99v17.9463h.776V774.0749h28.99v17.9463h.7931V774.0749h28.99v17.9463h.7763V774.0749h28.99v17.9463h.7931V774.0749H1083.04v-.7762h-58.2359v-28.99H1083.04v-.7763h-58.2359v-28.99H1083.04v-.793h-58.2359v-28.99H1083.04v-.7763h-58.2359v-28.99H1083.04v-.7762h-58.2359V625.2093H1083.04v-.7762h-58.2359v-28.99H1083.04v-.7763h-58.2359v-28.99H1083.04v-.7933h-58.2359v-28.99H1083.04v-.7762h-58.2359V507.46H1083.04v-.7762h-58.2359v-28.99H1083.04v-.7762h-58.2359v-28.99H1083.04v-.7931h-58.2359v-28.99H1083.04v-.7763h-58.2359v-28.99H1083.04v-.7762h-58.2359v-29.007H1083.04v-.7761h-58.2359v-28.99H1083.04v-.7763h-58.2359v-28.99H1083.04v-.7932h-58.2359v-28.99H1083.04v-.7763h-58.2359V240.8447H1083.04v-.7762h-58.2359v-28.99H1083.04v-.7762h-58.2359v-28.99H1083.04v-.7932h-58.2359v-28.99H1083.04v-.7763h-58.2359v-28.99H1083.04v-.7762h-58.2359V91.979H1083.04v-.7762h-58.2359v-28.99H1083.04v-.7762h-58.2359v-28.99H1083.04v-.7933h-58.2359V2.663Zm-88.7953,0v28.99h-28.99V2.663Zm0,265.8389h-28.99V240.8447h28.99v27.6572Zm0,266.6151h-28.99V507.46h28.99V535.117ZM-132.9579,507.46h28.99V535.117h-28.99V507.46Zm0-266.6151h28.99v27.6572h-28.99V240.8447Zm1097.42,27.6572h-28.99V240.8447h28.99v27.6572Zm0,266.6151h-28.99V507.46h28.99V535.117ZM-103.1746,507.46h28.99V535.117h-28.99V507.46Zm0-266.6151h28.99v27.6572h-28.99V240.8447Zm1037.87,27.6572h-28.99V240.8447h28.99v27.6572Zm0,266.6151h-28.99V507.46h28.99V535.117ZM-73.4083,507.46h28.99V535.117h-28.99V507.46Zm0-266.6151h28.99v27.6572h-28.99V240.8447Zm978.3374,27.6572h-28.99V240.8447h28.99v27.6572Zm0,266.6151h-28.99V507.46h28.99V535.117ZM-43.6419,507.46h28.99V535.117h-28.99V507.46Zm0-266.6151h28.99v27.6572h-28.99V240.8447Zm918.7877,27.6572h-28.99V240.8447h28.99v27.6572Zm0,266.6151h-28.99V507.46h28.99V535.117ZM-13.8586,507.46h28.99V535.117h-28.99V507.46Zm0-266.6151h28.99v27.6572h-28.99V240.8447ZM845.38,268.5019h-28.99V240.8447h28.99v27.6572Zm0,266.6151h-28.99V507.46h28.99V535.117ZM15.9078,507.46h28.99V535.117h-28.99V507.46Zm0-266.6151h28.99v27.6572h-28.99V240.8447Zm799.6884,27.6572h-28.99V240.8447h28.99v27.6572Zm0,266.6151h-28.99V507.46h28.99V535.117ZM45.6911,507.46h28.99V535.117h-28.99V507.46Zm0-266.6151h28.99v27.6572h-28.99V240.8447ZM785.83,268.5019H756.84V240.8447h28.99v27.6572Zm0,266.6151H756.84V507.46h28.99V535.117ZM75.4575,507.46h28.99V535.117h-28.99V507.46Zm0-266.6151h28.99v27.6572h-28.99V240.8447Zm680.6058,27.6572H727.852V240.8447h28.2113v27.6572ZM607.9765,387.6011h-28.99v-29.007h28.99Zm.7763-29.007h28.99v29.007h-28.99Zm-30.5595,29.007h-28.99v-29.007h28.99Zm-29.7664,0h-28.99v-29.007h28.99Zm-29.7833,0h-28.99v-29.007h28.99Zm-29.7664,0h-28.99v-29.007h28.99Zm-29.7665,0h-28.079v-29.007h28.079Zm-28.8552,0H402.1766v-29.007h28.0789Zm-28.8552,0H372.41v-29.007H401.4Zm-29.7664,0h-28.99v-29.007h28.99Zm-29.7832,0H312.86v-29.007h28.99Zm-29.7665,0h-28.99v-29.007h28.99Zm-29.7833,0h-28.99v-29.007h28.99Zm-29.7664,0h-28.99v-29.007h28.99Zm-29.7663,0h-28.99v-29.007h28.99Zm0,.7762v28.99h-28.99v-28.99Zm.7761,0h28.99v28.99h-28.99Zm29.7664,0h28.99v28.99h-28.99Zm29.7834,0h28.99v28.99h-28.99Zm29.7662,0h28.99v28.99H312.86Zm29.7833,0h28.99v28.99h-28.99Zm29.7665,0H401.4v28.99H372.41Zm29.7665,0h28.0789v28.99H402.1766Zm28.8551,0h28.079v28.99h-28.079Zm28.8552,0h28.99v28.99h-28.99Zm29.7666,0h28.99v28.99h-28.99Zm29.7831,0h28.99v28.99h-28.99Zm29.7664,0h28.99v28.99h-28.99Zm29.7834,0h28.99v28.99h-28.99Zm29.7664,0h28.99v28.99h-28.99Zm29.7663,0h28.99v28.99h-28.99Zm0-.7762v-29.007h28.99v29.007Zm0-29.7831v-28.99h28.99v28.99Zm-.7761,0h-28.99v-28.99h28.99Zm-29.7665,0h-28.99v-28.99h28.99Zm-29.7832,0h-28.99v-28.99h28.99Zm-29.7664,0h-28.99v-28.99h28.99Zm-29.7833,0h-28.99v-28.99h28.99Zm-29.7664,0h-28.99v-28.99h28.99Zm-29.7665,0h-28.079v-28.99h28.079Zm-28.8552,0H402.1766v-28.99h28.0789Zm-28.8552,0H372.41v-28.99H401.4Zm-29.7664,0h-28.99v-28.99h28.99Zm-29.7832,0H312.86v-28.99h28.99Zm-29.7665,0h-28.99v-28.99h28.99Zm-29.7833,0h-28.99v-28.99h28.99Zm-29.7664,0h-28.99v-28.99h28.99Zm-29.7663,0h-28.99v-28.99h28.99Zm-29.7833,0h-28.99v-28.99h28.99Zm0,.7761v29.007h-28.99v-29.007Zm0,29.7832v28.99h-28.99v-28.99Zm0,29.7665v28.99h-28.99v-28.99Zm.7931,0h28.99v28.99h-28.99Zm29.7663,0h28.99v28.99h-28.99Zm29.7664,0h28.99v28.99h-28.99Zm29.7834,0h28.99v28.99h-28.99Zm29.7662,0h28.99v28.99H312.86Zm29.7833,0h28.99v28.99h-28.99Zm29.7665,0H401.4v28.99H372.41Zm29.7665,0h28.0789v28.99H402.1766Zm28.8551,0h28.079v28.99h-28.079Zm28.8552,0h28.99v28.99h-28.99Zm29.7666,0h28.99v28.99h-28.99Zm29.7831,0h28.99v28.99h-28.99Zm29.7664,0h28.99v28.99h-28.99Zm29.7834,0h28.99v28.99h-28.99Zm29.7664,0h28.99v28.99h-28.99Zm29.7663,0h28.99v28.99h-28.99Zm29.7832,0h28.99v28.99h-28.99Zm0-.7763v-28.99h28.99v28.99Zm0-29.7664v-29.007h28.99v29.007Zm0-29.7831v-28.99h28.99v28.99Zm0-29.7666v-28.99h28.99v28.99Zm-.793,0h-28.99v-28.99h28.99Zm-29.7663,0h-28.99v-28.99h28.99Zm-29.7665,0h-28.99v-28.99h28.99Zm-29.7832,0h-28.99v-28.99h28.99Zm-29.7664,0h-28.99v-28.99h28.99Zm-29.7833,0h-28.99v-28.99h28.99Zm-29.7664,0h-28.99v-28.99h28.99Zm-29.7665,0h-28.079v-28.99h28.079Zm-28.8552,0H402.1766v-28.99h28.0789Zm-28.8552,0H372.41v-28.99H401.4Zm-29.7664,0h-28.99v-28.99h28.99Zm-29.7832,0H312.86v-28.99h28.99Zm-29.7665,0h-28.99v-28.99h28.99Zm-29.7833,0h-28.99v-28.99h28.99Zm-29.7664,0h-28.99v-28.99h28.99Zm-29.7663,0h-28.99v-28.99h28.99Zm-29.7833,0h-28.99v-28.99h28.99Zm-29.7664,0h-28.99v-28.99h28.99Zm0,.7763v28.99h-28.99v-28.99Zm0,29.7664v29.007h-28.99v-29.007Zm0,29.7832v28.99h-28.99v-28.99Zm0,29.7665v28.99h-28.99v-28.99Zm0,29.7833v28.99h-28.99v-28.99Zm.7761,0h28.99v28.99h-28.99Zm29.7834,0h28.99v28.99h-28.99Zm29.7663,0h28.99v28.99h-28.99Zm29.7664,0h28.99v28.99h-28.99Zm29.7834,0h28.99v28.99h-28.99Zm29.7662,0h28.99v28.99H312.86Zm29.7833,0h28.99v28.99h-28.99Zm29.7665,0H401.4v28.99H372.41Zm29.7665,0h28.0789v28.99H402.1766Zm28.8551,0h28.079v28.99h-28.079Zm28.8552,0h28.99v28.99h-28.99Zm29.7666,0h28.99v28.99h-28.99Zm29.7831,0h28.99v28.99h-28.99Zm29.7664,0h28.99v28.99h-28.99Zm29.7834,0h28.99v28.99h-28.99Zm29.7664,0h28.99v28.99h-28.99Zm29.7663,0h28.99v28.99h-28.99Zm29.7832,0h28.99v28.99h-28.99Zm29.7666,0h28.99v28.99h-28.99Zm0-.7931v-28.99h28.99v28.99Zm0-29.7665v-28.99h28.99v28.99Zm0-29.7664v-29.007h28.99v29.007Zm0-29.7831v-28.99h28.99v28.99Zm0-29.7666v-28.99h28.99v28.99Zm0-29.7832v-28.99h28.99v28.99Zm-.7763,0h-28.99v-28.99h28.99Zm-29.7833,0h-28.99v-28.99h28.99Zm-29.7663,0h-28.99v-28.99h28.99Zm-29.7665,0h-28.99v-28.99h28.99Zm-29.7832,0h-28.99v-28.99h28.99Zm-29.7664,0h-28.99v-28.99h28.99Zm-29.7833,0h-28.99v-28.99h28.99Zm-29.7664,0h-28.99v-28.99h28.99Zm-29.7665,0h-28.079v-28.99h28.079Zm-28.8552,0H402.1766v-28.99h28.0789Zm-28.8552,0H372.41v-28.99H401.4Zm-29.7664,0h-28.99v-28.99h28.99Zm-29.7832,0H312.86v-28.99h28.99Zm-29.7665,0h-28.99v-28.99h28.99Zm-29.7833,0h-28.99v-28.99h28.99Zm-29.7664,0h-28.99v-28.99h28.99Zm-29.7663,0h-28.99v-28.99h28.99Zm-29.7833,0h-28.99v-28.99h28.99Zm-29.7664,0h-28.99v-28.99h28.99Zm-29.7833,0H105.224v-28.99h28.2112Zm0,.7932v28.99H105.224v-28.99Zm0,29.7663v28.99H105.224v-28.99Zm0,29.7664v29.007H105.224v-29.007Zm0,29.7832v28.99H105.224v-28.99Zm0,29.7665v28.99H105.224v-28.99Zm0,29.7833v28.99H105.224v-28.99Zm0,29.7663v28.99H105.224v-28.99Zm.7932,0h28.99v28.99h-28.99Zm29.7662,0h28.99v28.99h-28.99Zm29.7834,0h28.99v28.99h-28.99Zm29.7663,0h28.99v28.99h-28.99Zm29.7664,0h28.99v28.99h-28.99Zm29.7834,0h28.99v28.99h-28.99Zm29.7662,0h28.99v28.99H312.86Zm29.7833,0h28.99v28.99h-28.99Zm29.7665,0H401.4v28.99H372.41Zm29.7665,0h28.0789v28.99H402.1766Zm28.8551,0h28.079v28.99h-28.079Zm28.8552,0h28.99v28.99h-28.99Zm29.7666,0h28.99v28.99h-28.99Zm29.7831,0h28.99v28.99h-28.99Zm29.7664,0h28.99v28.99h-28.99Zm29.7834,0h28.99v28.99h-28.99Zm29.7664,0h28.99v28.99h-28.99Zm29.7663,0h28.99v28.99h-28.99Zm29.7832,0h28.99v28.99h-28.99Zm29.7666,0h28.99v28.99h-28.99Zm29.7831,0h28.2113v28.99H727.852Zm0-.7762v-28.99h28.2113v28.99Zm0-29.7832v-28.99h28.2113v28.99Zm0-29.7665v-28.99h28.2113v28.99Zm0-29.7664v-29.007h28.2113v29.007Zm0-29.7831v-28.99h28.2113v28.99Zm0-29.7666v-28.99h28.2113v28.99Zm0-29.7832v-28.99h28.2113v28.99Zm-.7931-38.3216v8.5553h-28.99V240.8447h28.99Zm-29.7663,0v8.5553h-28.99V240.8447h28.99Zm-29.7833,0v8.5553h-28.99V240.8447h28.99Zm-29.7663,0v8.5553h-28.99V240.8447h28.99Zm-29.7665,0v8.5553h-28.99V240.8447h28.99Zm-29.7832,0v8.5553h-28.99V240.8447h28.99Zm-29.7664,0v8.5553h-28.99V240.8447h28.99Zm-29.7833,0v8.5553h-28.99V240.8447h28.99Zm-29.7664,0v8.5553h-28.99V240.8447h28.99Zm-29.7665,0v8.5553h-28.079V240.8447h28.079Zm-28.8552,8.5553H402.1766V240.8447h28.0789ZM401.4,259.9466v8.5553H372.41V240.8447H401.4Zm-29.7664,0v8.5553h-28.99V240.8447h28.99Zm-29.7832,0v8.5553H312.86V240.8447h28.99Zm-29.7665,0v8.5553h-28.99V240.8447h28.99Zm-29.7833,0v8.5553h-28.99V240.8447h28.99Zm-29.7664,0v8.5553h-28.99V240.8447h28.99Zm-29.7663,0v8.5553h-28.99V240.8447h28.99Zm-29.7833,0v8.5553h-28.99V240.8447h28.99Zm-29.7664,0v8.5553h-28.99V240.8447h28.99Zm-29.7833,0v8.5553H105.224V240.8447h28.2112Zm-28.99,9.3316h.0025v28.99h-28.99v-28.99Zm0,29.7832h.0025v28.99h-28.99v-28.99Zm0,29.7663h.0025v28.99h-28.99v-28.99Zm0,29.7664h.0025v29.007h-28.99v-29.007Zm0,29.7832h.0025v28.99h-28.99v-28.99Zm0,29.7665h.0025v28.99h-28.99v-28.99Zm0,29.7833h.0025v28.99h-28.99v-28.99Zm0,29.7663h.0025v28.99h-28.99v-28.99Zm.7788,47.7127V507.46h28.2112V535.117H105.224Zm29.0044,1.1556V507.46h28.99V535.117h-28.99Zm29.7662,0V507.46h28.99V535.117h-28.99Zm29.7834,0V507.46h28.99V535.117h-28.99Zm29.7663,0V507.46h28.99V535.117h-28.99Zm29.7664,0V507.46h28.99V535.117h-28.99Zm29.7834,0V507.46h28.99V535.117h-28.99Zm29.7662,0V507.46h28.99V535.117H312.86Zm29.7833,0V507.46h28.99V535.117h-28.99Zm29.7665,0V507.46H401.4V535.117H372.41Zm29.7665,0V507.46h28.0789V535.117H402.1766ZM431.0317,507.46h28.079V535.117h-28.079Zm28.8552,19.1019V507.46h28.99V535.117h-28.99Zm29.7666,0V507.46h28.99V535.117h-28.99Zm29.7831,0V507.46h28.99V535.117h-28.99Zm29.7664,0V507.46h28.99V535.117h-28.99Zm29.7834,0V507.46h28.99V535.117h-28.99Zm29.7664,0V507.46h28.99V535.117h-28.99Zm29.7663,0V507.46h28.99V535.117h-28.99Zm29.7832,0V507.46h28.99V535.117h-28.99Zm29.7666,0V507.46h28.99V535.117h-28.99Zm29.7831,0V507.46h28.2113V535.117H727.852Zm28.99-19.8781H756.84v-28.99h28.99v28.99Zm0-29.7664H756.84v-28.99h28.99v28.99Zm0-29.7832H756.84v-28.99h28.99v28.99Zm0-29.7665H756.84v-28.99h28.99v28.99Zm0-29.7664H756.84v-29.007h28.99v29.007Zm0-29.7831H756.84v-28.99h28.99v28.99Zm0-29.7666H756.84v-28.99h28.99v28.99Zm0-29.7832H756.84v-28.99h28.99v28.99Zm0-58.2H756.84v-28.99h28.99v28.99Zm-.7788,0H727.852v-28.99h28.2113Zm-29.0044,0h-28.99v-28.99h28.99Zm-29.7663,0h-28.99v-28.99h28.99Zm-29.7833,0h-28.99v-28.99h28.99Zm-29.7663,0h-28.99v-28.99h28.99Zm-29.7665,0h-28.99v-28.99h28.99Zm-29.7832,0h-28.99v-28.99h28.99Zm-29.7664,0h-28.99v-28.99h28.99Zm-29.7833,0h-28.99v-28.99h28.99Zm-29.7664,0h-28.99v-28.99h28.99Zm-29.7665,0h-28.079v-28.99h28.079Zm-28.8552,0H402.1766v-28.99h28.0789Zm-28.8552,0H372.41v-28.99H401.4Zm-29.7664,0h-28.99v-28.99h28.99Zm-29.7832,0H312.86v-28.99h28.99Zm-29.7665,0h-28.99v-28.99h28.99Zm-29.7833,0h-28.99v-28.99h28.99Zm-29.7664,0h-28.99v-28.99h28.99Zm-29.7663,0h-28.99v-28.99h28.99Zm-29.7833,0h-28.99v-28.99h28.99Zm-29.7664,0h-28.99v-28.99h28.99Zm-29.7833,0H105.224v-28.99h28.2112Zm-28.9875,0h-28.99v-28.99h28.99Zm-29.7665,0h-28.99v-28.99h28.99Zm0,29.21v28.99h-28.99v-28.99Zm0,29.7832v28.99h-28.99v-28.99Zm0,29.7663v28.99h-28.99v-28.99Zm0,29.7664v29.007h-28.99v-29.007Zm0,29.7832v28.99h-28.99v-28.99Zm0,29.7665v28.99h-28.99v-28.99Zm0,29.7833v28.99h-28.99v-28.99Zm0,29.7663v28.99h-28.99v-28.99Zm0,58.2v28.99h-28.99v-28.99Zm.7763,0h28.99v28.99h-28.99Zm29.7665,0h28.2112v28.99H105.224Zm29.0044,0h28.99v28.99h-28.99Zm29.7662,0h28.99v28.99h-28.99Zm29.7834,0h28.99v28.99h-28.99Zm29.7663,0h28.99v28.99h-28.99Zm29.7664,0h28.99v28.99h-28.99Zm29.7834,0h28.99v28.99h-28.99Zm29.7662,0h28.99v28.99H312.86Zm29.7833,0h28.99v28.99h-28.99Zm29.7665,0H401.4v28.99H372.41Zm29.7665,0h28.0789v28.99H402.1766Zm28.8551,0h28.079v28.99h-28.079Zm28.8552,0h28.99v28.99h-28.99Zm29.7666,0h28.99v28.99h-28.99Zm29.7831,0h28.99v28.99h-28.99Zm29.7664,0h28.99v28.99h-28.99Zm29.7834,0h28.99v28.99h-28.99Zm29.7664,0h28.99v28.99h-28.99Zm29.7663,0h28.99v28.99h-28.99Zm29.7832,0h28.99v28.99h-28.99Zm29.7666,0h28.99v28.99h-28.99Zm29.7831,0h28.2113v28.99H727.852Zm28.9876,0h28.99v28.99H756.84Zm29.7664,0h28.99v28.99h-28.99Zm0-29.21v-28.99h28.99v28.99Zm0-29.7664v-28.99h28.99v28.99Zm0-29.7832v-28.99h28.99v28.99Zm0-29.7665v-28.99h28.99v28.99Zm0-29.7664v-29.007h28.99v29.007Zm0-29.7831v-28.99h28.99v28.99Zm0-29.7666v-28.99h28.99v28.99Zm0-29.7832v-28.99h28.99v28.99Zm0-58.2v-28.99h28.99v28.99Zm0-29.7665v-28.99h28.99v28.99Zm-.7762,0H756.84v-28.99h28.99Zm-29.7665,0H727.852v-28.99h28.2113Zm-29.0044,0h-28.99v-28.99h28.99Zm-29.7663,0h-28.99v-28.99h28.99Zm-29.7833,0h-28.99v-28.99h28.99Zm-29.7663,0h-28.99v-28.99h28.99Zm-29.7665,0h-28.99v-28.99h28.99Zm-29.7832,0h-28.99v-28.99h28.99Zm-29.7664,0h-28.99v-28.99h28.99Zm-29.7833,0h-28.99v-28.99h28.99Zm-29.7664,0h-28.99v-28.99h28.99Zm-29.7665,0h-28.079v-28.99h28.079Zm-28.8552,0H402.1766v-28.99h28.0789Zm-28.8552,0H372.41v-28.99H401.4Zm-29.7664,0h-28.99v-28.99h28.99Zm-29.7832,0H312.86v-28.99h28.99Zm-29.7665,0h-28.99v-28.99h28.99Zm-29.7833,0h-28.99v-28.99h28.99Zm-29.7664,0h-28.99v-28.99h28.99Zm-29.7663,0h-28.99v-28.99h28.99Zm-29.7833,0h-28.99v-28.99h28.99Zm-29.7664,0h-28.99v-28.99h28.99Zm-29.7833,0H105.224v-28.99h28.2112Zm-28.9875,0h-28.99v-28.99h28.99Zm-29.7665,0h-28.99v-28.99h28.99Zm-29.7831,0h-28.99v-28.99h28.99Zm0,.7762v28.99h-28.99v-28.99Zm0,58.2v28.99h-28.99v-28.99Zm0,29.7832v28.99h-28.99v-28.99Zm0,29.7663v28.99h-28.99v-28.99Zm0,29.7664v29.007h-28.99v-29.007Zm0,29.7832v28.99h-28.99v-28.99Zm0,29.7665v28.99h-28.99v-28.99Zm0,29.7833v28.99h-28.99v-28.99Zm0,29.7663v28.99h-28.99v-28.99Zm0,58.2v28.99h-28.99v-28.99Zm0,29.7833v28.99h-28.99v-28.99Zm.793,0h28.99v28.99h-28.99Zm29.7664,0h28.99v28.99h-28.99Zm29.7665,0h28.2112v28.99H105.224Zm29.0044,0h28.99v28.99h-28.99Zm29.7662,0h28.99v28.99h-28.99Zm29.7834,0h28.99v28.99h-28.99Zm29.7663,0h28.99v28.99h-28.99Zm29.7664,0h28.99v28.99h-28.99Zm29.7834,0h28.99v28.99h-28.99Zm29.7662,0h28.99v28.99H312.86Zm29.7833,0h28.99v28.99h-28.99Zm29.7665,0H401.4v28.99H372.41Zm29.7665,0h28.0789v28.99H402.1766Zm28.8551,0h28.079v28.99h-28.079Zm28.8552,0h28.99v28.99h-28.99Zm29.7666,0h28.99v28.99h-28.99Zm29.7831,0h28.99v28.99h-28.99Zm29.7664,0h28.99v28.99h-28.99Zm29.7834,0h28.99v28.99h-28.99Zm29.7664,0h28.99v28.99h-28.99Zm29.7663,0h28.99v28.99h-28.99Zm29.7832,0h28.99v28.99h-28.99Zm29.7666,0h28.99v28.99h-28.99Zm29.7831,0h28.2113v28.99H727.852Zm28.9876,0h28.99v28.99H756.84Zm29.7664,0h28.99v28.99h-28.99Zm29.7831,0h28.99v28.99h-28.99Zm0-.7933v-28.99h28.99v28.99Zm0-58.2v-28.99h28.99v28.99Zm0-29.7664v-28.99h28.99v28.99Zm0-29.7832v-28.99h28.99v28.99Zm0-29.7665v-28.99h28.99v28.99Zm0-29.7664v-29.007h28.99v29.007Zm0-29.7831v-28.99h28.99v28.99Zm0-29.7666v-28.99h28.99v28.99Zm0-29.7832v-28.99h28.99v28.99Zm0-58.2v-28.99h28.99v28.99Zm0-29.7665v-28.99h28.99v28.99Zm0-29.7832v-28.99h28.99v28.99Zm-.7929,0h-28.99v-28.99h28.99Zm-29.7664,0H756.84v-28.99h28.99Zm-29.7665,0H727.852v-28.99h28.2113Zm-29.0044,0h-28.99v-28.99h28.99Zm-29.7663,0h-28.99v-28.99h28.99Zm-29.7833,0h-28.99v-28.99h28.99Zm-29.7663,0h-28.99v-28.99h28.99Zm-29.7665,0h-28.99v-28.99h28.99Zm-29.7832,0h-28.99v-28.99h28.99Zm-29.7664,0h-28.99v-28.99h28.99Zm-29.7833,0h-28.99v-28.99h28.99Zm-29.7664,0h-28.99v-28.99h28.99Zm-29.7665,0h-28.079v-28.99h28.079Zm-28.8552,0H402.1766v-28.99h28.0789Zm-28.8552,0H372.41v-28.99H401.4Zm-29.7664,0h-28.99v-28.99h28.99Zm-29.7832,0H312.86v-28.99h28.99Zm-29.7665,0h-28.99v-28.99h28.99Zm-29.7833,0h-28.99v-28.99h28.99Zm-29.7664,0h-28.99v-28.99h28.99Zm-29.7663,0h-28.99v-28.99h28.99Zm-29.7833,0h-28.99v-28.99h28.99Zm-29.7664,0h-28.99v-28.99h28.99Zm-29.7833,0H105.224v-28.99h28.2112Zm-28.9875,0h-28.99v-28.99h28.99Zm-29.7665,0h-28.99v-28.99h28.99Zm-29.7831,0h-28.99v-28.99h28.99Zm-29.7664,0h-28.99v-28.99h28.99Zm0,.7932v28.99h-28.99v-28.99Zm0,29.7662v28.99h-28.99v-28.99Zm0,58.2v28.99h-28.99v-28.99Zm0,29.7832v28.99h-28.99v-28.99Zm0,29.7663v28.99h-28.99v-28.99Zm0,29.7664v29.007h-28.99v-29.007Zm0,29.7832v28.99h-28.99v-28.99Zm0,29.7665v28.99h-28.99v-28.99Zm0,29.7833v28.99h-28.99v-28.99Zm0,29.7663v28.99h-28.99v-28.99Zm0,58.2v28.99h-28.99v-28.99Zm0,29.7833v28.99h-28.99v-28.99Zm0,29.7663v28.99h-28.99v-28.99Zm.7761,0h28.99v28.99h-28.99Zm29.7833,0h28.99v28.99h-28.99Zm29.7664,0h28.99v28.99h-28.99Zm29.7665,0h28.2112v28.99H105.224Zm29.0044,0h28.99v28.99h-28.99Zm29.7662,0h28.99v28.99h-28.99Zm29.7834,0h28.99v28.99h-28.99Zm29.7663,0h28.99v28.99h-28.99Zm29.7664,0h28.99v28.99h-28.99Zm29.7834,0h28.99v28.99h-28.99Zm29.7662,0h28.99v28.99H312.86Zm29.7833,0h28.99v28.99h-28.99Zm29.7665,0H401.4v28.99H372.41Zm29.7665,0h28.0789v28.99H402.1766Zm28.8551,0h28.079v28.99h-28.079Zm28.8552,0h28.99v28.99h-28.99Zm29.7666,0h28.99v28.99h-28.99Zm29.7831,0h28.99v28.99h-28.99Zm29.7664,0h28.99v28.99h-28.99Zm29.7834,0h28.99v28.99h-28.99Zm29.7664,0h28.99v28.99h-28.99Zm29.7663,0h28.99v28.99h-28.99Zm29.7832,0h28.99v28.99h-28.99Zm29.7666,0h28.99v28.99h-28.99Zm29.7831,0h28.2113v28.99H727.852Zm28.9876,0h28.99v28.99H756.84Zm29.7664,0h28.99v28.99h-28.99Zm29.7831,0h28.99v28.99h-28.99Zm29.7665,0h28.99v28.99h-28.99Zm0-.7763v-28.99h28.99v28.99Zm0-29.7833v-28.99h28.99v28.99Zm0-58.2v-28.99h28.99v28.99Zm0-29.7664v-28.99h28.99v28.99Zm0-29.7832v-28.99h28.99v28.99Zm0-29.7665v-28.99h28.99v28.99Zm0-29.7664v-29.007h28.99v29.007Zm0-29.7831v-28.99h28.99v28.99Zm0-29.7666v-28.99h28.99v28.99Zm0-29.7832v-28.99h28.99v28.99Zm0-58.2v-28.99h28.99v28.99Zm0-29.7665v-28.99h28.99v28.99Zm0-29.7832v-28.99h28.99v28.99Zm0-29.7664v-28.99h28.99v28.99Zm-.7761,0h-28.99v-28.99h28.99Zm-29.7833,0h-28.99v-28.99h28.99Zm-29.7664,0H756.84v-28.99h28.99Zm-29.7665,0H727.852v-28.99h28.2113Zm-29.0044,0h-28.99v-28.99h28.99Zm-29.7663,0h-28.99v-28.99h28.99Zm-29.7833,0h-28.99v-28.99h28.99Zm-29.7663,0h-28.99v-28.99h28.99Zm-29.7665,0h-28.99v-28.99h28.99Zm-29.7832,0h-28.99v-28.99h28.99Zm-29.7664,0h-28.99v-28.99h28.99Zm-29.7833,0h-28.99v-28.99h28.99Zm-29.7664,0h-28.99v-28.99h28.99Zm-29.7665,0h-28.079v-28.99h28.079Zm-28.8552,0H402.1766v-28.99h28.0789Zm-28.8552,0H372.41v-28.99H401.4Zm-29.7664,0h-28.99v-28.99h28.99Zm-29.7832,0H312.86v-28.99h28.99Zm-29.7665,0h-28.99v-28.99h28.99Zm-29.7833,0h-28.99v-28.99h28.99Zm-29.7664,0h-28.99v-28.99h28.99Zm-29.7663,0h-28.99v-28.99h28.99Zm-29.7833,0h-28.99v-28.99h28.99Zm-29.7664,0h-28.99v-28.99h28.99Zm-29.7833,0H105.224v-28.99h28.2112Zm-28.9875,0h-28.99v-28.99h28.99Zm-29.7665,0h-28.99v-28.99h28.99Zm-29.7831,0h-28.99v-28.99h28.99Zm-29.7664,0h-28.99v-28.99h28.99Zm-29.7833,0h-28.99v-28.99h28.99Zm0,.7763v28.99h-28.99v-28.99Zm0,29.7833v28.99h-28.99v-28.99Zm0,29.7662v28.99h-28.99v-28.99Zm0,58.2v28.99h-28.99v-28.99Zm0,29.7832v28.99h-28.99v-28.99Zm0,29.7663v28.99h-28.99v-28.99Zm0,29.7664v29.007h-28.99v-29.007Zm0,29.7832v28.99h-28.99v-28.99Zm0,29.7665v28.99h-28.99v-28.99Zm0,29.7833v28.99h-28.99v-28.99Zm0,29.7663v28.99h-28.99v-28.99Zm0,58.2v28.99h-28.99v-28.99Zm0,29.7833v28.99h-28.99v-28.99Zm0,29.7663v28.99h-28.99v-28.99Zm0,29.7665v29.0069h-28.99V625.2093Zm.793,0h28.99v29.0069h-28.99Zm29.7664,0h28.99v29.0069h-28.99Zm29.7833,0h28.99v29.0069h-28.99Zm29.7664,0h28.99v29.0069h-28.99Zm29.7665,0h28.2112v29.0069H105.224Zm29.0044,0h28.99v29.0069h-28.99Zm29.7662,0h28.99v29.0069h-28.99Zm29.7834,0h28.99v29.0069h-28.99Zm29.7663,0h28.99v29.0069h-28.99Zm29.7664,0h28.99v29.0069h-28.99Zm29.7834,0h28.99v29.0069h-28.99Zm29.7662,0h28.99v29.0069H312.86Zm29.7833,0h28.99v29.0069h-28.99Zm29.7665,0H401.4v29.0069H372.41Zm29.7665,0h28.0789v29.0069H402.1766Zm28.8551,0h28.079v29.0069h-28.079Zm28.8552,0h28.99v29.0069h-28.99Zm29.7666,0h28.99v29.0069h-28.99Zm29.7831,0h28.99v29.0069h-28.99Zm29.7664,0h28.99v29.0069h-28.99Zm29.7834,0h28.99v29.0069h-28.99Zm29.7664,0h28.99v29.0069h-28.99Zm29.7663,0h28.99v29.0069h-28.99Zm29.7832,0h28.99v29.0069h-28.99Zm29.7666,0h28.99v29.0069h-28.99Zm29.7831,0h28.2113v29.0069H727.852Zm28.9876,0h28.99v29.0069H756.84Zm29.7664,0h28.99v29.0069h-28.99Zm29.7831,0h28.99v29.0069h-28.99Zm29.7665,0h28.99v29.0069h-28.99Zm29.7833,0h28.99v29.0069h-28.99Zm0-.7762v-28.99h28.99v28.99Zm0-29.7666v-28.99h28.99v28.99Zm0-29.7833v-28.99h28.99v28.99Zm0-58.2v-28.99h28.99v28.99Zm0-29.7664v-28.99h28.99v28.99Zm0-29.7832v-28.99h28.99v28.99Zm0-29.7665v-28.99h28.99v28.99Zm0-29.7664v-29.007h28.99v29.007Zm0-29.7831v-28.99h28.99v28.99Zm0-29.7666v-28.99h28.99v28.99Zm0-29.7832v-28.99h28.99v28.99Zm0-58.2v-28.99h28.99v28.99Zm0-29.7665v-28.99h28.99v28.99Zm0-29.7832v-28.99h28.99v28.99Zm0-29.7664v-28.99h28.99v28.99Zm0-29.7664V91.979h28.99v29.007Zm-.7931,0h-28.99V91.979h28.99Zm-29.7663,0h-28.99V91.979h28.99Zm-29.7833,0h-28.99V91.979h28.99Zm-29.7664,0H756.84V91.979h28.99Zm-29.7665,0H727.852V91.979h28.2113Zm-29.0044,0h-28.99V91.979h28.99Zm-29.7663,0h-28.99V91.979h28.99Zm-29.7833,0h-28.99V91.979h28.99Zm-29.7663,0h-28.99V91.979h28.99Zm-29.7665,0h-28.99V91.979h28.99Zm-29.7832,0h-28.99V91.979h28.99Zm-29.7664,0h-28.99V91.979h28.99Zm-29.7833,0h-28.99V91.979h28.99Zm-29.7664,0h-28.99V91.979h28.99Zm-29.7665,0h-28.079V91.979h28.079Zm-28.8552,0H402.1766V91.979h28.0789Zm-28.8552,0H372.41V91.979H401.4Zm-29.7664,0h-28.99V91.979h28.99Zm-29.7832,0H312.86V91.979h28.99Zm-29.7665,0h-28.99V91.979h28.99Zm-29.7833,0h-28.99V91.979h28.99Zm-29.7664,0h-28.99V91.979h28.99Zm-29.7663,0h-28.99V91.979h28.99Zm-29.7833,0h-28.99V91.979h28.99Zm-29.7664,0h-28.99V91.979h28.99Zm-29.7833,0H105.224V91.979h28.2112Zm-28.9875,0h-28.99V91.979h28.99Zm-29.7665,0h-28.99V91.979h28.99Zm-29.7831,0h-28.99V91.979h28.99Zm-29.7664,0h-28.99V91.979h28.99Zm-29.7833,0h-28.99V91.979h28.99Zm-29.7665,0h-28.99V91.979h28.99Zm0,.7762v28.99h-28.99v-28.99Zm0,29.7665v28.99h-28.99v-28.99Zm0,29.7833v28.99h-28.99v-28.99Zm0,29.7662v28.99h-28.99v-28.99Zm0,58.2v28.99h-28.99v-28.99Zm0,29.7832v28.99h-28.99v-28.99Zm0,29.7663v28.99h-28.99v-28.99Zm0,29.7664v29.007h-28.99v-29.007Zm0,29.7832v28.99h-28.99v-28.99Zm0,29.7665v28.99h-28.99v-28.99Zm0,29.7833v28.99h-28.99v-28.99Zm0,29.7663v28.99h-28.99v-28.99Zm0,58.2v28.99h-28.99v-28.99Zm0,29.7833v28.99h-28.99v-28.99Zm0,29.7663v28.99h-28.99v-28.99Zm0,29.7665v29.0069h-28.99V625.2093Zm0,29.7831v28.99h-28.99v-28.99Zm.7762,0h28.99v28.99h-28.99Zm29.7833,0h28.99v28.99h-28.99Zm29.7664,0h28.99v28.99h-28.99Zm29.7833,0h28.99v28.99h-28.99Zm29.7664,0h28.99v28.99h-28.99Zm29.7665,0h28.2112v28.99H105.224Zm29.0044,0h28.99v28.99h-28.99Zm29.7662,0h28.99v28.99h-28.99Zm29.7834,0h28.99v28.99h-28.99Zm29.7663,0h28.99v28.99h-28.99Zm29.7664,0h28.99v28.99h-28.99Zm29.7834,0h28.99v28.99h-28.99Zm29.7662,0h28.99v28.99H312.86Zm29.7833,0h28.99v28.99h-28.99Zm29.7665,0H401.4v28.99H372.41Zm29.7665,0h28.0789v28.99H402.1766Zm28.8551,0h28.079v28.99h-28.079Zm28.8552,0h28.99v28.99h-28.99Zm29.7666,0h28.99v28.99h-28.99Zm29.7831,0h28.99v28.99h-28.99Zm29.7664,0h28.99v28.99h-28.99Zm29.7834,0h28.99v28.99h-28.99Zm29.7664,0h28.99v28.99h-28.99Zm29.7663,0h28.99v28.99h-28.99Zm29.7832,0h28.99v28.99h-28.99Zm29.7666,0h28.99v28.99h-28.99Zm29.7831,0h28.2113v28.99H727.852Zm28.9876,0h28.99v28.99H756.84Zm29.7664,0h28.99v28.99h-28.99Zm29.7831,0h28.99v28.99h-28.99Zm29.7665,0h28.99v28.99h-28.99Zm29.7833,0h28.99v28.99h-28.99Zm29.7664,0h28.99v28.99h-28.99Zm0-.7762V625.2093h28.99v29.0069Zm0-29.7831v-28.99h28.99v28.99Zm0-29.7666v-28.99h28.99v28.99Zm0-29.7833v-28.99h28.99v28.99Zm0-58.2v-28.99h28.99v28.99Zm0-29.7664v-28.99h28.99v28.99Zm0-29.7832v-28.99h28.99v28.99Zm0-29.7665v-28.99h28.99v28.99Zm0-29.7664v-29.007h28.99v29.007Zm0-29.7831v-28.99h28.99v28.99Zm0-29.7666v-28.99h28.99v28.99Zm0-29.7832v-28.99h28.99v28.99Zm0-58.2v-28.99h28.99v28.99Zm0-29.7665v-28.99h28.99v28.99Zm0-29.7832v-28.99h28.99v28.99Zm0-29.7664v-28.99h28.99v28.99Zm0-29.7664V91.979h28.99v29.007Zm0-29.7832v-28.99h28.99v28.99Zm-.7762,0h-28.99v-28.99h28.99Zm-29.7833,0h-28.99v-28.99h28.99Zm-29.7663,0h-28.99v-28.99h28.99Zm-29.7833,0h-28.99v-28.99h28.99Zm-29.7664,0H756.84v-28.99h28.99Zm-29.7665,0H727.852v-28.99h28.2113Zm-29.0044,0h-28.99v-28.99h28.99Zm-29.7663,0h-28.99v-28.99h28.99Zm-29.7833,0h-28.99v-28.99h28.99Zm-29.7663,0h-28.99v-28.99h28.99Zm-29.7665,0h-28.99v-28.99h28.99Zm-29.7832,0h-28.99v-28.99h28.99Zm-29.7664,0h-28.99v-28.99h28.99Zm-29.7833,0h-28.99v-28.99h28.99Zm-29.7664,0h-28.99v-28.99h28.99Zm-29.7665,0h-28.079v-28.99h28.079Zm-28.8552,0H402.1766v-28.99h28.0789Zm-28.8552,0H372.41v-28.99H401.4Zm-29.7664,0h-28.99v-28.99h28.99Zm-29.7832,0H312.86v-28.99h28.99Zm-29.7665,0h-28.99v-28.99h28.99Zm-29.7833,0h-28.99v-28.99h28.99Zm-29.7664,0h-28.99v-28.99h28.99Zm-29.7663,0h-28.99v-28.99h28.99Zm-29.7833,0h-28.99v-28.99h28.99Zm-29.7664,0h-28.99v-28.99h28.99Zm-29.7833,0H105.224v-28.99h28.2112Zm-28.9875,0h-28.99v-28.99h28.99Zm-29.7665,0h-28.99v-28.99h28.99Zm-29.7831,0h-28.99v-28.99h28.99Zm-29.7664,0h-28.99v-28.99h28.99Zm-29.7833,0h-28.99v-28.99h28.99Zm-29.7665,0h-28.99v-28.99h28.99Zm-29.7663,0h-28.99v-28.99h28.99Zm0,.7762v29.007h-28.99V91.979Zm0,29.7832v28.99h-28.99v-28.99Zm0,29.7665v28.99h-28.99v-28.99Zm0,29.7833v28.99h-28.99v-28.99Zm0,29.7662v28.99h-28.99v-28.99Zm0,58.2v28.99h-28.99v-28.99Zm0,29.7832v28.99h-28.99v-28.99Zm0,29.7663v28.99h-28.99v-28.99Zm0,29.7664v29.007h-28.99v-29.007Zm0,29.7832v28.99h-28.99v-28.99Zm0,29.7665v28.99h-28.99v-28.99Zm0,29.7833v28.99h-28.99v-28.99Zm0,29.7663v28.99h-28.99v-28.99Zm0,58.2v28.99h-28.99v-28.99Zm0,29.7833v28.99h-28.99v-28.99Zm0,29.7663v28.99h-28.99v-28.99Zm0,29.7665v29.0069h-28.99V625.2093Zm0,29.7831v28.99h-28.99v-28.99Zm0,29.7665v28.99h-28.99v-28.99Zm.7761,0h28.99v28.99h-28.99Zm29.7664,0h28.99v28.99h-28.99Zm29.7833,0h28.99v28.99h-28.99Zm29.7664,0h28.99v28.99h-28.99Zm29.7833,0h28.99v28.99h-28.99Zm29.7664,0h28.99v28.99h-28.99Zm29.7665,0h28.2112v28.99H105.224Zm29.0044,0h28.99v28.99h-28.99Zm29.7662,0h28.99v28.99h-28.99Zm29.7834,0h28.99v28.99h-28.99Zm29.7663,0h28.99v28.99h-28.99Zm29.7664,0h28.99v28.99h-28.99Zm29.7834,0h28.99v28.99h-28.99Zm29.7662,0h28.99v28.99H312.86Zm29.7833,0h28.99v28.99h-28.99Zm29.7665,0H401.4v28.99H372.41Zm29.7665,0h28.0789v28.99H402.1766Zm28.8551,0h28.079v28.99h-28.079Zm28.8552,0h28.99v28.99h-28.99Zm29.7666,0h28.99v28.99h-28.99Zm29.7831,0h28.99v28.99h-28.99Zm29.7664,0h28.99v28.99h-28.99Zm29.7834,0h28.99v28.99h-28.99Zm29.7664,0h28.99v28.99h-28.99Zm29.7663,0h28.99v28.99h-28.99Zm29.7832,0h28.99v28.99h-28.99Zm29.7666,0h28.99v28.99h-28.99Zm29.7831,0h28.2113v28.99H727.852Zm28.9876,0h28.99v28.99H756.84Zm29.7664,0h28.99v28.99h-28.99Zm29.7831,0h28.99v28.99h-28.99Zm29.7665,0h28.99v28.99h-28.99Zm29.7833,0h28.99v28.99h-28.99Zm29.7664,0h28.99v28.99h-28.99Zm29.7663,0h28.99v28.99h-28.99Zm0-.7763v-28.99h28.99v28.99Zm0-29.7664V625.2093h28.99v29.0069Zm0-29.7831v-28.99h28.99v28.99Zm0-29.7666v-28.99h28.99v28.99Zm0-29.7833v-28.99h28.99v28.99Zm0-58.2v-28.99h28.99v28.99Zm0-29.7664v-28.99h28.99v28.99Zm0-29.7832v-28.99h28.99v28.99Zm0-29.7665v-28.99h28.99v28.99Zm0-29.7664v-29.007h28.99v29.007Zm0-29.7831v-28.99h28.99v28.99Zm0-29.7666v-28.99h28.99v28.99Zm0-29.7832v-28.99h28.99v28.99Zm0-58.2v-28.99h28.99v28.99Zm0-29.7665v-28.99h28.99v28.99Zm0-29.7832v-28.99h28.99v28.99Zm0-29.7664v-28.99h28.99v28.99Zm0-29.7664V91.979h28.99v29.007Zm0-29.7832v-28.99h28.99v28.99Zm0-29.7664v-28.99h28.99v28.99Zm-.776,0h-28.99v-28.99h28.99Zm-29.7665,0h-28.99v-28.99h28.99Zm-29.7833,0h-28.99v-28.99h28.99Zm-29.7663,0h-28.99v-28.99h28.99Zm-29.7833,0h-28.99v-28.99h28.99Zm-29.7664,0H756.84v-28.99h28.99Zm-29.7665,0H727.852v-28.99h28.2113Zm-29.0044,0h-28.99v-28.99h28.99Zm-29.7663,0h-28.99v-28.99h28.99Zm-29.7833,0h-28.99v-28.99h28.99Zm-29.7663,0h-28.99v-28.99h28.99Zm-29.7665,0h-28.99v-28.99h28.99Zm-29.7832,0h-28.99v-28.99h28.99Zm-29.7664,0h-28.99v-28.99h28.99Zm-29.7833,0h-28.99v-28.99h28.99Zm-29.7664,0h-28.99v-28.99h28.99Zm-29.7665,0h-28.079v-28.99h28.079Zm-28.8552,0H402.1766v-28.99h28.0789Zm-28.8552,0H372.41v-28.99H401.4Zm-29.7664,0h-28.99v-28.99h28.99Zm-29.7832,0H312.86v-28.99h28.99Zm-29.7665,0h-28.99v-28.99h28.99Zm-29.7833,0h-28.99v-28.99h28.99Zm-29.7664,0h-28.99v-28.99h28.99Zm-29.7663,0h-28.99v-28.99h28.99Zm-29.7833,0h-28.99v-28.99h28.99Zm-29.7664,0h-28.99v-28.99h28.99Zm-29.7833,0H105.224v-28.99h28.2112Zm-28.9875,0h-28.99v-28.99h28.99Zm-29.7665,0h-28.99v-28.99h28.99Zm-29.7831,0h-28.99v-28.99h28.99Zm-29.7664,0h-28.99v-28.99h28.99Zm-29.7833,0h-28.99v-28.99h28.99Zm-29.7665,0h-28.99v-28.99h28.99Zm-29.7663,0h-28.99v-28.99h28.99Zm-29.7833,0h-28.99v-28.99h28.99Zm0,.7762v28.99h-28.99v-28.99Zm0,29.7664v29.007h-28.99V91.979Zm0,29.7832v28.99h-28.99v-28.99Zm0,29.7665v28.99h-28.99v-28.99Zm0,29.7833v28.99h-28.99v-28.99Zm0,29.7662v28.99h-28.99v-28.99Zm0,58.2v28.99h-28.99v-28.99Zm0,29.7832v28.99h-28.99v-28.99Zm0,29.7663v28.99h-28.99v-28.99Zm0,29.7664v29.007h-28.99v-29.007Zm0,29.7832v28.99h-28.99v-28.99Zm0,29.7665v28.99h-28.99v-28.99Zm0,29.7833v28.99h-28.99v-28.99Zm0,29.7663v28.99h-28.99v-28.99Zm0,58.2v28.99h-28.99v-28.99Zm0,29.7833v28.99h-28.99v-28.99Zm0,29.7663v28.99h-28.99v-28.99Zm0,29.7665v29.0069h-28.99V625.2093Zm0,29.7831v28.99h-28.99v-28.99Zm0,29.7665v28.99h-28.99v-28.99Zm0,29.7832v28.99h-28.99v-28.99Zm.7931,0h28.99v28.99h-28.99Zm29.7663,0h28.99v28.99h-28.99Zm29.7664,0h28.99v28.99h-28.99Zm29.7833,0h28.99v28.99h-28.99Zm29.7664,0h28.99v28.99h-28.99Zm29.7833,0h28.99v28.99h-28.99Zm29.7664,0h28.99v28.99h-28.99Zm29.7665,0h28.2112v28.99H105.224Zm29.0044,0h28.99v28.99h-28.99Zm29.7662,0h28.99v28.99h-28.99Zm29.7834,0h28.99v28.99h-28.99Zm29.7663,0h28.99v28.99h-28.99Zm29.7664,0h28.99v28.99h-28.99Zm29.7834,0h28.99v28.99h-28.99Zm29.7662,0h28.99v28.99H312.86Zm29.7833,0h28.99v28.99h-28.99Zm29.7665,0H401.4v28.99H372.41Zm29.7665,0h28.0789v28.99H402.1766Zm28.8551,0h28.079v28.99h-28.079Zm28.8552,0h28.99v28.99h-28.99Zm29.7666,0h28.99v28.99h-28.99Zm29.7831,0h28.99v28.99h-28.99Zm29.7664,0h28.99v28.99h-28.99Zm29.7834,0h28.99v28.99h-28.99Zm29.7664,0h28.99v28.99h-28.99Zm29.7663,0h28.99v28.99h-28.99Zm29.7832,0h28.99v28.99h-28.99Zm29.7666,0h28.99v28.99h-28.99Zm29.7831,0h28.2113v28.99H727.852Zm28.9876,0h28.99v28.99H756.84Zm29.7664,0h28.99v28.99h-28.99Zm29.7831,0h28.99v28.99h-28.99Zm29.7665,0h28.99v28.99h-28.99Zm29.7833,0h28.99v28.99h-28.99Zm29.7664,0h28.99v28.99h-28.99Zm29.7663,0h28.99v28.99h-28.99Zm29.7834,0h28.99v28.99h-28.99Zm0-.793v-28.99h28.99v28.99Zm0-29.7665v-28.99h28.99v28.99Zm0-29.7664V625.2093h28.99v29.0069Zm0-29.7831v-28.99h28.99v28.99Zm0-29.7666v-28.99h28.99v28.99Zm0-29.7833v-28.99h28.99v28.99Zm0-58.2v-28.99h28.99v28.99Zm0-29.7664v-28.99h28.99v28.99Zm0-29.7832v-28.99h28.99v28.99Zm0-29.7665v-28.99h28.99v28.99Zm0-29.7664v-29.007h28.99v29.007Zm0-29.7831v-28.99h28.99v28.99Zm0-29.7666v-28.99h28.99v28.99Zm0-29.7832v-28.99h28.99v28.99Zm0-58.2v-28.99h28.99v28.99Zm0-29.7665v-28.99h28.99v28.99Zm0-29.7832v-28.99h28.99v28.99Zm0-29.7664v-28.99h28.99v28.99Zm0-29.7664V91.979h28.99v29.007Zm0-29.7832v-28.99h28.99v28.99Zm0-29.7664v-28.99h28.99v28.99ZM964.4619,2.663v28.99h-28.99V2.663Zm-29.7663,0v28.99h-28.99V2.663Zm-29.7665,0v28.99h-28.99V2.663Zm-29.7833,0v28.99h-28.99V2.663Zm-29.7663,0v28.99h-28.99V2.663Zm-29.7833,0v28.99h-28.99V2.663Zm-58.7541,0H785.83v28.99H756.84V2.663Zm-.7788,0v28.99H727.852V2.663Zm-29.0044,0v28.99h-28.99V2.663Zm-29.7663,0v28.99h-28.99V2.663Zm-29.7833,0v28.99h-28.99V2.663Zm-29.7663,0v28.99h-28.99V2.663Zm-29.7665,0v28.99h-28.99V2.663Zm-29.7832,0v28.99h-28.99V2.663Zm-29.7664,0v28.99h-28.99V2.663Zm-29.7833,0v28.99h-28.99V2.663Zm-29.7664,0v28.99h-28.99V2.663Zm-29.7665,0v28.99h-28.079V2.663Zm-28.8552,0v28.99H402.1766V2.663Zm-28.8552,0v28.99H372.41V2.663Zm-29.7664,0v28.99h-28.99V2.663Zm-29.7832,0v28.99H312.86V2.663Zm-29.7665,0v28.99h-28.99V2.663Zm-29.7833,0v28.99h-28.99V2.663Zm-29.7664,0v28.99h-28.99V2.663Zm-29.7663,0v28.99h-28.99V2.663Zm-29.7833,0v28.99h-28.99V2.663Zm-29.7664,0v28.99h-28.99V2.663Zm-29.7833,0v28.99H105.224V2.663Zm-28.99,0h.0025v28.99h-28.99V2.663Zm-29.764,0v28.99h-28.99V2.663Zm-29.7831,0v28.99h-28.99V2.663Zm-29.7664,0v28.99h-28.99V2.663Zm-29.7833,0v28.99h-28.99V2.663Zm-29.7665,0v28.99h-28.99V2.663Zm-29.7663,0v28.99h-28.99V2.663Zm-29.7833,0v28.99h-28.99V2.663Zm-58.7565,0h28.99v28.99h-28.99Zm0,29.7834h28.99v28.99h-28.99Zm0,29.7662h28.99v28.99h-28.99Zm0,29.7664h28.99v29.007h-28.99Zm0,29.7832h28.99v28.99h-28.99Zm0,29.7665h28.99v28.99h-28.99Zm0,29.7833h28.99v28.99h-28.99Zm0,29.7662h28.99v28.99h-28.99Zm0,47.7128V240.8447h28.99v27.6572h-28.99Zm0,10.4872h28.99v28.99h-28.99Zm0,29.7832h28.99v28.99h-28.99Zm0,29.7663h28.99v28.99h-28.99Zm0,29.7664h28.99v29.007h-28.99Zm0,29.7832h28.99v28.99h-28.99Zm0,29.7665h28.99v28.99h-28.99Zm0,29.7833h28.99v28.99h-28.99Zm0,29.7663h28.99v28.99h-28.99Zm0,47.7127V507.46h28.99V535.117h-28.99Zm0,10.4871h28.99v28.99h-28.99Zm0,29.7833h28.99v28.99h-28.99Zm0,29.7663h28.99v28.99h-28.99Zm0,29.7665h28.99v29.0069h-28.99Zm0,29.7831h28.99v28.99h-28.99Zm0,29.7665h28.99v28.99h-28.99Zm0,29.7832h28.99v28.99h-28.99Zm0,58.7566v-28.99h28.99v28.99Zm29.7663,0v-28.99h28.99v28.99Zm29.7833,0v-28.99h28.99v28.99Zm29.7663,0v-28.99h28.99v28.99Zm29.7664,0v-28.99h28.99v28.99Zm29.7833,0v-28.99h28.99v28.99Zm29.7664,0v-28.99h28.99v28.99Zm29.7833,0v-28.99h28.99v28.99Zm58.7541,0H75.4575v-28.99h28.99v28.99Zm.7788,0v-28.99h28.2112v28.99Zm29.0044,0v-28.99h28.99v28.99Zm29.7662,0v-28.99h28.99v28.99Zm29.7834,0v-28.99h28.99v28.99Zm29.7663,0v-28.99h28.99v28.99Zm29.7664,0v-28.99h28.99v28.99Zm29.7834,0v-28.99h28.99v28.99Zm29.7662,0v-28.99h28.99v28.99Zm29.7833,0v-28.99h28.99v28.99Zm29.7665,0v-28.99H401.4v28.99Zm29.7665,0v-28.99h28.0789v28.99Zm28.8551,0v-28.99h28.079v28.99Zm28.8552,0v-28.99h28.99v28.99Zm29.7666,0v-28.99h28.99v28.99Zm29.7831,0v-28.99h28.99v28.99Zm29.7664,0v-28.99h28.99v28.99Zm29.7834,0v-28.99h28.99v28.99Zm29.7664,0v-28.99h28.99v28.99Zm29.7663,0v-28.99h28.99v28.99Zm29.7832,0v-28.99h28.99v28.99Zm29.7666,0v-28.99h28.99v28.99Zm29.7831,0v-28.99h28.2113v28.99Zm28.99,0H756.84v-28.99h28.99v28.99Zm29.7639,0v-28.99h28.99v28.99Zm29.7831,0v-28.99h28.99v28.99Zm29.7665,0v-28.99h28.99v28.99Zm29.7833,0v-28.99h28.99v28.99Zm29.7664,0v-28.99h28.99v28.99Zm29.7663,0v-28.99h28.99v28.99Zm29.7834,0v-28.99h28.99v28.99Zm58.7564,0h-28.99v-28.99h28.99Zm0-29.7665h-28.99v-28.99h28.99Zm0-29.7831h-28.99v-28.99h28.99Zm0-29.7665h-28.99v-28.99h28.99Zm0-29.7664h-28.99V625.2093h28.99Zm0-29.7831h-28.99v-28.99h28.99Zm0-29.7666h-28.99v-28.99h28.99Zm0-29.7833h-28.99v-28.99h28.99Zm0-39.4771v9.7109h-28.99V507.46h28.99Zm0-18.7225h-28.99v-28.99h28.99Zm0-29.7664h-28.99v-28.99h28.99Zm0-29.7832h-28.99v-28.99h28.99Zm0-29.7665h-28.99v-28.99h28.99Zm0-29.7664h-28.99v-29.007h28.99Zm0-29.7831h-28.99v-28.99h28.99Zm0-29.7666h-28.99v-28.99h28.99Zm0-29.7832h-28.99v-28.99h28.99Zm0-39.4772v9.7109h-28.99V240.8447h28.99Zm0-18.7225h-28.99v-28.99h28.99Zm0-29.7665h-28.99v-28.99h28.99Zm0-29.7832h-28.99v-28.99h28.99Zm0-29.7664h-28.99v-28.99h28.99Zm0-29.7664h-28.99V91.979h28.99Zm0-29.7832h-28.99v-28.99h28.99Zm0-29.7664h-28.99v-28.99h28.99Zm0-29.7833h-28.99V2.663h28.99Z" fill="#fff"/>
            <g id="Kitchen_Hood" data-name="Kitchen Hood">
              <polygon points="278.13 163.431 461.074 163.431 461.074 187.771 278.13 187.771 95.186 187.771 95.186 163.431 278.13 163.431" fill="#fff"/>
              <polygon points="278.13 19.054 370.61 19.054 370.61 134.059 278.13 134.059 185.65 134.059 185.65 19.054 278.13 19.054" fill="#ffd9d9"/>
              <polygon points="185.65 134.059 278.13 134.059 370.61 134.059 461.074 163.431 278.13 163.431 95.186 163.431 185.65 134.059" fill="#ffcbca"/>
              <rect x="425.1046" y="169.0188" width="5.2733" height="13.1653" transform="translate(855.4825 351.2028) rotate(-180)" fill="#ffa1a1"/>
              <rect x="411.1566" y="169.0188" width="5.2733" height="13.1653" transform="translate(827.5866 351.2028) rotate(-180)" fill="#ffa1a1"/>
              <rect x="397.2087" y="169.0188" width="5.2733" height="13.1653" transform="translate(799.6906 351.2028) rotate(-180)" fill="#ffa1a1"/>
              <rect x="383.2607" y="169.0188" width="5.2733" height="13.1653" transform="translate(771.7947 351.2028) rotate(-180)" fill="#ffa1a1"/>
            </g>
            <g id="Kitchen_Tool" data-name="Kitchen Tool">
              <rect x="165.8255" y="211.8931" width="150.5958" height="4.7392" fill="#ffa1a1"/>
              <circle cx="315.4348" cy="214.2627" r="4.5024" fill="#ffa1a1"/>
              <circle cx="165.8255" cy="214.2627" r="4.5024" fill="#ffa1a1"/>
              <g>
                <g>
                  <path d="M210.9471,292.51h-2.7355a4.7014,4.7014,0,0,1-4.7015-4.7014V231.82h-2.75v55.9884a4.7014,4.7014,0,0,1-4.7014,4.7014h-2.7355a6.2248,6.2248,0,0,0-6.2248,6.2249v29.94a6.2248,6.2248,0,0,0,6.2248,6.2249h17.6233a6.225,6.225,0,0,0,6.225-6.225v-29.94A6.2248,6.2248,0,0,0,210.9471,292.51Zm-14.8457,35.9361h-2.4542V298.9638h2.4542Zm7.2609,0h-2.454V298.9638h2.454Zm7.2611,0h-2.4542V298.9638h2.4542Z" fill="#ffcbca"/>
                  <rect x="197.5888" y="208.5699" width="9.093" height="32.4951" rx="4.5465" fill="#ffa1a1"/>
                </g>
                <g>
                  <path d="M252.0526,306.502l-4.7987-3.3292a9.4976,9.4976,0,0,1-4.0838-7.8036v-61.38H240.164v61.38a9.4976,9.4976,0,0,1-4.0838,7.8036l-4.7987,3.3292a2.9954,2.9954,0,0,0-1.2879,2.4611v16.3742a1.6426,1.6426,0,0,0,1.6426,1.6426h20.0617a1.6427,1.6427,0,0,0,1.6427-1.6427V308.9633A2.9955,2.9955,0,0,0,252.0526,306.502Z" fill="#ffcbca"/>
                  <rect x="236.6965" y="208.5699" width="9.9412" height="35.5262" rx="4.9706" fill="#ffa1a1"/>
                </g>
                <g>
                  <path d="M282.85,291.9564V233.9888h-3.0061v58.0239a7.7486,7.7486,0,0,1-4.3982,6.842,12.974,12.974,0,0,0-7.0674,12.2415,13.1246,13.1246,0,0,0,12.5962,12.3026,12.9834,12.9834,0,0,0,6.2689-24.5465A7.7937,7.7937,0,0,1,282.85,291.9564Z" fill="#ffcbca"/>
                  <rect x="276.3767" y="208.5699" width="9.9412" height="35.5262" rx="4.9706" fill="#ffa1a1"/>
                  <circle cx="281.3473" cy="310.4181" r="11.5634" fill="#ffcbca"/>
                  <path d="M290.0818,302.87a11.5476,11.5476,0,0,0-12.3808,18.5116A11.5577,11.5577,0,1,1,290.0818,302.87Z" fill="#ffa1a1"/>
                </g>
              </g>
            </g>
          </g>
        </g>
      </g>
      <g id="Cook_1" data-name="Cook 1">
        <path id="Hair" d="M304.8418,335.6438s37.3029,20.382,104.6019,4.4225c0,0-3.8456-47.6862-4.6148-75.1826,0,0,3.4611-19.4206-11.3447-32.6881s-35.5723-3.2688-35.5723-3.2688-18.4591-5.5762-31.5344,9.6141S305.2264,299.8792,304.8418,335.6438Z" fill="url(#linear-gradient)"/>
        <g id="Body">
          <path d="M434.783,535.06a7.4089,7.4089,0,0,1-1.7225-.2173c-9.9455-2.3985-16.1135-17.87-16.3716-18.5279l-.6647-1.6954,1.8216.0207c11.5818.1359,18.2763,5.6823,20.68,10.8276,1.4389,3.0808,1.4022,6.1328-.0951,7.9656A4.539,4.539,0,0,1,434.783,535.06ZM419.7442,517.173c1.87,4.0092,7.0029,13.6224,13.8915,15.2826a2.79,2.79,0,0,0,2.8939-.5769c.882-1.0786.7925-3.1878-.2277-5.3722C434.346,522.32,428.9986,517.825,419.7442,517.173Z" fill="#ffcbca"/>
          <path d="M416.6043,517.3073l.0583-3.1256c.13-.4074,3.2781-10.0014,10.9777-11.77,2.2459-.5225,3.4148.1566,3.998.8134a3.8254,3.8254,0,0,1,.3787,3.9452c-1.4061,3.9437-6.7879,8.7567-13.9914,9.9088Zm12.5165-12.6268a4.2492,4.2492,0,0,0-.9308.1214c-5.3642,1.2336-8.2021,7.5438-8.9723,9.53,5.7741-1.4525,9.5675-5.4057,10.4879-7.9864.28-.7862.2477-1.3231.0991-1.4909A.9736.9736,0,0,0,429.1208,504.6805Z" fill="#ffcbca"/>
          <path d="M174.4063,370.5156l-3.3685-7.087s-5.1439-1.91-7.0612-3.5506-2.0109-5.0071-.795-5.0539c1.1475-.0441,4.7552.7865,10.2272,1.2338a3.0613,3.0613,0,0,1,1.7476.7232l11.8794,10.2564S183.0419,373.0649,174.4063,370.5156Z" fill="url(#linear-gradient-2)"/>
          <g id="Egg">
            <ellipse cx="156.68" cy="340.6144" rx="15.1256" ry="20.0935" fill="#e87027"/>
            <ellipse cx="159.2521" cy="335.8636" rx="8.3464" ry="12.5558" fill="#fd9560"/>
            <ellipse cx="161.4857" cy="329.0005" rx="2.001" ry="3.0102" transform="translate(-97.794 69.9773) rotate(-18.8848)" fill="#ffbaab"/>
          </g>
          <g>
            <path d="M249.0686,421.3925l-25.9631,41.5531-21.1569-77.2019a17.91,17.91,0,0,0-4.3322-7.6477l-10.5806-11.0585s-5.132,3.4508-14.4226,3.5393-11.6482-3.8317-12.2969-7.547.059-8.4922-.8846-9.4947-3.8182-.158-4.7672,6.3429c0,0-.187-6.736-.4821-8.3591s-1.5739-2.9509-2.5084-2.5575-1.7214,7.6234-1.7214,7.6234-2.9509-7.23-4.6232-8.607-3.492-1.0329-2.8526,1.9181,3.0265,16.0424,3.0265,16.0424-4.1153-7.9922-5.8187-10.2634-4.8263-2.328-5.4509-1.59c-.5475.6471,4.3381,9.8072,7.3891,16.9568a8.4569,8.4569,0,0,0,4.1648,4.3238c6.8932,3.2694,24.2567,11.132,37.4063,13.9173l18.0982,115.6124A16.4835,16.4835,0,0,0,217.5773,518.83h0a16.4835,16.4835,0,0,0,12.8606-6.1728l60.207-75.0965Z" fill="url(#linear-gradient-3)"/>
            <path d="M249.0687,421.3924l-5.2028,8.3269c3.2668,5.6917,12.9927,19.9429,31.5264,26.8655L290.6449,437.56Z" fill="url(#linear-gradient-4)"/>
            <path d="M156.693,372.1726a.6138.6138,0,0,1-.5433-.326c-2.2387-4.2225-2.1052-11.6665-2.0988-11.9812a.5837.5837,0,0,1,.6263-.6009.614.614,0,0,1,.6009.6264c-.0016.0743-.1327,7.4416,1.9566,11.38a.6133.6133,0,0,1-.5417.9013Z" fill="#ff9c85"/>
            <path d="M151.3152,371.8818a.6126.6126,0,0,1-.5377-.3172c-2.0549-3.7184-1.4637-14.5555-1.4373-15.0149a.6052.6052,0,0,1,.6479-.5777.614.614,0,0,1,.5777.648c-.0064.1086-.5984,10.941,1.2855,14.3517a.6138.6138,0,0,1-.5361.91Z" fill="#ff9c85"/>
            <path d="M146.5334,372.1726a.6136.6136,0,0,1-.6024-.5026l-1.649-8.9907a.6133.6133,0,1,1,1.2064-.2221l1.649,8.9907a.6124.6124,0,0,1-.4921.7143A.5946.5946,0,0,1,146.5334,372.1726Z" fill="#ff9c85"/>
          </g>
          <path d="M333.0428,347.84s-14.2723,2.1452-21.6662,2.1452c0,0-9.0744-4.9293-17.4766,0s-12.8582,19.8573-24.1938,35.6527-19.3261,19.14-22.2994,26.2018,8.734,24.1577,29.5468,31.2192S303.7129,425.22,303.7129,425.22Z" fill="url(#linear-gradient-5)"/>
          <path d="M419.7446,419.7416l-.5564,12.3047-.9163,20.29L311.57,433.0281V391.6467l21.4679-43.803,51.2973-1.6363,3.9107.3272s19.6353.4418,24.6913-.36c0,0,.4582-.2945,1.2764-.7363Z" fill="url(#linear-gradient-6)"/>
          <path d="M284.3755,566.5809H426.6169s-12.4193-30.0093-7.756-113.5739c0,0-19.7662-21.9916-30.6146-50.5936,0,0,4.9578-44.5721,4.647-51.7718-.2782-6.3814-6.552-9.3565-11.6409-10.5837l3.0832,6.1495a4.3457,4.3457,0,0,1,.4908.0327c1.4563.2945,2.2417,1.9145,2.5854,4.3034.6544,4.5979-.3764,12.0429-1.6363,18.3263-1.98,9.8994-9.0814,30.5656-9.0814,30.5656-32.9545,9.0322-58.7586-4.8925-58.7586-4.8925s3.78-19.21,10.93-34.0836a62.6006,62.6006,0,0,1,4.3526-7.805c2.7489-4.1888,4.7779-5.5961,5.9069-6.0706,0,0,.0164.0164.0164,0a2.1131,2.1131,0,0,1,1.0471-.2127l1.2626-6.3131a29.6093,29.6093,0,0,0-13.9928,12.0073c-5.8251,9.2614-21.4515,35.7363-25.7385,43.9994-4.2871,8.2468-7.2488,20.4535-6.48,33.8873.7527,13.4338,3.9761,33.2654,3.3871,56.3206C298.0547,509.3276,289.0552,555.6342,284.3755,566.5809Z" fill="url(#linear-gradient-7)"/>
          <path d="M454.7684,425.9755l1.2725,73.1254A12.3431,12.3431,0,0,1,443.7,511.6587h0a12.343,12.343,0,0,1-9.3213-4.252L405.42,474.0444l11.7076-45.892Z" fill="url(#linear-gradient-8)"/>
          <path d="M388.2463,346.5346s19.6312.438,24.6878-.3646c0,0,9.9447-6.5333,20.9007-2.8251s15.5069,12.1359,15.4227,24.5246,4.6838,27.0007,9.1443,34.845,7.8443,17.073-1.8457,23.533-34.1459,9.69-43.2207,3.3838-5.5372-10.6129-4.9219-21.2258S403.9169,364.4912,388.2463,346.5346Z" fill="url(#linear-gradient-9)"/>
          <polygon points="223.106 462.946 227.091 477.49 229.464 452.77 223.106 462.946" fill="url(#linear-gradient-10)"/>
          <path d="M418.838,520.0777c-.1866-2.6782-.3551-5.4716-.4964-8.4136l-.0016-.0054c-44.4769,20.3732-122.1521,0-122.1521,0l-.0013,0c-.3153,2.2346-.6517,4.4942-1.0082,6.7648C360.88,537.6085,409.1686,523.3828,418.838,520.0777Z" fill="#ffe9ea"/>
          <path d="M335.2411,298.342l7.15,48.0281-9.3484,1.47s-1.524,28.8155,23.028,28.5215,29.0832-13.6542,32.1706-29.8262l-6.1119-.3278-2.3819-19.6851Z" fill="url(#linear-gradient-11)"/>
          <path d="M304.8418,401.4211s29.9066,19.9824,79.4861,9.1663c0,0,15.202,30.8225,34.4074,44.7434l.008.0053c.0411-.7826.0734-1.5369.1176-2.3291,0,0-19.7662-21.9916-30.6146-50.5936,0,0,4.8852-44.5693,4.647-51.7718-.2386-7.2125-6.419-9.3565-11.5079-10.5837l.7441,6.15c.18,0,2.5487.1282,2.6961.1446,1.4563.2945,2.2425,1.8022,2.5862,4.1911.6544,4.5979-.3764,12.0429-1.6363,18.3263-1.98,9.8994-9.0814,30.5656-9.0814,30.5656-32.9545,9.0322-58.7586-4.8925-58.7586-4.8925s3.78-19.21,10.93-34.0836a62.6006,62.6006,0,0,1,4.3526-7.805c2.7489-4.1888,4.743-5.2906,5.872-5.7651l3.3008-.5191-.94-6.3122a29.6093,29.6093,0,0,0-13.9928,12.0073c-5.8251,9.2614-21.4515,35.7363-25.7385,43.9994-4.2871,8.2468-7.2488,20.4535-6.48,33.8873.2721,4.8566.8678,10.56,1.4888,16.9387h0S296.4045,419.57,304.8418,401.4211Z" fill="#ffe9ea"/>
          <g id="Recipe_Book" data-name="Recipe Book">
            <path d="M347.113,375.97l2.8766-4.7944s10.3735,2.7023,33.7356,3.4869,34.7729-.2352,37.3052,12.9582Z" fill="#fff"/>
            <path d="M427.4981,454.3109l-6.4677-66.69-74.4563-12.46a2.2849,2.2849,0,0,0-2.6349,2.6047l9.7123,62.4555a2.285,2.285,0,0,0,1.8763,1.9018Z" fill="url(#linear-gradient-12)"/>
            <path d="M421.03,387.6207l71.6613-24.8755a2.2849,2.2849,0,0,1,3.0339,2.1207l1.0448,63.01a2.285,2.285,0,0,1-1.5148,2.1892l-67.7575,24.2454Z" fill="url(#linear-gradient-13)"/>
            <polygon points="417.127 428.152 442.072 437.885 432.37 448.752 427.498 454.311 417.127 428.152" fill="url(#linear-gradient-14)"/>
            <path d="M492.6917,362.7452l-2.2179-2.3514s-23.2989,9.46-40.1476,12.3392-25.3208,2.05-29.2958,14.8877Z" fill="#fff"/>
            <g>
              <path d="M363.1378,400.4247l-2.1692-2.74-.1057-.0173-1.8725-.3025.3793,2.4515-2.1491-.3466-1.3606-8.8008,4.0206.6491a6.7277,6.7277,0,0,1,2.2019.7356,4.9135,4.9135,0,0,1,1.5719,1.3319,3.891,3.891,0,0,1,.7519,1.7765,2.3356,2.3356,0,0,1-.2343,1.6113,1.9925,1.9925,0,0,1-1.2455.8594l2.52,3.1641Zm-1.5873-6.8323a3.0938,3.0938,0,0,0-1.5336-.6338l-1.7515-.2823.4744,3.0671,1.7515.2823a1.9013,1.9013,0,0,0,1.4106-.1642,1.0007,1.0007,0,0,0,.3294-1.0495A1.925,1.925,0,0,0,361.5505,393.5924Z" fill="#f9c9b4"/>
              <path d="M375.239,400.7848l.2526,1.6334-7.1924-1.161-1.3607-8.8,7.02,1.1321.2526,1.6344-4.883-.7884.2958,1.9129,4.3125.6952.2449,1.5835-4.3125-.6962.3149,2.0377Z" fill="#f9c9b4"/>
              <path d="M380.314,402.7735a7.1047,7.1047,0,0,1-2.0559-1.9128,5.6635,5.6635,0,0,1-1.0188-2.4506,3.513,3.513,0,0,1,.2938-2.2394,2.82,2.82,0,0,1,1.5537-1.3309,4.8145,4.8145,0,0,1,2.489-.168,7.06,7.06,0,0,1,2.2461.7547,6.76,6.76,0,0,1,1.8177,1.4212l-1.1936.9843a4.3215,4.3215,0,0,0-2.4947-1.4087,2.7739,2.7739,0,0,0-1.4836.11,1.6264,1.6264,0,0,0-.9.83,2.3358,2.3358,0,0,0-.1527,1.3972,3.6654,3.6654,0,0,0,.6031,1.52,4.2093,4.2093,0,0,0,2.8039,1.7755,2.2241,2.2241,0,0,0,2.1741-.6664l1.5671,1.43a2.7572,2.7572,0,0,1-1.4644.9036,5.1144,5.1144,0,0,1-2.1279.05A7.1474,7.1474,0,0,1,380.314,402.7735Z" fill="#f9c9b4"/>
              <path d="M388.1939,395.8865l2.1491.3466,1.3607,8.8009-2.1491-.3467Z" fill="#f9c9b4"/>
              <path d="M400.0954,398.1863a4.9165,4.9165,0,0,1,1.572,1.3329,3.8769,3.8769,0,0,1,.7519,1.7765,2.3812,2.3812,0,0,1-.2286,1.6113,1.9591,1.9591,0,0,1-1.2281.8805,4.9243,4.9243,0,0,1-2.0829.0384l-1.8725-.3015.3755,2.4256-2.1491-.3466-1.3607-8.8008,4.0207.6482A6.72,6.72,0,0,1,400.0954,398.1863Zm-.1824,3.8027a.9877.9877,0,0,0,.3313-1.0448,1.925,1.925,0,0,0-.6808-1.22,3.0976,3.0976,0,0,0-1.5336-.6329l-1.7515-.2823.4724,3.0546,1.7516.2823A1.9342,1.9342,0,0,0,399.913,401.989Z" fill="#f9c9b4"/>
              <path d="M413.0792,406.89l.2525,1.6325-7.1914-1.16-1.3607-8.8008,7.0186,1.1321.2525,1.6344-4.8829-.7874.2957,1.9119,4.3126.6962.2448,1.5825-4.3125-.6953.315,2.0377Z" fill="#f9c9b4"/>
            </g>
            <g>
              <path d="M447.85,399.2025a1.5594,1.5594,0,0,1,.5558,1.149,2.4151,2.4151,0,0,1-.7735,1.972,6.5111,6.5111,0,0,1-2.6467,1.4669l-4.6834,1.5294-.7431-8.2653,4.4249-1.4455a4.4841,4.4841,0,0,1,2.5954-.2517,1.3621,1.3621,0,0,1,1.0259,1.2816,2.2229,2.2229,0,0,1-.2192,1.1776,3.0613,3.0613,0,0,1-.8194,1.0323A1.91,1.91,0,0,1,447.85,399.2025Zm-6.0786-1.3878.1752,1.9479,2.0827-.679a2.9038,2.9038,0,0,0,1.1554-.6335,1.0458,1.0458,0,0,0,.3353-.8616.6067.6067,0,0,0-.4664-.5967,2.2588,2.2588,0,0,0-1.1994.1419Zm4.1567,3.93a1.0708,1.0708,0,0,0,.351-.904q-.0917-1.0285-1.762-.4823l-2.4452.7989.1836,2.0417,2.4451-.7978A3.1711,3.1711,0,0,0,445.9284,401.7443Z" fill="#f7b28f"/>
              <path d="M453.3013,400.5326a3.2377,3.2377,0,0,1-1.91-.9493,3.1935,3.1935,0,0,1-.8371-1.9812,4.6,4.6,0,0,1,.4432-2.4,6.2419,6.2419,0,0,1,1.6355-2.108,7.2649,7.2649,0,0,1,2.4919-1.3857,5.5378,5.5378,0,0,1,2.5877-.2744,3.3041,3.3041,0,0,1,1.9091.9517,3.17,3.17,0,0,1,.8445,1.9786,4.58,4.58,0,0,1-.4507,2.4026,6.3269,6.3269,0,0,1-1.6345,2.1075,7.2127,7.2127,0,0,1-2.4862,1.3829A5.5428,5.5428,0,0,1,453.3013,400.5326Zm3.8662-2.7145a3.6487,3.6487,0,0,0,.9316-1.2707,3.0142,3.0142,0,0,0,.2447-1.4894,2.1361,2.1361,0,0,0-.4913-1.25,1.8749,1.8749,0,0,0-1.1006-.6069,2.997,2.997,0,0,0-1.48.138,3.954,3.954,0,0,0-1.4182.8089,3.5953,3.5953,0,0,0-.9316,1.2707,2.9884,2.9884,0,0,0-.2456,1.49,2.1232,2.1232,0,0,0,.4913,1.25,1.88,1.88,0,0,0,1.1.6069,2.9863,2.9863,0,0,0,1.4793-.1365A3.9689,3.9689,0,0,0,457.1675,397.8181Z" fill="#f7b28f"/>
              <path d="M465.5169,396.5436a3.2527,3.2527,0,0,1-1.9093-.95,3.1894,3.1894,0,0,1-.8379-1.9817,4.59,4.59,0,0,1,.4441-2.3994,6.2494,6.2494,0,0,1,1.6345-2.1086A7.2651,7.2651,0,0,1,467.34,387.72a5.5365,5.5365,0,0,1,2.5877-.2744,3.2918,3.2918,0,0,1,1.9092.9507,3.1534,3.1534,0,0,1,.8444,1.9795,4.5608,4.5608,0,0,1-.4506,2.4017,6.3215,6.3215,0,0,1-1.6345,2.1075,7.2,7.2,0,0,1-2.4863,1.3838A5.56,5.56,0,0,1,465.5169,396.5436Zm3.8662-2.7145a3.65,3.65,0,0,0,.9316-1.2707,3,3,0,0,0,.2448-1.49,2.1155,2.1155,0,0,0-.4914-1.2493,1.8753,1.8753,0,0,0-1.1006-.6068,2.98,2.98,0,0,0-1.48.1369,3.9575,3.9575,0,0,0-1.4183.81,3.6069,3.6069,0,0,0-.9315,1.27,2.9921,2.9921,0,0,0-.2457,1.4909,2.1172,2.1172,0,0,0,.4914,1.2492,1.8813,1.8813,0,0,0,1.1.6079,2.989,2.989,0,0,0,1.4794-.1375A3.9785,3.9785,0,0,0,469.3831,393.8291Z" fill="#f7b28f"/>
              <path d="M478.9328,389.2451,477.8209,390.8l.1878,2.0887-2.0829.681-.7431-8.2654,2.0827-.68.3472,3.8617,3.6648-5.1721,2.3291-.7609-3.4219,4.9093,4.3851,3.2842-2.4462.7993Z" fill="#f7b28f"/>
            </g>
          </g>
          <g>
            <path d="M455.8619,488.8148,426.6169,474.23c3.021-1.6239,7.48-17.2675,10.2949-24.1962,1.7684-4.3529,5.7588-6.5693,8.4813-7.6157a2.0216,2.0216,0,0,0,.23-3.6589,7.9111,7.9111,0,0,0-6.6543-.3091c-5.0883,1.7863-12.0169,7.6864-12.0169,7.6864s-4.5089-9.4509-6.6365-13.1012-3.6092-5.0878-6.0406-4.86a3.0825,3.0825,0,0,0-2.8115,2.4316,5.6891,5.6891,0,0,0-5.0528-.8739c-2.7734.95-2.4314,4.635-2.4314,4.635a3.9209,3.9209,0,0,0-4.1032.4559c-2.1276,1.5577-1.52,5.5847-1.52,5.5847a1.617,1.617,0,0,0-2.09.76,4.0936,4.0936,0,0,0-.76,2.6915s1.5651,7.4891,3.3912,17.3366,6.5215,12.8475,6.5215,12.8475l28.9588,33.3622a12.3428,12.3428,0,0,0,9.3213,4.2521h0a12.3429,12.3429,0,0,0,12.3411-12.5579Z" fill="url(#linear-gradient-15)"/>
            <path d="M405.07,450.0666a.6158.6158,0,0,1-.4937-.2477l-6.7137-9.0442a.6139.6139,0,1,1,.9859-.7319l6.7137,9.0443a.6141.6141,0,0,1-.4922.9795Z" fill="#ff9c85"/>
            <path d="M417.1,443.3114a.6129.6129,0,0,1-.5569-.3548l-5.6358-12.0907a.6133.6133,0,1,1,1.1121-.5177l5.6359,12.0907a.6131.6131,0,0,1-.2972.815A.6069.6069,0,0,1,417.1,443.3114Z" fill="#ff9c85"/>
            <path d="M410.4259,446.8548a.6141.6141,0,0,1-.54-.3212L403.44,434.661a.6135.6135,0,1,1,1.0786-.5848l6.446,11.8726a.6126.6126,0,0,1-.2469.8309A.6033.6033,0,0,1,410.4259,446.8548Z" fill="#ff9c85"/>
          </g>
        </g>
        <g id="Head">
          <path d="M335.2411,298.342l.6019,4.0427c23.6112,48.0767,46.2866,43.823,46.2866,43.823l-2.3819-19.685Z" fill="url(#linear-gradient-16)"/>
          <path d="M335.2411,298.342s-11.095-5.8439-11.7056-13.1706,8.2862-8.5479,11.95-4.8845,2.7911,10.99,4.0122,11.1645,2.8783,0,7.7628-5.1462,5.9312-10.1178,6.9778-10.38-1.4828,6.3673,0,6.7162,6.3673-5.0589,9.3329-10.8156,3.2272-10.8156,4.1867-10.9029,7.2394,6.5417,11.775,9.1584,4.2739,1.3084,2.0061-1.57-3.2272-4.4483-2.9655-5.4078,7.9372,10.7284,19.1017,13.1706c0,0,.5234,23.8118-.4361,35.4125s-5.9311,22.1545-17.4445,19.974-26.3413-11.0773-34.9763-20.1485S335.2411,298.342,335.2411,298.342Z" fill="url(#linear-gradient-17)"/>
          <path d="M375.1413,315.197a5.3494,5.3494,0,0,1-5.4609-5.3011.6125.6125,0,0,1,.5848-.6384.5988.5988,0,0,1,.6408.584c.008.1686.2461,4.1283,4.2353,4.1283a.6136.6136,0,0,1,0,1.2272Z" fill="#f7826b"/>
          <path d="M381.74,310.0125a.6137.6137,0,0,1-.2053-1.192l3.54-1.2584a1.454,1.454,0,0,0,.9508-1.5572l-3.2111-23.8618a.6135.6135,0,0,1,1.2161-.163l3.211,23.861a2.6864,2.6864,0,0,1-1.7561,2.8779l-3.54,1.2584A.6187.6187,0,0,1,381.74,310.0125Z" fill="#f7826b"/>
          <path d="M377.4048,281.6605a.6148.6148,0,0,1-.5441-.3275,2.708,2.708,0,0,0-2.3905-1.2424,3.988,3.988,0,0,0-2.8459,1.1569.6136.6136,0,0,1-.92-.8126,5.2339,5.2339,0,0,1,3.7655-1.5715,3.9254,3.9254,0,0,1,3.4771,1.8975.6133.6133,0,0,1-.5425.9Z" fill="#1d164d"/>
          <path d="M394.8253,283.8609a.6151.6151,0,0,1-.5441-.3276,2.7072,2.7072,0,0,0-2.39-1.2424,3.9934,3.9934,0,0,0-2.8444,1.1545.6137.6137,0,0,1-.922-.81,5.2347,5.2347,0,0,1,3.7664-1.5716,3.9244,3.9244,0,0,1,3.4762,1.8975.6133.6133,0,0,1-.5425.9Z" fill="#1d164d"/>
          <circle cx="391.7053" cy="290.1891" r="1.8766" fill="#1d164d"/>
          <circle cx="373.8494" cy="288.9218" r="1.8766" fill="#1d164d"/>
        </g>
      </g>
      <g id="Cook_2" data-name="Cook 2">
        <g id="Body-2" data-name="Body">
          <g id="Ladle">
            <path d="M567.15,340.68h42.4716c-4.864,16.0158-23.2526,16.609-32.5062,12.5754s-16.9649-8.7791-36.0652-14.355c-16.1737-4.7215-48.2545-10.2936-57.7061-11.89a2.5176,2.5176,0,0,1-2.0207-3.0958h0a2.5127,2.5127,0,0,1,2.7015-1.9015c7.0635.7421,29.953,3.3893,47.9915,8.2234C553.62,336.0259,567.15,340.68,567.15,340.68Z" fill="url(#linear-gradient-18)"/>
            <path d="M573.47,339.1462a.871.871,0,0,0-.8323,1.1456,6.4869,6.4869,0,0,0,4.8954,4.5036c4.46.8176,6.3924-1.0407,8.771,0s.7433,10.8523,4.98,11.7442,1.4123-11.4469,3.4192-11.9672,3.1219,2.1556,6.3182.223a10.8115,10.8115,0,0,0,3.6754-3.97,1.1207,1.1207,0,0,0-.9694-1.6795Z" fill="url(#linear-gradient-19)"/>
            <path d="M588.3745,335.2121a11.2122,11.2122,0,0,0,2.76-7.1117c.0524-.6172.017-1.2546.03-1.8771l-.0388-.9443c-.0289-.2939-.0956-.53-.132-.793a9.7607,9.7607,0,0,0-1.3032-3.0707c-.6247-1.0775-1.4568-2.2158-2.1583-3.5935a11.25,11.25,0,0,1-1.3157-4.64,10.802,10.802,0,0,1,3.646-8.1177c-.6611,2.8167-1.1048,5.5139-.5221,7.7165.5556,2.2163,2.1948,3.9447,3.8156,6.5685a10.9805,10.9805,0,0,1,1.618,4.6568c.0116.4287.04.8837.02,1.2829l-.1087,1.1372a11.6422,11.6422,0,0,1-.4678,2.254C593.4314,331.5994,591.3166,334.5526,588.3745,335.2121Z" fill="#fff"/>
            <path d="M580.108,335.2121a7.96,7.96,0,0,0,1.3188-4.8481c.0126-.3895-.0322-.7954-.0507-1.1892a5.6284,5.6284,0,0,0-.1508-1.0458,6.6557,6.6557,0,0,0-.8139-1.7878c-.764-1.2825-2.2661-3.2829-2.2753-5.7738a6.8469,6.8469,0,0,1,2.9657-5.49,11.9335,11.9335,0,0,0,.1819,5.0853c.4443,1.2733,1.4418,2.2686,2.5932,4.1116a7.7874,7.7874,0,0,1,1.1369,3.3729,7.0488,7.0488,0,0,1-.0956,1.7309,9.0364,9.0364,0,0,1-.3832,1.57C583.8858,332.9688,582.24,335.0157,580.108,335.2121Z" fill="#fff"/>
          </g>
          <path d="M593.454,393.8555,544.73,449.3061l-37.0028-84.9609-16.0339,2.7227,33.42,116.6547A15.8387,15.8387,0,0,0,540.34,495.1993h0a15.8386,15.8386,0,0,0,10.6253-4.0927l70.4334-63.7121Z" fill="url(#linear-gradient-20)"/>
          <path d="M586.8378,401.3849c2.5355,5.9007,10.78,22.64,26.4889,33.3108l8.0715-7.3012L593.454,393.8554Z" fill="url(#linear-gradient-21)"/>
          <path d="M669.6258,345.4577s-24.1276,5.1708-32.172,6.8468-14.6364,7.4182-21.787,15.1612S590.59,392.3276,590.59,392.3276s13.3732,28.351,31.0257,37.6231l24.6065-22.2886a211.6715,211.6715,0,0,1,6.8726-35.1267C658.704,352.3865,669.6258,345.4577,669.6258,345.4577Z" fill="url(#linear-gradient-22)"/>
          <path d="M767.8632,431.1057,760.7357,454.27,640.9191,410.9666s10.6366-63.2637,28.7009-65.5119l44.0649-1.26,60.5689,16.1109Z" fill="url(#linear-gradient-23)"/>
          <path d="M760.7357,454.27l7.1274-23.1642.7223-6.611L747.736,383.2928s1.5331,24.0572-3.7432,34.6426-24.2537-13.4767-24.2537-13.4767l-5.6906,32.9379Z" fill="url(#linear-gradient-24)"/>
          <path d="M808.0759,427.6447s-13.9247,9.0651-42.854,4.8925c-2.4708-.3272-5.04-.7854-7.7233-1.3417L737.438,350.8544,773.42,360.083c12.2557,3.06,21.4665,14.6225,23.56,26.1131C799.344,399.1741,802.7375,415.3359,808.0759,427.6447Z" fill="url(#linear-gradient-25)"/>
          <path d="M755.819,495.632c4.7125-36.0635,9.0486-44.7358,9.0486-44.7358s-27.0149-11.863-45.1285-46.4375c0,0,3.3217-38.2725,2.5526-49.121s-5.1051-15.5609-8.6068-15.9373v4.7943s4.4016,3.109,3.1253,18.67-8.5577,39.68-8.5577,39.68H651.3593c-3.1908-14.4156,4.336-33.4291,9.8176-46.0611s8.4431-11.0285,8.4431-11.0285V338.37s-4.9578,1.2272-10.5866,11.3721-13.8593,25.7877-20.6171,37.9616-9.6376,25.7059-8.3122,41.6923c1.3253,16.0028,4.1888,30.3692,3.06,59.2659-1.1454,28.8965-10.3086,69.9834-15.2829,78.05H759.3534S751.09,531.6791,755.819,495.632Z" fill="url(#linear-gradient-26)"/>
          <path d="M755.819,495.632c4.7125-36.0635,9.0486-44.7358,9.0486-44.7358s-11.92-5.2442-25.2313-18.89c0,.0006-4.8623,100.1036-47.7828,134.7054h67.5S751.09,531.6791,755.819,495.632Z" fill="url(#linear-gradient-27)"/>
          <path d="M635.7605,418.9543s-8.99-3.4578-9.6819-4.08,2.42-3.25,6.3624-2.49S658.72,417.64,658.72,417.64l3.5961,8.0221Z" fill="url(#linear-gradient-28)"/>
          <path d="M688.4315,435.3025s-22.161-6.4858-38.13-9.1289-31.7174-3.9647-33.48-5.1761,3.79-3.062,6.5656-3.062,36.0866.5552,36.0866.5552S685.3734,419.3588,688.4315,435.3025Z" fill="url(#linear-gradient-29)"/>
          <path d="M796.6527,530.9894h0a17.0257,17.0257,0,0,1-13.8258-4.6519l-94.3953-91.035a25.662,25.662,0,0,0-11.2085-9.0649c-7.74-3.3216-21.19-6.2506-26.9985-11.29a9.827,9.827,0,0,1-3.4982-5.4864,2.3521,2.3521,0,0,1,3.5249-2.501,53.3785,53.3785,0,0,0,6.1748,3.275c5.3343,2.4053,12.2065,2.5526,22.81,2.5526,10.5866,0,17.9171,10.4231,17.9171,10.4231l74.9905,52.3116-10.8321-43.59c1.3254.2291,2.6344.4418,3.9107.6054,18.9317,2.7326,31.4328-.2127,37.8143-2.5689l8.5446,82.3569A17.0259,17.0259,0,0,1,796.6527,530.9894Z" fill="url(#linear-gradient-30)"/>
          <path d="M665.853,422.8276a.6141.6141,0,0,1-.195-.032,81.0081,81.0081,0,0,1-11.8838-4.757.6134.6134,0,1,1,.5785-1.0818,80.1617,80.1617,0,0,0,11.6952,4.6755.6136.6136,0,0,1-.1949,1.1953Z" fill="#ff9c85"/>
          <path d="M803.0362,429.9683c-6.3815,2.3562-18.8826,5.3015-37.8143,2.5689-1.2763-.1636-2.5853-.3763-3.9107-.6054l2.3416,9.4231c6.78.888,24.5562,2.4662,40.3019-2.5337Z" fill="url(#linear-gradient-31)"/>
          <polygon points="772.143 475.522 787.762 486.418 768.755 461.886 772.143 475.522" fill="url(#linear-gradient-32)"/>
          <path d="M507.7268,364.3452a39.5915,39.5915,0,0,0,6.1493-10.7558c1.997-5.286,6.5475-10.8442,9.9479-12.8255a1.5082,1.5082,0,0,0-.0053-2.6218,5.7133,5.7133,0,0,0-5.1336-.1276c-4.8246,1.9424-8.3792,8.6188-12.8049,3.7455,0,0-3.9234,1.2521-4.2936,9.1511a22.8768,22.8768,0,0,0,4.1549,13.7712Z" fill="url(#linear-gradient-33)"/>
          <path d="M490.2346,349.7473s1.8957-10.8978,4.6773-17.9854a5.8714,5.8714,0,0,1,3.1289-3.2656l17.4544-7.5313a3.5063,3.5063,0,0,1,2.5755-.0823c4.3327,1.5536,18.0292,6.478,18.8459,6.9374.9711.5462-1.8008,3.0666-5.9861,2.2916-5.3257-.9863-8.53-1.9314-8.53-1.9314s-14.4448,1.9372-19.4276,9.2968A49.32,49.32,0,0,1,490.2346,349.7473Z" fill="url(#linear-gradient-34)"/>
          <path d="M532.14,325.983a6.6229,6.6229,0,0,1-1.898.9327c-.6546.1963-2.1272.6545-4.0907,1.309-5.6124,1.8-15.201,4.9415-21.0589,6.8723-2.9944.9819-5.0233,1.6527-5.0233,1.6527l-7.7069,11.503c-1.2927.9654-2.1272,1.489-2.1272,1.489a122.6721,122.6721,0,0,1,4.1725-16.5918l18.6756-8.74a14.3038,14.3038,0,0,1,4.778-1.2933c1.3955-.1268,3.24-.2912,5.1812-.4556,4.68-.4255,9.9486-.8673,10.8649-.8673C535.2819,321.7941,534.3328,324.3958,532.14,325.983Z" fill="url(#linear-gradient-35)"/>
          <path d="M491.6929,367.0679s-2.2692-10.5627-1.4583-17.3206a22.22,22.22,0,0,1,11.7331-16.6085c6.5552-3.5142,25.68-8.7854,26.8292-8.5827s-.27,3.7169-3.5142,5.1361-14.1917,2.9735-19.1251,11.5561-.4161,23.434-.4161,23.434Z" fill="url(#linear-gradient-36)"/>
          <polygon points="552.929 439.975 544.73 449.306 549.856 461.078 552.929 439.975" fill="url(#linear-gradient-37)"/>
        </g>
        <g id="Head-2" data-name="Head">
          <path d="M708.8429,235.8025s-2.0908-14.9392,11.3509-13.6677,20.3286,14.9391,15.6668,23.945-23.0975,5.0857-23.0975,5.0857Z" fill="url(#linear-gradient-38)"/>
          <path d="M654.1724,287.5349s-2.7207-3.841-5.6014-13.7635-1.9205-38.25,13.6034-32.8082c0,0,15.844-19.6849,40.01-11.0427s27.6869,28.3271,26.7267,45.7714-15.2038,30.5676-18.0846,38.57S654.1724,287.5349,654.1724,287.5349Z" fill="url(#linear-gradient-39)"/>
          <path d="M669.6258,329.97v15.4873s1.1123,20.0762,17.0186,21.9117,27.0342-23.1736,27.0342-23.1736V296.9887Z" fill="url(#linear-gradient-40)"/>
          <path d="M690.7344,334.33c11.4606-9.0835,19.5235-25.1616,22.9442-32.9132v-4.2977l-.1917.0135L669.6258,329.97v15.4873S675.2471,346.6049,690.7344,334.33Z" fill="url(#linear-gradient-41)"/>
          <path d="M713.8974,296.9887s-9.0146,14.8569-18.71,23.5467S674.2888,332.457,668.2561,332.17s-11.778-8.5463-13.717-23.3406a229.706,229.706,0,0,1-1.3645-31.9585s11.2157-4.2074,13.3229-16.04c0,0,7.8845,9.6387,15.57,14.818s9.3,5.68,9.3561,4.8452-4.0654-5.6248-2.2276-6.0147,10.0244,9.1334,19.4362,12.1407c0,0,1.6151-7.4069,7.0171-7.1842S722.95,290.6223,713.8974,296.9887Z" fill="url(#linear-gradient-42)"/>
          <circle cx="674.279" cy="313.959" r="2.2198" fill="#721829"/>
          <path d="M667.2124,309.4844a.5879.5879,0,0,1-.1167-.0112l-3.3253-.6416a2.3261,2.3261,0,0,1-1.8631-2.6549l3.795-24.2381a.6071.6071,0,0,1,.7-.5114.6135.6135,0,0,1,.5114.7015l-3.7951,24.2381a1.105,1.105,0,0,0,.8852,1.26l3.3253.6416a.6136.6136,0,0,1-.1166,1.216Z" fill="#f7826b"/>
          <circle cx="659.7889" cy="285.8907" r="1.6193" fill="#471e26"/>
          <circle cx="675.3067" cy="285.8907" r="1.6193" fill="#471e26"/>
          <path d="M662.6487,281.3314a.6135.6135,0,0,1-.5673-.3795,2.4187,2.4187,0,0,0-4.4694,0,.6137.6137,0,1,1-1.1345-.4682,3.6462,3.6462,0,0,1,6.7385,0,.6133.6133,0,0,1-.3324.8013A.6238.6238,0,0,1,662.6487,281.3314Z" fill="#471e26"/>
          <path d="M677.7667,280.999a.6133.6133,0,0,1-.5673-.38,2.4173,2.4173,0,0,0-4.4694.0032.6135.6135,0,0,1-1.1329-.4714,3.6444,3.6444,0,0,1,6.7368,0,.6134.6134,0,0,1-.3323.8014A.626.626,0,0,1,677.7667,280.999Z" fill="#471e26"/>
        </g>
      </g>
      <g id="Ornament">
        <g id="Egg-2" data-name="Egg">
          <path d="M833.3678,273.9934H768.7266a11.0332,11.0332,0,0,1-10.9249-12.5754l8.4323-59.7336a11.0333,11.0333,0,0,1,10.9249-9.491H841.8a11.0332,11.0332,0,0,1,10.9248,12.5754l-8.4323,59.7336A11.0331,11.0331,0,0,1,833.3678,273.9934Z" fill="url(#linear-gradient-43)"/>
          <g>
            <path d="M824.3692,237.5371c-1.6731,12.3814-13.1022,21.0575-22.4909,19.7888s-18.1052-12.6669-16.4322-25.0483,13.8135-26.3217,23.2022-25.053S826.0422,225.1556,824.3692,237.5371Z" fill="#fff"/>
            <circle cx="804.4791" cy="238.0785" r="12.4476" fill="#feb72b"/>
          </g>
        </g>
        <g id="Tomato">
          <path d="M718.7343,206.11H654.0931a11.0331,11.0331,0,0,1-10.9249-12.5754l8.4323-59.7336a11.0332,11.0332,0,0,1,10.9249-9.4909h64.6412a11.0331,11.0331,0,0,1,10.9249,12.5754l-8.4323,59.7336A11.0332,11.0332,0,0,1,718.7343,206.11Z" fill="url(#linear-gradient-44)"/>
          <g>
            <circle cx="691.2608" cy="164.4796" r="20.9339" fill="#ec4c30"/>
            <path d="M704.2716,146.3418a10.3308,10.3308,0,0,0-6.0094-.0042c1.4446-.6578,3.221-1.7894,3.8355-3.5384,1.0973-3.1232-1.9273-7.03-1.9273-7.03s-4.8037,1.1566-5.901,4.28c-.6145,1.7489.0637,3.7429.7793,5.16a10.3293,10.3293,0,0,0-4.6914-3.7555c-3.8423-1.35-8.075.7373-8.075.7373s1.997,4.2759,5.8394,5.6259a10.33,10.33,0,0,0,6.0093.0043c-1.4446.6578-3.2209,1.7894-3.8354,3.5383-1.0973,3.1233,1.9272,7.03,1.9272,7.03s4.8038-1.1567,5.9011-4.28c.6145-1.749-.0637-3.743-.7794-5.16a10.3294,10.3294,0,0,0,4.6915,3.7554c3.8423,1.35,8.075-.7372,8.075-.7372S708.114,147.6918,704.2716,146.3418Z" fill="#006b5e"/>
            <path d="M697.98,149.9893s9.12-4.8146,13.5247-13.031l-3.9282-4.4943s-4.2984,10.0669-9.6918,13.01l-.4732,3.38" fill="#006b5e"/>
          </g>
        </g>
      </g>
      <g id="Kitchen">
        <g id="Table">
          <path d="M89.8025,586.0367H902.4361a0,0,0,0,1,0,0v98.86a5.4958,5.4958,0,0,1-5.4958,5.4958H95.2983a5.4958,5.4958,0,0,1-5.4958-5.4958v-98.86a0,0,0,0,1,0,0Z" fill="#dc9068"/>
          <rect x="68.9364" y="565.6773" width="854.3658" height="20.3595" rx="5.4958" fill="#f7b28f"/>
          <rect x="89.8025" y="586.0367" width="812.6336" height="13.1424" fill="#dc9068" opacity="0.6" style="mix-blend-mode: multiply"/>
        </g>
        <g id="Grocery_Bag" data-name="Grocery Bag">
          <g>
            <path d="M858.895,483.7592c-.0858-.79,9.2427-75.04,17.1142-95.6109s22.4412-20.8928,22.5491,9.6429-12.3416,89.4529-12.3416,89.4529Z" fill="url(#linear-gradient-45)"/>
            <g>
              <path d="M893.1356,393.4519s-11.743,3.6841-13.7133,11.1635C879.4223,404.6154,876.8371,391.2019,893.1356,393.4519Z" fill="#c4772a"/>
              <path d="M890.8148,418.0412s-11.743,3.6841-13.7133,11.1634C877.1015,429.2046,874.5163,415.7912,890.8148,418.0412Z" fill="#c4772a"/>
              <path d="M888.7041,443.9032s-11.743,3.6841-13.7133,11.1635C874.9908,455.0667,872.4056,441.6532,888.7041,443.9032Z" fill="#c4772a"/>
            </g>
          </g>
          <g>
            <path d="M844.762,492.9669c.08-.7356-8.6117-69.9161-15.9457-89.083s-20.909-19.4664-21.01,8.9845,11.499,83.3455,11.499,83.3455Z" fill="url(#linear-gradient-46)"/>
            <g>
              <path d="M812.8591,408.8253s10.9413,3.4326,12.7771,10.4013C825.6362,419.2266,828.0449,406.729,812.8591,408.8253Z" fill="#c4772a"/>
              <path d="M815.0215,431.7358s10.9413,3.4326,12.7771,10.4013C827.7986,442.1371,830.2073,429.6394,815.0215,431.7358Z" fill="#c4772a"/>
              <path d="M816.9881,455.8321s10.9413,3.4326,12.777,10.4013C829.7651,466.2334,832.1739,453.7357,816.9881,455.8321Z" fill="#c4772a"/>
            </g>
          </g>
          <g>
            <path d="M829.16,429.556a16.1041,16.1041,0,0,1,1.72-9.1934c1.2213-2.2689,2.96-4.14,5.0309-4.6937q.08-.0213.1606-.0418c5.3892-1.37,9.5166,1.3431,11.0589,11.3427s-3.1236,41.5741-3.1236,41.5741h-11.066Z" fill="url(#linear-gradient-47)"/>
            <path d="M839.8336,410.7464s-.1712-16.8683-3.9388-16.44,0,18.5808,0,18.5808-5.8225-10.3687-7.7919-9.2944,3.8017,13.062,6.8672,14.86,6.1479,1.0275,7.86-5.3944,2.3976-10.532.3425-10.96S839.8336,410.7464,839.8336,410.7464Z" fill="url(#linear-gradient-48)"/>
          </g>
          <g>
            <path d="M861.6157,430.6442s-2.2491-5.8538-6.8724-6.5049a45.4771,45.4771,0,0,0-10.0282,0,19.9266,19.9266,0,0,0,6.056,7.8792c4.2978,3.2559,9.0674,2.5964,10.3617,1.754S861.6157,430.6442,861.6157,430.6442Z" fill="url(#linear-gradient-49)"/>
            <path d="M844.7151,467.0519a27.662,27.662,0,0,1-5.6-19.2749c.9116-11.8514,8.2048-13.2189,11.7863-12.3724s8.4,2.8652,12.4375,1.4977,8.7258-4.3628,13.6748-1.2372,6.1645,10.5057,5.47,16.9306-5.3831,14.4562-8.2483,16.5725Z" fill="url(#linear-gradient-50)"/>
            <path d="M861.6024,437.6186a27.8613,27.8613,0,0,1-5.74-.8787c-2.941-.797-3.5505.8787,1.3985,2.1811s7.8033.7814,10.3428-.6837,1.8559-2.1164.26-2.214S864.385,437.8913,861.6024,437.6186Z" fill="#c7283a"/>
            <path d="M862.145,438.4435s-.5209.6077-.9334,0a24.886,24.886,0,0,1,.1737-6.7289,11.3988,11.3988,0,0,1,1.4473-4.0322,1.0838,1.0838,0,0,1,1.5683-.2961l.0338.0251a1.0809,1.0809,0,0,1,.2164,1.5224,12.1756,12.1756,0,0,0-1.8007,3.5731A15.8638,15.8638,0,0,0,862.145,438.4435Z" fill="url(#linear-gradient-51)"/>
          </g>
          <g>
            <g>
              <path d="M883.6686,441.1133s-.2842-3.0962-1.0171-4.218-.5684-1.6453-.0449-2.797a9.4962,9.4962,0,0,1,.9036-1.5048.9937.9937,0,0,1,1.51-.12l.4267.4267a3.0018,3.0018,0,0,1,.8413,2.5309,5.44,5.44,0,0,0,1.1034,4.41c2.05,2.29,4.9714,4.2319,5.0719,10.0676s-2.9778,12.9743-7.4793,18.67-15.2284,12.4738-23.3266,12.5848-9.7187-.931-11.0249-2.2572-2.1887-2.1191-3.1011-2.134c0,0-1.6264-1.1743-1.18-2.3a3.57,3.57,0,0,1,2.0622-2.0528,8.3621,8.3621,0,0,0,2.4193-1.2078c1.0769-.7628,7.4974-1.9183,11.8949-3.2645s8.6208-3.0567,10.7271-8.1544,4.6873-12.5681,6.478-15.145A11.1691,11.1691,0,0,1,883.6686,441.1133Z" fill="url(#linear-gradient-52)"/>
              <path d="M882.2559,436.1284a2.54,2.54,0,0,1,.3507-2.03,9.4917,9.4917,0,0,1,.9036-1.5048.9892.9892,0,0,1,1.057-.3793c.7894.9949-.3094,2.5316-1.2576,3.3649A1.6852,1.6852,0,0,1,882.2559,436.1284Z" fill="#1d164d"/>
              <path d="M846.3519,474.4719a3.7165,3.7165,0,0,1,.5225-.9175,2.84,2.84,0,0,1,.7367,1.5927l-.0795,1.6246S845.9052,475.5974,846.3519,474.4719Z" fill="#1d164d"/>
            </g>
            <g>
              <path d="M895.64,437.7525s-.2841-3.0962-1.0171-4.218-.5683-1.6453-.0448-2.797a9.4962,9.4962,0,0,1,.9036-1.5048.9937.9937,0,0,1,1.51-.12l.4266.4267a3.0019,3.0019,0,0,1,.8414,2.5309,5.44,5.44,0,0,0,1.1034,4.41c2.05,2.29,4.9714,4.2319,5.0719,10.0676s-2.9778,12.9743-7.4794,18.67-15.2283,12.4738-23.3265,12.5848-9.7188-.931-11.025-2.2572-2.1887-2.1191-3.1011-2.134c0,0-1.6263-1.1743-1.18-2.3a3.57,3.57,0,0,1,2.0621-2.0528,8.3612,8.3612,0,0,0,2.4194-1.2078c1.0769-.7628,7.4974-1.9183,11.8948-3.2645s8.6209-3.0567,10.7272-8.1544,4.6873-12.5681,6.478-15.145A11.1694,11.1694,0,0,1,895.64,437.7525Z" fill="url(#linear-gradient-53)"/>
              <path d="M894.2274,432.7676a2.54,2.54,0,0,1,.3507-2.03,9.4917,9.4917,0,0,1,.9036-1.5048.9892.9892,0,0,1,1.057-.3793c.7894.9949-.3094,2.5316-1.2576,3.3649A1.6852,1.6852,0,0,1,894.2274,432.7676Z" fill="#1d164d"/>
              <path d="M858.3234,471.1111a3.7165,3.7165,0,0,1,.5225-.9175,2.84,2.84,0,0,1,.7367,1.5927l-.08,1.6246S857.8767,472.2366,858.3234,471.1111Z" fill="#1d164d"/>
            </g>
            <g>
              <path d="M907.3016,432.7593s-.2842-3.0961-1.0171-4.2179-.5684-1.6453-.0449-2.7971a9.4962,9.4962,0,0,1,.9036-1.5048.9937.9937,0,0,1,1.51-.12l.4267.4266a3.0019,3.0019,0,0,1,.8413,2.531,5.44,5.44,0,0,0,1.1034,4.41c2.0505,2.29,4.9714,4.232,5.0719,10.0677s-2.9778,12.9742-7.4793,18.67-15.2284,12.4737-23.3266,12.5847-9.7187-.9309-11.0249-2.2572-2.1887-2.119-3.1011-2.134c0,0-1.6264-1.1742-1.18-2.3a3.57,3.57,0,0,1,2.0622-2.0529,8.3621,8.3621,0,0,0,2.4193-1.2078c1.0769-.7628,7.4974-1.9183,11.8949-3.2644s8.6208-3.0567,10.7271-8.1545,4.6873-12.5681,6.478-15.1449A11.1688,11.1688,0,0,1,907.3016,432.7593Z" fill="url(#linear-gradient-54)"/>
              <path d="M905.8889,427.7744a2.54,2.54,0,0,1,.3507-2.03,9.4962,9.4962,0,0,1,.9036-1.5048.9892.9892,0,0,1,1.057-.3793c.7894.9949-.3094,2.5316-1.2576,3.3649A1.6852,1.6852,0,0,1,905.8889,427.7744Z" fill="#1d164d"/>
              <path d="M869.9849,466.118a3.7128,3.7128,0,0,1,.5225-.9175,2.8391,2.8391,0,0,1,.7367,1.5926l-.08,1.6246S869.5382,467.2435,869.9849,466.118Z" fill="#1d164d"/>
            </g>
          </g>
          <path d="M916.688,458.2011H803.065v97.9925a9.4837,9.4837,0,0,0,9.4837,9.4837h78.0235a26.1158,26.1158,0,0,0,26.1158-26.1158Z" fill="url(#linear-gradient-55)"/>
          <path d="M886.2969,458.2011v69.8138a21.8388,21.8388,0,0,1-21.8388,21.8388H803.065v6.34a9.4837,9.4837,0,0,0,9.4837,9.4838h78.0236a26.1157,26.1157,0,0,0,26.1157-26.1158v-81.36Z" fill="url(#linear-gradient-56)"/>
        </g>
        <g id="Milk_Bottle" data-name="Milk Bottle">
          <rect x="539.4214" y="502.3343" width="59.981" height="63.3429" fill="url(#linear-gradient-57)"/>
          <rect x="581.8772" y="502.3343" width="17.5253" height="63.3429" fill="url(#linear-gradient-58)"/>
          <polygon points="590.64 502.334 581.877 502.334 586.258 494.615 590.64 486.896 595.021 494.615 599.402 502.334 590.64 502.334" fill="url(#linear-gradient-59)"/>
          <polygon points="548.208 486.896 590.64 486.896 581.877 502.334 539.445 502.334 548.208 486.896" fill="url(#linear-gradient-60)"/>
          <rect x="548.2076" y="481.171" width="42.4321" height="5.7248" fill="url(#linear-gradient-61)"/>
          <rect x="539.4214" y="512.9681" width="34.6319" height="33.9321" fill="#fff" opacity="0.3"/>
        </g>
        <g id="Bottle">
          <rect x="503.7346" y="441.7887" width="9.9219" height="32.8417" fill="#2a8f83"/>
          <path d="M508.6955,471.8988h0a16.2654,16.2654,0,0,1,16.2654,16.2654v74.16a3.3532,3.3532,0,0,1-3.3532,3.3532H495.7834a3.3532,3.3532,0,0,1-3.3532-3.3532v-74.16a16.2654,16.2654,0,0,1,16.2654-16.2654Z" fill="#2a8f83"/>
          <rect x="502.8093" y="441.7887" width="11.7724" height="5.4334" rx="1.0458" fill="#006b5e"/>
          <rect x="492.4302" y="490.341" width="32.5308" height="55.3789" fill="#006b5e"/>
          <rect x="503.7346" y="451.5758" width="9.9219" height="6.7395" fill="#006b5e"/>
        </g>
        <g id="Pan">
          <path d="M333.4311,536.5225H318.1973c-41.0214-39.9251.7691-85.3808-13.352-99.8783-37.4216-38.37-58.4477-57.3678-49.1864-81.8137,9.965-26.2786,36.9656-51.0216-3.5017-79.0811-50.0219-34.6845-85.2171-69.3453-99.2073-87.9825h82.8446c10.8432,25.7736,24.985,33.6022,47.6483,47.55,53.638,33.011,38.2235,63.3239,13.7775,94.6258-25.0187,32.0056,7.8868,59.1841,33.2654,85.299,25.395,26.1149-5.6614,40.9232-12.2884,74.565C311.554,523.4487,333.4311,536.5225,333.4311,536.5225Z" opacity="0.8" fill="url(#linear-gradient-62)"/>
          <path d="M231.0556,562.059H399.0012a3.6182,3.6182,0,0,1,3.6182,3.6182v0a0,0,0,0,1,0,0H227.4373a0,0,0,0,1,0,0v0a3.6182,3.6182,0,0,1,3.6182-3.6182Z" fill="url(#linear-gradient-63)"/>
          <g>
            <path d="M242.8829,494.27h144.291a0,0,0,0,1,0,0V514.63a31.7463,31.7463,0,0,1-31.7463,31.7463H274.6292A31.7463,31.7463,0,0,1,242.8829,514.63V494.27A0,0,0,0,1,242.8829,494.27Z" fill="url(#linear-gradient-64)"/>
            <path d="M387.1663,494.2709v20.3553A31.732,31.732,0,0,1,355.4225,546.37H324.3333a31.732,31.732,0,0,0,31.7438-31.7438V494.2709Z" fill="#575965"/>
            <rect x="238.6897" y="488.603" width="152.6775" height="5.6667" rx="2.8334" fill="#b2b6bb"/>
            <path d="M226.9431,498.1846h15.94a0,0,0,0,1,0,0v7.8716a0,0,0,0,1,0,0h-10.121a6.8452,6.8452,0,0,1-6.8452-6.8452v0a1.0264,1.0264,0,0,1,1.0264-1.0264Z" fill="#f7b28f"/>
            <path d="M394.0191,498.1846H404.14a0,0,0,0,1,0,0v7.8716a0,0,0,0,1,0,0H388.2a1.0264,1.0264,0,0,1-1.0264-1.0264v0A6.8452,6.8452,0,0,1,394.0191,498.1846Z" transform="translate(791.314 1004.2408) rotate(180)" fill="#f7b28f"/>
          </g>
          <g>
            <polygon points="277.539 555.309 275.524 553.906 280.761 546.377 339.478 546.377 344.291 553.296 342.276 554.699 338.195 548.831 282.045 548.831 277.539 555.309" fill="url(#linear-gradient-65)"/>
            <polygon points="287.565 555.01 285.55 553.607 290.579 546.377 349.296 546.377 354.109 553.296 352.094 554.699 348.013 548.831 291.862 548.831 287.565 555.01" fill="url(#linear-gradient-66)"/>
          </g>
          <path d="M361.1108,552.3085H268.946a6.8993,6.8993,0,0,0-5.2852,2.4646l-6.1134,7.2859H372.51l-6.1134-7.2859A6.9,6.9,0,0,0,361.1108,552.3085Z" fill="url(#linear-gradient-67)"/>
        </g>
        <g id="Eggs">
          <path d="M145.8269,541.1835c0,8.23-5.0589,14.9013-11.2994,14.9013s-11.3-6.6716-11.3-14.9013,5.0589-16.764,11.3-16.764S145.8269,532.9537,145.8269,541.1835Z" fill="#ffbaab"/>
          <path d="M115.1663,541.1835c0,8.23-5.059,14.9013-11.3,14.9013s-11.2995-6.6716-11.2995-14.9013,5.0589-16.764,11.2995-16.764S115.1663,532.9537,115.1663,541.1835Z" fill="#ffbaab"/>
          <path d="M176.4876,541.1835c0,8.23-5.0589,14.9013-11.2995,14.9013s-11.2994-6.6716-11.2994-14.9013,5.0589-16.764,11.2994-16.764S176.4876,532.9537,176.4876,541.1835Z" fill="#ffbaab"/>
          <path d="M207.1483,541.1835c0,8.23-5.059,14.9013-11.2995,14.9013s-11.3-6.6716-11.3-14.9013,5.059-16.764,11.3-16.764S207.1483,532.9537,207.1483,541.1835Z" fill="#ffbaab"/>
          <polygon points="206.001 565.761 93.714 565.761 89.989 548.572 209.727 548.572 206.001 565.761" fill="url(#linear-gradient-68)"/>
          <rect x="84.4009" y="541.1835" width="130.9137" height="7.389" rx="3.6945" fill="#dc9068"/>
          <polygon points="180.518 565.761 175.34 565.761 177.929 557.167 180.518 548.572 183.107 557.167 185.697 565.761 180.518 565.761" fill="#c1714d"/>
          <polygon points="149.858 565.761 144.68 565.761 147.269 557.167 149.858 548.572 152.447 557.167 155.036 565.761 149.858 565.761" fill="#c1714d"/>
          <polygon points="119.197 565.761 114.019 565.761 116.608 557.167 119.197 548.572 121.786 557.167 124.375 565.761 119.197 565.761" fill="#c1714d"/>
        </g>
      </g>
    </g>
  </g>
</svg>
