<svg width="985" height="454" viewBox="0 0 985 454" fill="none" xmlns="http://www.w3.org/2000/svg">
<g clip-path="url(#clip0_2470_70)">
<path d="M214.14 146.728C214.14 146.728 210.379 150.478 207.527 153.536C206.716 154.411 205.862 155.405 204.847 156.443C204.706 156.583 204.555 156.734 204.414 156.875C203.183 158.085 201.702 159.338 199.746 160.516C198.352 161.359 196.721 162.17 194.786 162.883C194.538 162.969 194.3 163.067 194.041 163.153C192.269 163.769 190.259 164.309 187.946 164.752C185.158 165.293 181.928 165.682 178.178 165.876C177.951 165.887 177.713 165.898 177.475 165.908C170.797 166.211 162.488 165.898 152.082 164.687C150.212 164.471 148.365 164.277 146.56 164.104C145.047 163.963 143.556 163.834 142.086 163.726C141.881 163.715 141.676 163.693 141.47 163.682C140.768 163.628 140.076 163.574 139.385 163.531C138.812 163.488 138.239 163.456 137.667 163.423C137.018 163.38 136.381 163.347 135.743 163.315C135.149 163.272 134.555 163.25 133.971 163.229C133.366 163.196 132.772 163.175 132.167 163.153C130.978 163.099 129.8 163.067 128.655 163.034C128.082 163.023 127.509 163.012 126.947 163.002C126.331 162.991 125.716 162.98 125.121 162.98C103.92 162.753 90.4453 165.325 89.6565 165.476L89.624 165.487C89.624 165.487 108.815 134.247 126.688 132.335C126.688 132.335 87.3224 44.5049 147.511 27.0534C149.326 26.524 182.716 18.7221 193.025 55.2134C203.345 91.7155 182.684 126.154 182.684 126.154C182.684 126.154 208.985 134.042 214.14 146.728Z" fill="#FFD773"/>
<path d="M124.967 81.1598C124.142 107.332 139.198 121.237 154.902 121.073C170.605 120.909 184.346 107.823 185.654 81.1598C186.963 54.4964 152.961 46.7532 152.961 46.7532C152.961 46.7532 125.621 60.3853 124.967 81.1598Z" fill="#EBAD8C"/>
<path d="M165.415 88.2924C164.92 88.2924 164.474 87.95 164.362 87.4467C164.321 87.2609 163.375 82.8679 165.409 80.283C166.331 79.1117 167.669 78.5018 169.386 78.4696C171.081 78.4374 172.436 78.9956 173.403 80.1263C175.575 82.6653 174.808 87.2071 174.774 87.3992C174.671 87.9864 174.111 88.379 173.525 88.2761C172.937 88.1737 172.544 87.6144 172.645 87.0272C172.824 85.993 173.012 82.9892 171.759 81.5282C171.224 80.9046 170.444 80.6102 169.426 80.6307C168.376 80.6503 167.618 80.9726 167.11 81.6169C165.946 83.09 166.255 85.9878 166.472 86.9797C166.6 87.5617 166.232 88.1384 165.65 88.2666C165.571 88.284 165.492 88.2924 165.415 88.2924Z" fill="#1A1A1A"/>
<path d="M136.444 88.2924C135.949 88.2924 135.503 87.95 135.391 87.4467C135.35 87.2609 134.404 82.8679 136.438 80.283C137.36 79.1117 138.697 78.5018 140.414 78.4696C142.106 78.4374 143.464 78.9956 144.432 80.1263C146.604 82.6653 145.836 87.2071 145.802 87.3992C145.7 87.9864 145.139 88.379 144.553 88.2761C143.966 88.1737 143.572 87.6144 143.673 87.0272C143.852 85.993 144.041 82.9892 142.787 81.5282C142.253 80.9046 141.473 80.6102 140.454 80.6307C139.404 80.6503 138.647 80.9726 138.139 81.6164C136.975 83.09 137.284 85.9878 137.501 86.9797C137.629 87.5617 137.261 88.1384 136.679 88.2666C136.6 88.284 136.521 88.2924 136.444 88.2924Z" fill="#1A1A1A"/>
<path d="M154.965 108.63C153.601 108.63 152.153 108.428 150.642 108.014L150.537 107.985C149.966 107.845 149.6 107.272 149.728 106.698C149.856 106.125 150.404 105.754 150.984 105.871C151.022 105.878 151.1 105.898 151.214 105.929C154.576 106.851 160.631 107.404 163.379 100.74C163.607 100.189 164.237 99.924 164.79 100.154C165.342 100.381 165.605 101.013 165.377 101.564C163.485 106.152 159.734 108.63 154.965 108.63Z" fill="#1A1A1A"/>
<path d="M174.209 101.141C179.469 101.141 183.733 98.537 183.733 95.325C183.733 92.1131 179.469 89.5093 174.209 89.5093C168.95 89.5093 164.686 92.1131 164.686 95.325C164.686 98.537 168.95 101.141 174.209 101.141Z" fill="#E14945"/>
<path d="M136.213 101.141C141.473 101.141 145.737 98.537 145.737 95.325C145.737 92.1131 141.473 89.5093 136.213 89.5093C130.954 89.5093 126.69 92.1131 126.69 95.325C126.69 98.537 130.954 101.141 136.213 101.141Z" fill="#E14945"/>
<path d="M164.237 71.4459C165.967 72.1282 178.452 73.8112 177.301 71.4459C176.15 69.0806 171.888 67.4544 166.81 68.44C161.732 69.4255 162.612 70.8053 164.237 71.4459Z" fill="#1A1A1A"/>
<path d="M147.094 71.4459C145.363 72.1282 132.878 73.8112 134.029 71.4459C135.18 69.0806 139.442 67.4544 144.52 68.44C149.598 69.4255 148.718 70.8053 147.094 71.4459Z" fill="#1A1A1A"/>
<path d="M316.06 192.912C316.06 192.912 274.382 218.446 252.976 215.442C231.894 212.482 214.68 198.974 214.15 198.564V198.553C214.14 198.542 214.14 198.542 214.14 198.542L199.746 160.516C201.702 159.338 203.183 158.085 204.414 156.875C204.566 156.734 204.706 156.583 204.847 156.442C205.862 155.405 206.716 154.411 207.527 153.536C210.379 150.478 214.14 146.728 214.14 146.728C215.793 148.219 253.722 186.159 254.845 185.78C255.98 185.402 310.052 177.136 310.052 177.136L316.06 192.912Z" fill="#E14945"/>
<path d="M251.474 387.828H121.523C121.523 387.828 118.141 295.071 134.674 262.394C151.196 229.717 89.624 165.487 89.624 165.487L89.6565 165.476C90.4453 165.325 103.92 162.753 125.121 162.98C125.726 162.98 126.331 162.991 126.947 163.002C127.509 163.013 128.082 163.023 128.655 163.034C129.811 163.067 130.978 163.099 132.167 163.153C132.772 163.175 133.366 163.196 133.971 163.229C134.555 163.25 135.149 163.283 135.743 163.315C136.381 163.347 137.018 163.38 137.667 163.423C138.239 163.456 138.801 163.499 139.385 163.531C140.076 163.574 140.768 163.628 141.47 163.682C141.676 163.693 141.881 163.715 142.086 163.726C143.556 163.834 145.047 163.963 146.56 164.104C148.365 164.277 150.212 164.471 152.082 164.687C162.488 165.898 170.797 166.211 177.475 165.908C177.713 165.898 177.94 165.887 178.178 165.876C181.928 165.682 185.158 165.293 187.946 164.752C190.259 164.309 192.269 163.769 194.041 163.153C194.3 163.067 194.538 162.969 194.786 162.883C196.721 162.17 198.352 161.359 199.746 160.516L214.14 198.542C214.14 198.542 214.14 198.542 214.15 198.553V198.564C214.15 198.585 214.161 198.618 214.172 198.672C214.183 198.715 214.194 198.758 214.205 198.823C215.674 205.242 242.019 320.648 249.496 369.447C250.793 377.843 251.528 384.273 251.474 387.828Z" fill="#E14945"/>
<path d="M310.052 177.136C310.052 177.136 328.952 164.366 339.738 165.486C350.523 166.607 361.092 165.528 361.308 168.116C361.524 170.705 342.757 171.276 342.757 171.276C342.757 171.276 358.935 172.134 357.425 177.136C355.915 182.137 352.033 189.255 346.64 188.392C341.247 187.53 333.698 184.222 330.678 188.464C327.658 192.707 316.06 191.412 316.06 191.412L310.052 177.136Z" fill="#EBAD8C"/>
<path d="M393.526 260.135L392.136 268.218C391.367 272.691 387.124 275.689 382.651 274.92L293.844 259.651C290.596 259.093 288.125 256.694 287.325 253.695C287.013 252.578 286.944 251.382 287.153 250.168L288.543 242.085L288.787 242.127C289.098 242.619 289.814 243.17 290.909 243.753C292.011 244.359 293.511 245.011 295.346 245.689C304.165 248.981 320.836 253.032 340.134 256.349C367.375 261.033 390.167 262.583 393.281 260.093L393.526 260.135Z" fill="#534741"/>
<path d="M393.625 259.56C393.592 259.751 393.474 259.928 393.281 260.093C390.167 262.583 367.375 261.033 340.133 256.35C312.892 251.666 290.891 245.515 288.787 242.127C288.661 241.908 288.608 241.702 288.641 241.51C289.194 238.294 313.145 239.736 342.133 244.72C371.121 249.704 394.178 256.344 393.625 259.56Z" fill="#1A1A1A"/>
<path d="M287.328 253.695L243.099 246.088C238.626 244.067 236.789 235.347 236.789 235.347C236.789 235.347 244.385 236.816 248.643 236.481L288.333 243.311L287.155 250.172C286.949 251.383 287.014 252.582 287.328 253.695Z" fill="#1A1A1A"/>
<path d="M415.895 199.536C414.847 197.915 413.54 196.392 413.021 194.522C412.189 191.518 413.572 188.406 413.886 185.316C414.296 181.318 412.794 177.157 409.931 174.337C408.148 172.586 405.824 171.257 404.765 168.999C404.149 167.681 404.041 166.2 403.685 164.795C402.777 161.121 399.244 157.62 395.591 158.636C392.857 159.392 391.269 162.429 391.301 165.271C391.323 168.102 392.62 170.76 393.981 173.235C395.353 175.72 396.845 178.216 397.342 181.004C397.882 183.987 397.234 187.034 396.596 189.995C395.818 193.528 394.997 197.191 392.803 200.087C390.847 202.659 387.984 204.366 385.196 206.02C378.929 209.715 372.089 213.541 364.849 212.806C362.493 212.568 360.213 211.844 357.857 211.585C355.512 211.336 352.941 211.628 351.136 213.162C349.699 214.383 348.953 216.21 347.765 217.679C345.917 219.981 342.945 221.342 339.995 221.234C338.029 221.169 336.138 220.489 334.182 220.197C332.237 219.905 330.054 220.078 328.617 221.418C326.607 223.277 326.358 227.048 323.711 227.718C322.587 227.999 321.431 227.566 320.35 227.188C319.28 226.832 318.167 226.508 317.054 226.335C315.617 226.118 314.169 226.14 312.808 226.616C310.733 227.35 308.928 229.63 309.145 231.921C309.382 234.493 311.273 234.666 313.543 235.282C316.438 236.06 318.762 238.178 321.269 239.842C329.125 245.05 339.325 245.85 348.489 243.592C348.489 243.592 355.709 241.052 360.267 241.279C362.082 241.376 363.865 241.819 365.659 242.09C370.165 242.749 374.833 242.23 379.08 240.598C381.922 239.496 384.612 237.897 387.617 237.421C389.486 237.13 391.388 237.27 393.257 237.108C398.855 236.611 404.106 233.11 406.7 228.118C407.51 226.572 408.094 224.865 409.25 223.547C410.471 222.142 412.221 221.321 413.702 220.186C419.721 215.54 420.023 205.922 415.895 199.536Z" fill="#FFD773"/>
<path d="M259.719 369.166L249.496 369.447L140.552 372.408C140.552 372.408 160.413 253.738 159.192 253.695C157.982 253.652 128.395 187.996 128.395 187.996C128.395 187.996 127.304 172.846 126.947 163.002C127.509 163.013 128.082 163.023 128.655 163.034C129.811 163.067 130.978 163.099 132.167 163.153C132.772 163.175 133.366 163.196 133.971 163.229C134.555 163.25 135.149 163.283 135.743 163.315C136.381 163.347 137.018 163.38 137.667 163.423C138.239 163.456 138.801 163.499 139.385 163.531C140.076 163.574 140.768 163.628 141.47 163.682L147.446 184.743L194.16 181.242L187.946 164.752C190.259 164.309 192.269 163.769 194.041 163.153C194.3 163.067 194.538 162.969 194.786 162.883C196.721 162.17 198.352 161.359 199.746 160.516L214.14 198.542C214.14 198.542 214.14 198.542 214.15 198.553V198.564C214.15 198.585 214.161 198.618 214.172 198.672C214.183 198.715 214.194 198.758 214.205 198.823C216.106 205.415 251.031 327.769 259.719 369.166Z" fill="#1A1A1A"/>
<path d="M89.624 167.189V165.487C89.624 165.487 80.6514 164.784 95.8901 204.181C111.129 243.579 117.754 265.88 133.954 268.853C150.155 271.826 214.14 251.384 214.14 251.384L208.879 227.225C208.879 227.225 159.447 236.517 153.5 232.057C147.553 227.597 117.447 174.819 117.447 175.934C117.447 177.049 89.624 167.189 89.624 167.189Z" fill="#E14945"/>
<path d="M251.42 235.347C251.204 236.038 250.123 236.373 248.643 236.481C244.385 236.816 236.789 235.347 236.789 235.347C236.789 235.347 238.626 244.067 243.099 246.088C243.153 246.12 243.207 246.142 243.261 246.163C247.865 248.054 234.703 259.087 230.629 256.623C226.545 254.16 214.14 251.383 214.14 251.383L209.785 231.403C209.785 231.403 223.4 221.915 232.185 226.302C240.96 230.7 252.252 232.678 251.42 235.347Z" fill="#EBAD8C"/>
</g>
<path d="M477.933 175.52H524.91V189.664H493.934V210.592H522.67V224.672H493.934V260H477.933V175.52ZM544.085 237.344C544.213 239.733 544.853 241.867 546.005 243.744C547.157 245.621 548.821 247.093 550.997 248.16C553.216 249.227 555.861 249.76 558.933 249.76C561.707 249.76 564.139 249.419 566.229 248.736C568.363 248.053 570.155 247.221 571.605 246.24C573.099 245.216 574.208 244.235 574.933 243.296L581.653 253.28C580.459 254.773 578.859 256.16 576.854 257.44C574.891 258.677 572.373 259.659 569.301 260.384C566.272 261.152 562.475 261.536 557.909 261.536C552.149 261.536 547.093 260.405 542.741 258.144C538.389 255.883 534.997 252.619 532.565 248.352C530.133 244.085 528.917 239.008 528.917 233.12C528.917 228 530.005 223.392 532.181 219.296C534.357 215.157 537.515 211.893 541.653 209.504C545.835 207.115 550.848 205.92 556.693 205.92C562.198 205.92 566.955 206.987 570.965 209.12C575.019 211.211 578.155 214.283 580.374 218.336C582.592 222.389 583.701 227.339 583.701 233.184C583.701 233.525 583.68 234.229 583.638 235.296C583.638 236.32 583.595 237.003 583.509 237.344H544.085ZM568.47 227.296C568.427 225.931 568 224.459 567.189 222.88C566.421 221.301 565.205 219.957 563.542 218.848C561.877 217.739 559.659 217.184 556.885 217.184C554.112 217.184 551.829 217.717 550.037 218.784C548.288 219.851 546.965 221.173 546.069 222.752C545.173 224.288 544.661 225.803 544.533 227.296H568.47ZM604.15 237.344C604.278 239.733 604.918 241.867 606.07 243.744C607.222 245.621 608.886 247.093 611.062 248.16C613.281 249.227 615.926 249.76 618.998 249.76C621.772 249.76 624.204 249.419 626.294 248.736C628.428 248.053 630.22 247.221 631.67 246.24C633.164 245.216 634.273 244.235 634.998 243.296L641.718 253.28C640.524 254.773 638.924 256.16 636.918 257.44C634.956 258.677 632.438 259.659 629.366 260.384C626.337 261.152 622.54 261.536 617.974 261.536C612.214 261.536 607.158 260.405 602.806 258.144C598.454 255.883 595.062 252.619 592.63 248.352C590.198 244.085 588.982 239.008 588.982 233.12C588.982 228 590.07 223.392 592.246 219.296C594.422 215.157 597.58 211.893 601.718 209.504C605.9 207.115 610.913 205.92 616.758 205.92C622.262 205.92 627.02 206.987 631.03 209.12C635.084 211.211 638.22 214.283 640.438 218.336C642.657 222.389 643.766 227.339 643.766 233.184C643.766 233.525 643.745 234.229 643.702 235.296C643.702 236.32 643.66 237.003 643.574 237.344H604.15ZM628.535 227.296C628.492 225.931 628.065 224.459 627.254 222.88C626.486 221.301 625.27 219.957 623.606 218.848C621.942 217.739 619.724 217.184 616.95 217.184C614.177 217.184 611.894 217.717 610.102 218.784C608.353 219.851 607.03 221.173 606.134 222.752C605.238 224.288 604.726 225.803 604.598 227.296H628.535ZM674.904 261.536C669.912 261.536 665.517 260.341 661.72 257.952C657.965 255.52 655.021 252.213 652.888 248.032C650.797 243.808 649.752 239.051 649.752 233.76C649.752 228.469 650.797 223.733 652.888 219.552C655.021 215.328 657.965 212 661.72 209.568C665.517 207.136 669.912 205.92 674.904 205.92C678.445 205.92 681.581 206.496 684.312 207.648C687.085 208.8 689.304 210.165 690.968 211.744C692.632 213.323 693.613 214.731 693.912 215.968V171.936H710.232V260H694.104V250.848C693.421 252.341 692.162 253.92 690.328 255.584C688.493 257.248 686.253 258.656 683.608 259.808C680.962 260.96 678.061 261.536 674.904 261.536ZM679.512 248.608C682.242 248.608 684.696 247.989 686.872 246.752C689.048 245.472 690.754 243.723 691.992 241.504C693.272 239.243 693.912 236.661 693.912 233.76C693.912 230.859 693.272 228.299 691.992 226.08C690.754 223.819 689.048 222.048 686.872 220.768C684.696 219.488 682.242 218.848 679.512 218.848C676.994 218.848 674.69 219.488 672.6 220.768C670.509 222.005 668.824 223.755 667.544 226.016C666.306 228.235 665.688 230.816 665.688 233.76C665.688 236.704 666.306 239.307 667.544 241.568C668.824 243.787 670.509 245.515 672.6 246.752C674.69 247.989 676.994 248.608 679.512 248.608Z" fill="black"/>
<path d="M745.101 261.536C739.512 261.536 734.52 260.341 730.125 257.952C725.773 255.563 722.36 252.299 719.885 248.16C717.411 243.979 716.173 239.221 716.173 233.888C716.173 228.555 717.411 223.797 719.885 219.616C722.36 215.392 725.773 212.064 730.125 209.632C734.52 207.157 739.512 205.92 745.101 205.92C750.733 205.92 755.704 207.157 760.013 209.632C764.323 212.064 767.693 215.392 770.125 219.616C772.557 223.797 773.773 228.555 773.773 233.888C773.773 239.221 772.557 243.979 770.125 248.16C767.693 252.299 764.323 255.563 760.013 257.952C755.704 260.341 750.733 261.536 745.101 261.536ZM745.101 248.032C747.789 248.032 750.115 247.435 752.077 246.24C754.083 245.003 755.619 243.317 756.685 241.184C757.795 239.008 758.349 236.555 758.349 233.824C758.349 231.093 757.795 228.64 756.685 226.464C755.619 224.288 754.083 222.581 752.077 221.344C750.115 220.064 747.789 219.424 745.101 219.424C742.413 219.424 740.067 220.064 738.061 221.344C736.099 222.581 734.563 224.288 733.453 226.464C732.344 228.64 731.789 231.093 731.789 233.824C731.789 236.555 732.344 239.008 733.453 241.184C734.563 243.317 736.099 245.003 738.061 246.24C740.067 247.435 742.413 248.032 745.101 248.032ZM797.293 260H781.037V207.456H797.293V215.968H796.973C797.271 214.944 798.082 213.643 799.405 212.064C800.77 210.485 802.647 209.077 805.037 207.84C807.426 206.56 810.306 205.92 813.677 205.92C816.109 205.92 818.306 206.283 820.269 207.008C822.274 207.691 823.703 208.373 824.557 209.056L818.157 222.368C817.602 221.685 816.557 220.981 815.021 220.256C813.527 219.531 811.65 219.168 809.389 219.168C806.701 219.168 804.461 219.915 802.669 221.408C800.877 222.859 799.533 224.651 798.637 226.784C797.741 228.875 797.293 230.837 797.293 232.672V260ZM868.159 260V250.848C867.775 251.787 866.793 253.109 865.215 254.816C863.636 256.523 861.503 258.08 858.815 259.488C856.169 260.853 853.055 261.536 849.471 261.536C844.436 261.536 839.977 260.341 836.095 257.952C832.212 255.52 829.161 252.213 826.943 248.032C824.767 243.808 823.679 239.051 823.679 233.76C823.679 228.469 824.767 223.733 826.943 219.552C829.161 215.328 832.212 212 836.095 209.568C839.977 207.136 844.436 205.92 849.471 205.92C852.969 205.92 855.999 206.517 858.559 207.712C861.161 208.864 863.252 210.229 864.831 211.808C866.452 213.344 867.497 214.731 867.967 215.968V207.456H884.095V260H868.159ZM839.615 233.76C839.615 236.704 840.276 239.307 841.599 241.568C842.921 243.787 844.671 245.515 846.847 246.752C849.023 247.989 851.391 248.608 853.951 248.608C856.639 248.608 859.028 247.989 861.119 246.752C863.209 245.472 864.852 243.723 866.047 241.504C867.284 239.243 867.903 236.661 867.903 233.76C867.903 230.859 867.284 228.299 866.047 226.08C864.852 223.819 863.209 222.048 861.119 220.768C859.028 219.488 856.639 218.848 853.951 218.848C851.391 218.848 849.023 219.488 846.847 220.768C844.671 222.005 842.921 223.755 841.599 226.016C840.276 228.235 839.615 230.816 839.615 233.76Z" fill="#FF8800"/>
<defs>
<clipPath id="clip0_2470_70">
<rect width="331.662" height="361.828" fill="white" transform="translate(87 26)"/>
</clipPath>
</defs>
</svg>
