<svg width="70" height="99" viewBox="0 0 70 99" fill="none" xmlns="http://www.w3.org/2000/svg">
<path d="M50.9092 59.7271V98.3634L35.0002 89.2725L19.0911 98.3634V59.7271" fill="#F04B4D"/>
<path d="M35.0002 59.7271H50.9092V66.9998C49.7729 67.6816 48.8638 68.5907 48.4092 69.727C46.5911 73.3634 42.0456 74.4998 38.6365 72.2271C37.5002 71.5452 36.1365 71.0907 35.0002 71.0907V89.0452L19.0911 98.1361V66.9998V59.7271H35.0002Z" fill="#DE333F"/>
<path d="M38.6365 1.77251C42.0456 -0.27294 46.591 0.863424 48.4092 4.27251C49.5455 6.54524 52.0456 8.13615 54.7728 7.90888C58.8637 7.68161 62.0456 11.0907 61.8183 14.9543C61.591 17.6816 63.1819 20.1816 65.4546 21.318C69.091 23.1362 70.2274 27.6816 67.9546 31.0907C66.591 33.3634 66.591 36.0907 67.9546 38.3634C70.0001 41.7725 68.8637 46.318 65.4546 48.1362C63.1819 49.2725 61.591 51.7725 61.8183 54.4998C62.0456 58.5907 58.6365 61.7725 54.7728 61.5452C52.0456 61.318 49.5455 62.9089 48.4092 65.1816C46.591 68.818 42.0456 69.9543 38.6365 67.6816C36.3637 66.318 33.6365 66.318 31.3637 67.6816C27.9546 69.7271 23.4092 68.5907 21.591 65.1816C20.4546 62.9089 17.9546 61.318 15.2274 61.5452C11.1365 61.7725 7.95464 58.3634 8.18191 54.4998C8.40918 51.7725 6.81828 49.2725 4.54555 48.1362C0.909185 46.318 -0.22718 41.7725 2.04555 38.3634C3.40918 36.0907 3.40918 33.3634 2.04555 31.0907C9.32847e-05 27.6816 1.13646 23.1362 4.54555 21.318C6.81828 20.1816 8.40918 17.6816 8.18191 14.9543C7.95464 10.8634 11.3637 7.68161 15.2274 7.90888C17.9546 8.13615 20.4546 6.54524 21.591 4.27251C23.4092 0.863424 27.9546 -0.500212 31.3637 1.77251C33.6365 3.13615 36.3637 3.13615 38.6365 1.77251Z" fill="#FFCB5B"/>
<path d="M35 57.4545C47.5519 57.4545 57.7272 47.2792 57.7272 34.7273C57.7272 22.1753 47.5519 12 35 12C22.4481 12 12.2727 22.1753 12.2727 34.7273C12.2727 47.2792 22.4481 57.4545 35 57.4545Z" fill="#F19920"/>
<path d="M35 7.4541C20 7.4541 7.72729 19.7268 7.72729 34.7268C7.72729 49.7268 20 61.9996 35 61.9996C50 61.9996 62.2727 49.7268 62.2727 34.7268C62.2727 19.7268 50 7.4541 35 7.4541ZM35 57.4541C22.5 57.4541 12.2727 47.2268 12.2727 34.7268C12.2727 22.2268 22.5 11.9996 35 11.9996C47.5 11.9996 57.7273 22.2268 57.7273 34.7268C57.7273 47.2268 47.5 57.4541 35 57.4541Z" fill="#F6B545"/>
<path d="M54.7728 7.90874C52.0456 8.13601 49.5456 6.5451 48.4092 4.27237C48.1819 4.0451 47.9547 3.59055 47.7274 3.36328L6.13647 49.2724C7.50011 50.636 8.4092 52.4542 8.18193 54.4996C8.18193 55.8633 8.4092 57.2269 9.09102 58.3633L55.0001 7.90874C54.7728 7.90874 54.7728 7.90874 54.7728 7.90874Z" fill="#FFE27A"/>
<path d="M13.1819 41.3177C14.091 44.2723 15.4546 46.7723 17.5001 49.2723L47.7273 15.8632C45.2273 14.2723 42.5001 13.1359 39.5455 12.4541L13.1819 41.3177Z" fill="#F6B545"/>
<path d="M14.3184 52.6815L17.2729 49.2724C15.4547 46.9997 13.8638 44.2724 12.9547 41.3179L9.54565 45.1815C10.9093 47.9088 12.5002 50.4088 14.3184 52.6815Z" fill="#FFCB5B"/>
<path d="M39.5457 12.4545C42.5002 13.1363 45.2275 14.2726 47.7275 15.8635L50.9093 12.4545C48.6366 10.8635 45.9093 9.49991 43.182 8.59082L39.5457 12.4545Z" fill="#FFCB5B"/>
<path d="M65.4547 21.3179C63.182 20.1815 61.5911 17.6815 61.8183 14.9542C62.0456 12.4542 60.682 10.1815 58.6365 8.81787L11.5911 60.6361C12.7274 61.3179 13.8638 61.5451 15.2274 61.5451C17.9547 61.3179 20.4547 62.9088 21.5911 65.1815C22.0456 66.0906 22.7274 66.9997 23.6365 67.4542L65.4547 21.3179Z" fill="#FFE27A"/>
<path d="M32.7272 57.4542L57.2727 30.636C56.3636 25.8633 53.8636 21.5451 50.4545 18.3633L19.7727 51.5451C23.4091 54.7269 27.9545 56.7724 32.7272 57.4542Z" fill="#F6B545"/>
<path d="M32.7275 57.4543C27.7275 56.9997 23.182 54.9543 19.7729 51.7725L16.8184 54.9543C20.2275 58.1361 24.5456 60.4088 29.3184 61.3179L32.7275 57.4543Z" fill="#FFCB5B"/>
<path d="M53.4094 14.7271L50.4548 18.1361C53.8639 21.318 56.3639 25.6361 57.273 30.4089L60.9094 26.318C59.5457 21.7725 56.8185 17.9089 53.4094 14.7271Z" fill="#FFCB5B"/>
<path d="M42.9547 48.3635C42.7274 48.3635 42.7274 48.3635 42.5001 48.3635L35.0001 44.0454L27.5001 48.1363C27.2729 48.3635 26.8183 48.3635 26.591 48.1363C26.3638 47.909 26.1365 47.6817 26.3638 47.2272L27.7274 38.3635L21.591 32.2272C21.3638 32.2272 21.3638 31.7726 21.3638 31.5454C21.3638 31.3181 21.8183 31.0908 22.0456 30.8635L30.4547 29.4999L34.3183 21.5454C34.5456 21.3181 34.7729 21.0908 35.0001 21.0908C35.2274 21.0908 35.6819 21.3181 35.6819 21.5454L39.5456 29.4999L47.9547 30.8635C48.182 30.8635 48.6365 31.0908 48.6365 31.5454C48.6365 31.7726 48.6365 32.2272 48.4092 32.4545L42.2729 38.5908L43.6365 47.4545C43.6365 47.6817 43.6365 48.1363 43.4092 48.3635C43.182 48.3635 43.182 48.3635 42.9547 48.3635Z" fill="#FFEDA9"/>
<path d="M35.682 21.5454C35.4547 21.3181 35.2274 21.0908 35.0002 21.0908C34.7729 21.0908 34.3183 21.3181 34.3183 21.5454L30.4547 29.4999L22.9547 30.6363L21.5911 32.2272C21.5911 32.2272 21.5911 32.2272 21.5911 32.4545L27.5002 38.3635L38.182 26.5454L35.682 21.5454Z" fill="#FFFCD5"/>
<path d="M42.2729 38.5907L48.4092 32.4543C48.6365 32.2271 48.6365 31.7725 48.6365 31.5452C48.6365 31.318 48.182 31.0907 47.9547 30.8634L40.0001 29.7271L27.0456 44.0452L26.3638 47.2271C26.3638 47.4543 26.3638 47.9089 26.591 48.1361C26.8183 48.3634 27.2729 48.3634 27.5001 48.1361L35.0001 44.0452L41.591 47.6816L43.4092 45.6361L42.2729 38.5907Z" fill="#FFFCD5"/>
</svg>
