<?xml version="1.0" encoding="utf-8"?>
<!-- Generator: Adobe Illustrator 23.0.5, SVG Export Plug-In . SVG Version: 6.00 Build 0)  -->
<svg version="1.1" xmlns="http://www.w3.org/2000/svg" xmlns:xlink="http://www.w3.org/1999/xlink" x="0px" y="0px"
	 viewBox="0 0 331.6615295 361.8279419" style="enable-background:new 0 0 331.6615295 361.8279419;" xml:space="preserve">
<g id="Layer_1">
	<g>
		<path style="fill:#FFD773;" d="M127.139679,120.7280884c0,0-3.7604752,3.7495956-6.6131668,6.807663
			c-0.8104401,0.8752747-1.6641388,1.8693848-2.6798935,2.9067688c-0.14048,0.1404877-0.2917099,0.2917786-0.4321899,0.4322662
			c-1.2318878,1.2102509-2.7122803,2.4636993-4.668129,3.6415558c-1.3939972,0.8428192-3.0256271,1.6532593-4.9599152,2.3664856
			c-0.2485123,0.0863953-0.4862747,0.1836853-0.7456055,0.2701416c-1.772171,0.6159515-3.7820435,1.1562347-6.0945053,1.5992432
			c-2.7878571,0.5402985-6.0187912,0.9292908-9.7684555,1.1237793c-0.226944,0.0108185-0.4646378,0.021637-0.7024002,0.0324554
			c-6.6780014,0.302536-14.9876938-0.0108185-25.3937225-1.2210693c-1.8693886-0.2161255-3.717144-0.410614-5.5217667-0.5834808
			c-1.5127792-0.1404877-3.0039902-0.2701569-4.4736328-0.3782501c-0.205246-0.0108185-0.4105606-0.0323792-0.6158752-0.0431976
			c-0.702404-0.0540161-1.3939934-0.1080933-2.0855827-0.1512909c-0.5726776-0.0432129-1.1454163-0.0756531-1.7180939-0.1080322
			c-0.6483231-0.0432739-1.2858963-0.0756531-1.9234695-0.1081085c-0.5943069-0.0431976-1.1886177-0.0648346-1.7721062-0.0863953
			c-0.6051254-0.0324554-1.199501-0.0540771-1.8046227-0.0756531c-1.1886177-0.0540161-2.3664818-0.0864563-3.511898-0.1189117
			c-0.5726738-0.0107422-1.1454163-0.0215607-1.7072754-0.0323792c-0.6159401-0.0108185-1.2318802-0.021637-1.8261871-0.021637
			c-21.2010498-0.2268829-34.6759644,2.3449097-35.4647675,2.4961548l-0.032449,0.0108032
			c0,0,19.1911774-31.2396393,37.0640106-33.152298c0,0-39.3656578-87.8298111,20.8228722-105.2812653
			c1.8153725-0.5294756,35.2054367-8.3313246,45.514183,28.1600094
			c10.3195572,36.5020866-10.3411942,70.9403534-10.3411942,70.9403534S121.9852753,108.0420456,127.139679,120.7280884z"/>
		<path style="fill:#EBAD8C;" d="M37.9668579,55.1598396C37.1425285,81.332222,52.1981964,95.2366028,67.9017487,95.0730286
			c15.7035446-0.1635818,29.4441528-13.2498703,30.7527771-39.9131889
			c1.3086319-26.6633167-32.693779-34.4065895-32.693779-34.4065895S38.62117,34.3853531,37.9668579,55.1598396z"/>
		<path style="fill:#1A1A1A;" d="M78.4154282,62.2924614c-0.4954453,0-0.9412918-0.3424301-1.0531464-0.8457909
			c-0.041153-0.1857224-0.9877243-4.5787621,1.0462875-7.1636162c0.9222946-1.1713333,2.2603607-1.7812729,3.9772644-1.8134575
			c1.6947479-0.0321884,3.0496979,0.5260429,4.0173645,1.6567535c2.1722488,2.5389481,1.4045486,7.0807762,1.3707809,7.2728348
			c-0.10289,0.5872498-0.6627045,0.979805-1.2494278,0.8769188c-0.5872498-0.1023598-0.9808578-0.6616478-0.8795547-1.2488976
			c0.1788635-1.034153,0.3672333-4.037941-0.8864136-5.4989471c-0.5344925-0.6236572-1.3143234-0.9180756-2.3326492-0.8974953
			c-1.0499802,0.0195198-1.8076553,0.3419037-2.3162918,0.9861374c-1.1634216,1.4731407-0.8547592,4.3708763-0.6373749,5.3628197
			c0.1276855,0.581974-0.2406006,1.1586723-0.8225708,1.2868843C78.5710754,62.2840195,78.4924622,62.2924614,78.4154282,62.2924614
			z"/>
		<path style="fill:#1A1A1A;" d="M49.4443855,62.2924614c-0.4954414,0-0.941288-0.3424301-1.0531464-0.8457909
			c-0.0411568-0.1857224-0.9877205-4.5787621,1.0462875-7.1636162c0.9222946-1.1713333,2.2598343-1.7812729,3.976738-1.8134575
			c1.6915779-0.0321884,3.0502205,0.5260429,4.0173645,1.6567535c2.1722488,2.5389481,1.4045486,7.0807762,1.3707809,7.2728348
			c-0.1028862,0.5872498-0.6637573,0.979805-1.249424,0.8769188c-0.5872536-0.1023598-0.9808617-0.6616478-0.8795586-1.2488976
			c0.1788673-1.034153,0.3672295-4.037941-0.8864174-5.4989471c-0.5344849-0.6236572-1.3137932-0.9180756-2.3326454-0.8974953
			c-1.0499802,0.0195198-1.8076553,0.3419037-2.3157616,0.985611c-1.1634216,1.4736671-0.8547592,4.3714027-0.6373787,5.3633461
			c0.1276894,0.581974-0.2405968,1.1586723-0.8225708,1.2868843C49.6000366,62.2840195,49.5214195,62.2924614,49.4443855,62.2924614
			z"/>
		<path style="fill:#1A1A1A;" d="M67.96521,82.6304398c-1.3644485,0-2.8117294-0.2026062-4.3228607-0.6167984l-0.105526-0.0284882
			c-0.5708923-0.1398239-0.9365425-0.713356-0.8088531-1.2868881c0.1276855-0.5735321,0.6764183-0.9439316,1.2562828-0.8273239
			c0.0374603,0.0073853,0.1155472,0.0269089,0.2295151,0.0585709c3.3620529,0.9212341,9.4176483,1.4741898,12.1655426-5.1892319
			c0.2279358-0.5513763,0.8573914-0.816246,1.4108734-0.5867233c0.5513763,0.2274094,0.8146591,0.8589783,0.5867233,1.410881
			C76.4853592,80.1521683,72.7339172,82.6304398,67.96521,82.6304398z"/>
		<ellipse style="fill:#E14945;" cx="87.2094269" cy="69.3249512" rx="9.5232792" ry="5.8157535"/>
		<ellipse style="fill:#E14945;" cx="49.2132988" cy="69.3249512" rx="9.5232792" ry="5.8157535"/>
		<path style="fill:#1A1A1A;" d="M77.2366333,45.4458694c1.730217,0.6822548,14.215416,2.3653374,13.0646439,0
			s-5.4129868-3.9915047-10.491127-3.0059471S75.6120148,44.8052597,77.2366333,45.4458694z"/>
		<path style="fill:#1A1A1A;" d="M60.0936966,45.4458694c-1.7302246,0.6822548-14.2154198,2.3653374-13.0646477,0
			s5.4129829-3.9915047,10.491127-3.0059471S61.7183151,44.8052597,60.0936966,45.4458694z"/>
		<path style="fill:#E14945;" d="M229.0602875,166.9122314c0,0-41.6780701,25.5341949-63.0844269,22.5301361
			c-21.0821991-2.9607849-38.2958908-16.4680786-38.8254318-16.8787079v-0.0107574
			c-0.0107498-0.0108032-0.0107498-0.0108032-0.0107498-0.0108032l-14.3933792-38.0257568
			c1.9558487-1.1778564,3.4362411-2.4313049,4.668129-3.6415558c0.1512299-0.1404877,0.2917099-0.2917786,0.4321899-0.4322662
			c1.0157547-1.037384,1.8694534-2.0314941,2.6798935-2.9067688c2.8526917-3.0580673,6.6131668-6.807663,6.6131668-6.807663
			c1.6532593,1.4912109,39.5817871,39.4304962,40.7055664,39.0523071c1.134613-0.3782349,55.2070007-8.6446686,55.2070007-8.6446686
			L229.0602875,166.9122314z"/>
		<path style="fill:#E14945;" d="M164.4738312,361.8279419H34.5228195c0,0-3.3822308-92.7573547,13.1506882-125.4341888
			c16.522171-32.6768494-45.0495415-96.9067535-45.0495415-96.9067535l0.032449-0.0108032
			c0.7888052-0.1512451,14.2637196-2.7230377,35.4647675-2.4961548c0.6051216,0,1.210247,0.0108185,1.8261871,0.021637
			c0.5618591,0.0108185,1.1346016,0.021637,1.7072754,0.0323792c1.1562309,0.0324554,2.3232803,0.0648956,3.511898,0.1189117
			c0.6051216,0.0215759,1.1994972,0.0431976,1.8046227,0.0756531c0.5834885,0.0215607,1.1777992,0.0540161,1.7721062,0.0863953
			c0.6375732,0.0324554,1.2751465,0.0648346,1.9234695,0.1081085c0.5726776,0.0323792,1.1346016,0.0756378,1.7180939,0.1080322
			c0.6915894,0.0431976,1.3831787,0.0972748,2.0855827,0.1512909c0.2053146,0.0108185,0.4106293,0.0323792,0.6158752,0.0431976
			c1.4696426,0.1080933,2.9608536,0.2377625,4.4736328,0.3782501c1.8046227,0.1728668,3.6523781,0.3673553,5.5217667,0.5834808
			c10.4060287,1.2102509,18.7157211,1.5236053,25.3937225,1.2210693c0.2377625-0.0108185,0.4647064-0.021637,0.7024002-0.0324554
			c3.7496643-0.1944885,6.9805984-0.5834808,9.7684555-1.1237793c2.3124619-0.4430084,4.3223343-0.9832916,6.0945053-1.5992432
			c0.2593307-0.0864563,0.4970932-0.1837463,0.7456055-0.2701416c1.934288-0.7132263,3.565918-1.5236664,4.9599152-2.3664856
			l14.3933792,38.0257568c0,0,0,0,0.0107498,0.0108032v0.0107574c0,0.021637,0.0108185,0.0540771,0.021637,0.1080933
			c0.0108109,0.0431976,0.0216293,0.0864716,0.0324478,0.1513062c1.469574,6.4186707,27.814209,121.8250122,35.2918396,170.6241455
			C163.7930603,351.8433533,164.5278473,358.2728271,164.4738312,361.8279419z"/>
		<path style="fill:#EBAD8C;" d="M223.0522461,151.1357269c0,0,18.9001923-12.7699432,29.685318-11.6495514
			c10.7851105,1.1203918,21.354538,0.0418701,21.5702362,2.6303101c0.2157288,2.5884247-18.5503998,3.1596527-18.5503998,3.1596527
			s16.1776886,0.8581696,14.6677704,5.8595886s-5.3925781,12.1195984-10.7851257,11.2567902
			c-5.3925629-0.8628082-12.9421539-4.1707611-15.9619904,0.07164c-3.0198364,4.2424164-14.6177673,2.9481964-14.6177673,2.9481964
			L223.0522461,151.1357269z"/>
		<path style="fill:#534741;" d="M306.526123,234.1347809l-1.3897095,8.0829926
			c-0.7690125,4.4728394-5.0124512,7.4711914-9.485199,6.7021942l-88.8069153-15.2685089
			c-3.2481079-0.5584412-5.7193756-2.9569702-6.519455-5.9562073c-0.3123016-1.117218-0.3807983-2.3131561-0.1720581-3.5272369
			l1.3897095-8.0829926l0.2449799,0.0421143c0.3101349,0.4918671,1.0267792,1.0427094,2.1217041,1.6256561
			c1.1018524,0.6060944,2.6013947,1.258606,4.4366302,1.9359741c8.8194275,3.2925415,25.4906464,7.3429871,44.7876892,10.6607208
			c27.2415924,4.6836243,50.0331879,6.2338867,53.1476898,3.7431793L306.526123,234.1347809z"/>
		<path style="fill:#1A1A1A;" d="M306.625,233.5596619c-0.032959,0.1916809-0.1511536,0.3687897-0.343811,0.5330048
			c-3.114502,2.4907074-25.9060974,0.9404449-53.1476898-3.7431793
			c-27.2416534-4.6836395-49.2422791-10.8344727-51.3460236-14.2223511
			c-0.1268158-0.2191467-0.1790619-0.4255524-0.1461029-0.6172333c0.552948-3.2161255,24.5033417-1.7736664,53.4915466,3.2102509
			C284.1210632,223.704071,307.177948,230.3435364,306.625,233.5596619z"/>
		<path style="fill:#1A1A1A;" d="M200.3275909,227.6950684l-44.2282867-7.6072845
			c-4.4736176-2.0206909-6.3106232-10.7410126-6.3106232-10.7410126s7.5965271,1.469574,11.8540344,1.1345978l39.6898193,6.8292999
			l-1.1778717,6.8616791C199.9494171,225.3825989,200.0142517,226.5820923,200.3275909,227.6950684z"/>
		<path style="fill:#FFD773;" d="M328.8954468,173.5362091c-1.0481567-1.6208801-2.3556824-3.1444702-2.8743286-5.013916
			c-0.8320923-3.0039978,0.5510864-6.1160889,0.8644409-9.206543c0.4106445-3.9981689-1.0914001-8.1584473-3.954895-10.9787598
			c-1.7829895-1.7505493-4.1062927-3.0796356-5.1652222-5.338089c-0.6159363-1.3182831-0.7239685-2.7986755-1.0805969-4.2034912
			c-0.9077148-3.6739349-4.4411926-7.1750183-8.0935669-6.1592712c-2.7338867,0.7563629-4.3223267,3.7928009-4.2899475,6.6347351
			c0.021637,2.831131,1.3183594,5.4893799,2.6799011,7.9638977c1.3722839,2.4853973,2.8634949,4.9815369,3.3605957,7.7693939
			c0.5402832,2.9824219-0.1080322,6.0296783-0.7456055,8.9904785c-0.7779846,3.5335236-1.5992432,7.1967163-3.7928467,10.0926819
			c-1.9558716,2.5717926-4.8193665,4.279068-7.6072998,5.9323883c-6.2673645,3.6955719-13.1074829,7.5208893-20.3474121,6.7861023
			c-2.3556519-0.2377625-4.6356812-0.9617462-6.991333-1.2210693c-2.3449097-0.2485809-4.9167175,0.0431976-6.721283,1.5776062
			c-1.4371948,1.2210693-2.1828003,3.0472565-3.3713989,4.5168304c-1.8478394,2.301651-4.8194427,3.6631927-7.7694092,3.5551605
			c-1.9666748-0.0648193-3.8576965-0.7456055-5.8135529-1.037384c-1.9450226-0.2917786-4.1278229-0.1188354-5.5649567,1.2210693
			c-2.0099335,1.8585815-2.2584534,5.6298676-4.905899,6.2998199c-1.1237793,0.2809601-2.280014-0.1512909-3.3605957-0.5294647
			c-1.0697632-0.3566132-2.1828003-0.6807861-3.2957611-0.853714c-1.4371948-0.2161255-2.8852081-0.1944885-4.2466888,0.2809601
			c-2.0747681,0.7348022-3.8793335,3.0148163-3.6631927,5.3056488c0.2376862,2.5717926,2.1287079,2.7447205,4.3979797,3.3606567
			c2.8959503,0.7779846,5.2191772,2.8959656,7.7261353,4.5600281c7.8558655,5.2084351,18.0565796,6.0080566,27.2199097,3.7496643
			c0,0,7.2205811-2.5392761,11.7783813-2.3124695c1.8153687,0.097229,3.5983582,0.5402985,5.3921204,0.8104401
			c4.506012,0.6591492,9.1741333,0.1404877,13.4208069-1.4912109c2.8419495-1.1022186,5.5325928-2.7014618,8.5366516-3.1769104
			c1.8693848-0.2917786,3.7712097-0.1513062,5.640625-0.3133545c5.5974731-0.4970856,10.8490906-3.9981689,13.4424438-8.9904633
			c0.8104553-1.5452271,1.3940125-3.2525635,2.5502319-4.5709076c1.2210693-1.4047546,2.9716187-2.2259979,4.4519958-3.3605957
			C332.7207336,189.5396576,333.0232849,179.9224243,328.8954468,173.5362091z"/>
		<path style="fill:#1A1A1A;" d="M172.718689,343.1662292l-10.2223358,0.2809753l-108.9444733,2.9607849
			c0,0,19.8611336-118.6697235,18.6400719-118.7129211c-1.2102509-0.0431976-30.7966385-65.6994781-30.7966385-65.6994781
			s-1.0914001-15.1498108-1.4479446-24.9939117c0.5618591,0.0108185,1.1346016,0.021637,1.7072754,0.0323792
			c1.1562309,0.0324554,2.3232803,0.0648956,3.511898,0.1189117c0.6051216,0.0215759,1.1994972,0.0431976,1.8046227,0.0756531
			c0.5834885,0.0215607,1.1777992,0.0540161,1.7721062,0.0863953c0.6375732,0.0324554,1.2751465,0.0648346,1.9234695,0.1081085
			c0.5726776,0.0323792,1.1346016,0.0756378,1.7180939,0.1080322c0.6915894,0.0431976,1.3831787,0.0972748,2.0855827,0.1512909
			l5.9755936,21.0605621l46.7136154-3.5010834l-6.213356-16.4897156c2.3124619-0.4430084,4.3223343-0.9832916,6.0945053-1.5992432
			c0.2593307-0.0864563,0.4970932-0.1837463,0.7456055-0.2701416c1.934288-0.7132263,3.565918-1.5236664,4.9599152-2.3664856
			l14.3933792,38.0257568c0,0,0,0,0.0107498,0.0108032v0.0107574c0,0.021637,0.0108185,0.0540771,0.021637,0.1080933
			c0.0108109,0.0431976,0.0216293,0.0864716,0.0324478,0.1513062
			C129.1062775,179.4145813,164.0307617,301.7690735,172.718689,343.1662292z"/>
		<path style="fill:#E14945;" d="M2.6239672,141.1895294v-1.7025299c0,0-8.97258-0.7030334,6.2661123,38.6945648
			s21.8637657,61.6981049,38.0641899,64.6715088s80.1854095-17.4687347,80.1854095-17.4687347l-5.2602768-24.158905
			c0,0-49.4328232,9.2918854-55.379631,4.8317871c-5.9468079-4.4601135-36.0525169-57.2380219-36.0525169-56.1230011
			C30.4472542,151.0492554,2.6239672,141.1895294,2.6239672,141.1895294z"/>
		<path style="fill:#EBAD8C;" d="M164.4198151,209.3467712c-0.2161255,0.6915894-1.2967072,1.0265656-2.7770996,1.1345978
			c-4.2575073,0.3349762-11.8540344-1.1345978-11.8540344-1.1345978s1.8370056,8.7203217,6.3106232,10.7410126
			c0.0540161,0.0323792,0.1080322,0.0540161,0.1620483,0.0756378c4.603302,1.8910217-8.558197,12.9237518-12.632019,10.4600525
			c-4.0845795-2.4637604-16.4896545-5.2408752-16.4896545-5.2408752l-4.3547821-19.9799805
			c0,0,13.6153259-9.4874878,22.4004822-5.1003265C153.9597168,204.7002716,165.2518311,206.6776886,164.4198151,209.3467712z"/>
	</g>
</g>
<g id="Layer_2">
</g>
<g id="Layer_3">
</g>
<g id="Layer_4">
</g>
<g id="Layer_5">
</g>
<g id="Layer_6">
</g>
<g id="Layer_7">
</g>
<g id="Layer_8">
</g>
<g id="Layer_9">
</g>
<g id="Layer_10">
</g>
</svg>
